G04 EAGLE Gerber RS-274X export*
G75*
%MOMM*%
%FSLAX34Y34*%
%LPD*%
%IN*%
%IPPOS*%
%AMOC8*
5,1,8,0,0,1.08239X$1,22.5*%
G01*
%ADD10C,0.203200*%
%ADD11C,0.381000*%
%ADD12C,0.279400*%
%ADD13C,0.254000*%


D10*
X0Y0D02*
X0Y127000D01*
X254000Y127000D01*
X254000Y0D01*
X0Y0D01*
X259080Y0D02*
X259080Y127000D01*
X513080Y127000D01*
X513080Y0D01*
X259080Y0D01*
X518160Y0D02*
X518160Y127000D01*
X772160Y127000D01*
X772160Y0D01*
X518160Y0D01*
X777240Y0D02*
X777240Y127000D01*
X1031240Y127000D01*
X1031240Y0D01*
X777240Y0D01*
X1036320Y0D02*
X1036320Y127000D01*
X1290320Y127000D01*
X1290320Y0D01*
X1036320Y0D01*
X0Y132080D02*
X0Y259080D01*
X254000Y259080D01*
X254000Y132080D01*
X0Y132080D01*
X259080Y132080D02*
X259080Y259080D01*
X513080Y259080D01*
X513080Y132080D01*
X259080Y132080D01*
X518160Y132080D02*
X518160Y259080D01*
X772160Y259080D01*
X772160Y132080D01*
X518160Y132080D01*
X777240Y132080D02*
X777240Y259080D01*
X1031240Y259080D01*
X1031240Y132080D01*
X777240Y132080D01*
X1036320Y132080D02*
X1036320Y259080D01*
X1290320Y259080D01*
X1290320Y132080D01*
X1036320Y132080D01*
X0Y264160D02*
X0Y391160D01*
X254000Y391160D01*
X254000Y264160D01*
X0Y264160D01*
X259080Y264160D02*
X259080Y391160D01*
X513080Y391160D01*
X513080Y264160D01*
X259080Y264160D01*
X518160Y264160D02*
X518160Y391160D01*
X772160Y391160D01*
X772160Y264160D01*
X518160Y264160D01*
X777240Y264160D02*
X777240Y391160D01*
X1031240Y391160D01*
X1031240Y264160D01*
X777240Y264160D01*
X1036320Y264160D02*
X1036320Y391160D01*
X1290320Y391160D01*
X1290320Y264160D01*
X1036320Y264160D01*
X0Y396240D02*
X0Y523240D01*
X254000Y523240D01*
X254000Y396240D01*
X0Y396240D01*
X259080Y396240D02*
X259080Y523240D01*
X513080Y523240D01*
X513080Y396240D01*
X259080Y396240D01*
X518160Y396240D02*
X518160Y523240D01*
X772160Y523240D01*
X772160Y396240D01*
X518160Y396240D01*
X777240Y396240D02*
X777240Y523240D01*
X1031240Y523240D01*
X1031240Y396240D01*
X777240Y396240D01*
X1036320Y396240D02*
X1036320Y523240D01*
X1290320Y523240D01*
X1290320Y396240D01*
X1036320Y396240D01*
X0Y528320D02*
X0Y655320D01*
X254000Y655320D01*
X254000Y528320D01*
X0Y528320D01*
X259080Y528320D02*
X259080Y655320D01*
X513080Y655320D01*
X513080Y528320D01*
X259080Y528320D01*
X518160Y528320D02*
X518160Y655320D01*
X772160Y655320D01*
X772160Y528320D01*
X518160Y528320D01*
X777240Y528320D02*
X777240Y655320D01*
X1031240Y655320D01*
X1031240Y528320D01*
X777240Y528320D01*
X1036320Y528320D02*
X1036320Y655320D01*
X1290320Y655320D01*
X1290320Y528320D01*
X1036320Y528320D01*
D11*
X-2540Y728980D02*
X-2540Y-68580D01*
D12*
X-42921Y744347D02*
X-46251Y754338D01*
X-39590Y754338D02*
X-42921Y744347D01*
X-32806Y750175D02*
X-22815Y750175D01*
X-14261Y750175D02*
X-10098Y748510D01*
X-14261Y750174D02*
X-14346Y750210D01*
X-14429Y750250D01*
X-14510Y750293D01*
X-14590Y750340D01*
X-14667Y750390D01*
X-14743Y750443D01*
X-14816Y750499D01*
X-14886Y750559D01*
X-14954Y750621D01*
X-15019Y750686D01*
X-15081Y750754D01*
X-15141Y750825D01*
X-15197Y750898D01*
X-15250Y750973D01*
X-15300Y751051D01*
X-15346Y751130D01*
X-15389Y751212D01*
X-15429Y751295D01*
X-15465Y751380D01*
X-15497Y751466D01*
X-15526Y751554D01*
X-15550Y751643D01*
X-15571Y751733D01*
X-15588Y751823D01*
X-15602Y751914D01*
X-15611Y752006D01*
X-15616Y752098D01*
X-15618Y752190D01*
X-15616Y752282D01*
X-15609Y752374D01*
X-15599Y752466D01*
X-15585Y752557D01*
X-15567Y752648D01*
X-15545Y752737D01*
X-15519Y752826D01*
X-15489Y752913D01*
X-15456Y752999D01*
X-15419Y753083D01*
X-15379Y753166D01*
X-15335Y753247D01*
X-15288Y753326D01*
X-15237Y753403D01*
X-15183Y753478D01*
X-15126Y753551D01*
X-15066Y753621D01*
X-15003Y753688D01*
X-14937Y753752D01*
X-14869Y753814D01*
X-14798Y753873D01*
X-14724Y753928D01*
X-14648Y753981D01*
X-14570Y754030D01*
X-14490Y754076D01*
X-14409Y754118D01*
X-14325Y754157D01*
X-14240Y754192D01*
X-14153Y754223D01*
X-14065Y754251D01*
X-13976Y754275D01*
X-13886Y754295D01*
X-13796Y754312D01*
X-13704Y754324D01*
X-13612Y754333D01*
X-13520Y754337D01*
X-13428Y754338D01*
X-13201Y754332D01*
X-12974Y754321D01*
X-12747Y754304D01*
X-12521Y754281D01*
X-12295Y754254D01*
X-12070Y754220D01*
X-11846Y754182D01*
X-11623Y754138D01*
X-11401Y754089D01*
X-11180Y754034D01*
X-10961Y753974D01*
X-10743Y753909D01*
X-10527Y753838D01*
X-10313Y753763D01*
X-10100Y753682D01*
X-9890Y753596D01*
X-9681Y753505D01*
X-10098Y748510D02*
X-10013Y748474D01*
X-9930Y748434D01*
X-9849Y748391D01*
X-9769Y748344D01*
X-9692Y748294D01*
X-9616Y748241D01*
X-9543Y748185D01*
X-9473Y748125D01*
X-9405Y748063D01*
X-9340Y747998D01*
X-9278Y747930D01*
X-9218Y747859D01*
X-9162Y747786D01*
X-9109Y747711D01*
X-9059Y747633D01*
X-9013Y747554D01*
X-8970Y747472D01*
X-8930Y747389D01*
X-8894Y747304D01*
X-8862Y747218D01*
X-8833Y747130D01*
X-8809Y747041D01*
X-8788Y746951D01*
X-8771Y746861D01*
X-8757Y746770D01*
X-8748Y746678D01*
X-8743Y746586D01*
X-8741Y746494D01*
X-8743Y746402D01*
X-8750Y746310D01*
X-8760Y746218D01*
X-8774Y746127D01*
X-8792Y746036D01*
X-8814Y745947D01*
X-8840Y745858D01*
X-8870Y745771D01*
X-8903Y745685D01*
X-8940Y745601D01*
X-8980Y745518D01*
X-9024Y745437D01*
X-9071Y745358D01*
X-9122Y745281D01*
X-9176Y745206D01*
X-9233Y745133D01*
X-9293Y745063D01*
X-9356Y744996D01*
X-9422Y744932D01*
X-9490Y744870D01*
X-9561Y744811D01*
X-9635Y744756D01*
X-9711Y744703D01*
X-9789Y744654D01*
X-9869Y744608D01*
X-9950Y744566D01*
X-10034Y744527D01*
X-10119Y744492D01*
X-10206Y744461D01*
X-10294Y744433D01*
X-10383Y744409D01*
X-10473Y744389D01*
X-10563Y744372D01*
X-10655Y744360D01*
X-10747Y744351D01*
X-10839Y744347D01*
X-10931Y744346D01*
X-10931Y744347D02*
X-11265Y744356D01*
X-11598Y744373D01*
X-11931Y744397D01*
X-12264Y744430D01*
X-12595Y744470D01*
X-12926Y744518D01*
X-13255Y744574D01*
X-13583Y744637D01*
X-13909Y744709D01*
X-14233Y744788D01*
X-14556Y744874D01*
X-14876Y744969D01*
X-15194Y745071D01*
X-15510Y745180D01*
X562Y744347D02*
X3892Y744347D01*
X562Y744347D02*
X464Y744349D01*
X366Y744355D01*
X268Y744364D01*
X171Y744378D01*
X75Y744395D01*
X-21Y744416D01*
X-116Y744441D01*
X-210Y744469D01*
X-303Y744501D01*
X-394Y744537D01*
X-484Y744576D01*
X-572Y744619D01*
X-659Y744666D01*
X-743Y744715D01*
X-826Y744768D01*
X-906Y744824D01*
X-985Y744883D01*
X-1060Y744946D01*
X-1134Y745011D01*
X-1204Y745079D01*
X-1272Y745149D01*
X-1338Y745223D01*
X-1400Y745299D01*
X-1459Y745377D01*
X-1515Y745457D01*
X-1568Y745540D01*
X-1618Y745624D01*
X-1664Y745711D01*
X-1707Y745799D01*
X-1746Y745889D01*
X-1782Y745980D01*
X-1814Y746073D01*
X-1842Y746167D01*
X-1867Y746262D01*
X-1888Y746358D01*
X-1905Y746454D01*
X-1919Y746551D01*
X-1928Y746649D01*
X-1934Y746747D01*
X-1936Y746845D01*
X-1936Y751840D01*
X-1934Y751938D01*
X-1928Y752036D01*
X-1919Y752134D01*
X-1905Y752231D01*
X-1888Y752327D01*
X-1867Y752423D01*
X-1842Y752518D01*
X-1814Y752612D01*
X-1782Y752705D01*
X-1746Y752796D01*
X-1707Y752886D01*
X-1664Y752974D01*
X-1617Y753061D01*
X-1568Y753145D01*
X-1515Y753228D01*
X-1459Y753308D01*
X-1400Y753386D01*
X-1337Y753462D01*
X-1272Y753536D01*
X-1204Y753606D01*
X-1134Y753674D01*
X-1060Y753739D01*
X-984Y753802D01*
X-906Y753861D01*
X-826Y753917D01*
X-743Y753970D01*
X-659Y754019D01*
X-572Y754066D01*
X-484Y754109D01*
X-394Y754148D01*
X-303Y754184D01*
X-210Y754216D01*
X-116Y754244D01*
X-21Y754269D01*
X75Y754290D01*
X171Y754307D01*
X268Y754321D01*
X366Y754330D01*
X464Y754336D01*
X562Y754338D01*
X3892Y754338D01*
X10022Y751007D02*
X10022Y747677D01*
X10022Y751007D02*
X10024Y751121D01*
X10030Y751234D01*
X10039Y751348D01*
X10053Y751460D01*
X10070Y751573D01*
X10092Y751685D01*
X10117Y751795D01*
X10145Y751905D01*
X10178Y752014D01*
X10214Y752122D01*
X10254Y752229D01*
X10298Y752334D01*
X10345Y752437D01*
X10395Y752539D01*
X10449Y752639D01*
X10507Y752737D01*
X10568Y752833D01*
X10631Y752927D01*
X10699Y753019D01*
X10769Y753109D01*
X10842Y753195D01*
X10918Y753280D01*
X10997Y753362D01*
X11079Y753441D01*
X11164Y753517D01*
X11250Y753590D01*
X11340Y753660D01*
X11432Y753728D01*
X11526Y753791D01*
X11622Y753852D01*
X11720Y753910D01*
X11820Y753964D01*
X11922Y754014D01*
X12025Y754061D01*
X12130Y754105D01*
X12237Y754145D01*
X12345Y754181D01*
X12454Y754214D01*
X12564Y754242D01*
X12674Y754267D01*
X12786Y754289D01*
X12899Y754306D01*
X13011Y754320D01*
X13125Y754329D01*
X13238Y754335D01*
X13352Y754337D01*
X13466Y754335D01*
X13579Y754329D01*
X13693Y754320D01*
X13805Y754306D01*
X13918Y754289D01*
X14030Y754267D01*
X14140Y754242D01*
X14250Y754214D01*
X14359Y754181D01*
X14467Y754145D01*
X14574Y754105D01*
X14679Y754061D01*
X14782Y754014D01*
X14884Y753964D01*
X14984Y753910D01*
X15082Y753852D01*
X15178Y753791D01*
X15272Y753728D01*
X15364Y753660D01*
X15454Y753590D01*
X15540Y753517D01*
X15625Y753441D01*
X15707Y753362D01*
X15786Y753280D01*
X15862Y753195D01*
X15935Y753109D01*
X16005Y753019D01*
X16073Y752927D01*
X16136Y752833D01*
X16197Y752737D01*
X16255Y752639D01*
X16309Y752539D01*
X16359Y752437D01*
X16406Y752334D01*
X16450Y752229D01*
X16490Y752122D01*
X16526Y752014D01*
X16559Y751905D01*
X16587Y751795D01*
X16612Y751685D01*
X16634Y751573D01*
X16651Y751460D01*
X16665Y751348D01*
X16674Y751234D01*
X16680Y751121D01*
X16682Y751007D01*
X16682Y747677D01*
X16680Y747563D01*
X16674Y747450D01*
X16665Y747336D01*
X16651Y747224D01*
X16634Y747111D01*
X16612Y746999D01*
X16587Y746889D01*
X16559Y746779D01*
X16526Y746670D01*
X16490Y746562D01*
X16450Y746455D01*
X16406Y746350D01*
X16359Y746247D01*
X16309Y746145D01*
X16255Y746045D01*
X16197Y745947D01*
X16136Y745851D01*
X16073Y745757D01*
X16005Y745665D01*
X15935Y745575D01*
X15862Y745489D01*
X15786Y745404D01*
X15707Y745322D01*
X15625Y745243D01*
X15540Y745167D01*
X15454Y745094D01*
X15364Y745024D01*
X15272Y744956D01*
X15178Y744893D01*
X15082Y744832D01*
X14984Y744774D01*
X14884Y744720D01*
X14782Y744670D01*
X14679Y744623D01*
X14574Y744579D01*
X14467Y744539D01*
X14359Y744503D01*
X14250Y744470D01*
X14140Y744442D01*
X14030Y744417D01*
X13918Y744395D01*
X13805Y744378D01*
X13693Y744364D01*
X13579Y744355D01*
X13466Y744349D01*
X13352Y744347D01*
X13238Y744349D01*
X13125Y744355D01*
X13011Y744364D01*
X12899Y744378D01*
X12786Y744395D01*
X12674Y744417D01*
X12564Y744442D01*
X12454Y744470D01*
X12345Y744503D01*
X12237Y744539D01*
X12130Y744579D01*
X12025Y744623D01*
X11922Y744670D01*
X11820Y744720D01*
X11720Y744774D01*
X11622Y744832D01*
X11526Y744893D01*
X11432Y744956D01*
X11340Y745024D01*
X11250Y745094D01*
X11164Y745167D01*
X11079Y745243D01*
X10997Y745322D01*
X10918Y745404D01*
X10842Y745489D01*
X10769Y745575D01*
X10699Y745665D01*
X10631Y745757D01*
X10568Y745851D01*
X10507Y745947D01*
X10449Y746045D01*
X10395Y746145D01*
X10345Y746247D01*
X10298Y746350D01*
X10254Y746455D01*
X10214Y746562D01*
X10178Y746670D01*
X10145Y746779D01*
X10117Y746889D01*
X10092Y746999D01*
X10070Y747111D01*
X10053Y747224D01*
X10039Y747336D01*
X10030Y747450D01*
X10024Y747563D01*
X10022Y747677D01*
X24218Y744347D02*
X24218Y754338D01*
X29213Y754338D01*
X29213Y752673D01*
X37008Y744347D02*
X41171Y744347D01*
X37008Y744347D02*
X36910Y744349D01*
X36812Y744355D01*
X36714Y744364D01*
X36617Y744378D01*
X36521Y744395D01*
X36425Y744416D01*
X36330Y744441D01*
X36236Y744469D01*
X36143Y744501D01*
X36052Y744537D01*
X35962Y744576D01*
X35874Y744619D01*
X35787Y744666D01*
X35703Y744715D01*
X35620Y744768D01*
X35540Y744824D01*
X35462Y744883D01*
X35386Y744946D01*
X35312Y745011D01*
X35242Y745079D01*
X35174Y745149D01*
X35109Y745223D01*
X35046Y745299D01*
X34987Y745377D01*
X34931Y745457D01*
X34878Y745540D01*
X34829Y745624D01*
X34782Y745711D01*
X34739Y745799D01*
X34700Y745889D01*
X34664Y745980D01*
X34632Y746073D01*
X34604Y746167D01*
X34579Y746262D01*
X34558Y746358D01*
X34541Y746454D01*
X34527Y746551D01*
X34518Y746649D01*
X34512Y746747D01*
X34510Y746845D01*
X34510Y751007D01*
X34511Y751007D02*
X34513Y751121D01*
X34519Y751234D01*
X34528Y751348D01*
X34542Y751460D01*
X34559Y751573D01*
X34581Y751685D01*
X34606Y751795D01*
X34634Y751905D01*
X34667Y752014D01*
X34703Y752122D01*
X34743Y752229D01*
X34787Y752334D01*
X34834Y752437D01*
X34884Y752539D01*
X34938Y752639D01*
X34996Y752737D01*
X35057Y752833D01*
X35120Y752927D01*
X35188Y753019D01*
X35258Y753109D01*
X35331Y753195D01*
X35407Y753280D01*
X35486Y753362D01*
X35568Y753441D01*
X35653Y753517D01*
X35739Y753590D01*
X35829Y753660D01*
X35921Y753728D01*
X36015Y753791D01*
X36111Y753852D01*
X36209Y753910D01*
X36309Y753964D01*
X36411Y754014D01*
X36514Y754061D01*
X36619Y754105D01*
X36726Y754145D01*
X36834Y754181D01*
X36943Y754214D01*
X37053Y754242D01*
X37163Y754267D01*
X37275Y754289D01*
X37388Y754306D01*
X37500Y754320D01*
X37614Y754329D01*
X37727Y754335D01*
X37841Y754337D01*
X37955Y754335D01*
X38068Y754329D01*
X38182Y754320D01*
X38294Y754306D01*
X38407Y754289D01*
X38519Y754267D01*
X38629Y754242D01*
X38739Y754214D01*
X38848Y754181D01*
X38956Y754145D01*
X39063Y754105D01*
X39168Y754061D01*
X39271Y754014D01*
X39373Y753964D01*
X39473Y753910D01*
X39571Y753852D01*
X39667Y753791D01*
X39761Y753728D01*
X39853Y753660D01*
X39943Y753590D01*
X40029Y753517D01*
X40114Y753441D01*
X40196Y753362D01*
X40275Y753280D01*
X40351Y753195D01*
X40424Y753109D01*
X40494Y753019D01*
X40562Y752927D01*
X40625Y752833D01*
X40686Y752737D01*
X40744Y752639D01*
X40798Y752539D01*
X40848Y752437D01*
X40895Y752334D01*
X40939Y752229D01*
X40979Y752122D01*
X41015Y752014D01*
X41048Y751905D01*
X41076Y751795D01*
X41101Y751685D01*
X41123Y751573D01*
X41140Y751460D01*
X41154Y751348D01*
X41163Y751234D01*
X41169Y751121D01*
X41171Y751007D01*
X41171Y749342D01*
X34510Y749342D01*
D11*
X256540Y728980D02*
X256540Y-68580D01*
D12*
X216159Y744347D02*
X212829Y754338D01*
X219490Y754338D02*
X216159Y744347D01*
X226274Y750175D02*
X236265Y750175D01*
X244819Y750175D02*
X248982Y748510D01*
X244819Y750174D02*
X244734Y750210D01*
X244651Y750250D01*
X244570Y750293D01*
X244490Y750340D01*
X244413Y750390D01*
X244337Y750443D01*
X244264Y750499D01*
X244194Y750559D01*
X244126Y750621D01*
X244061Y750686D01*
X243999Y750754D01*
X243939Y750825D01*
X243883Y750898D01*
X243830Y750973D01*
X243780Y751051D01*
X243734Y751130D01*
X243691Y751212D01*
X243651Y751295D01*
X243615Y751380D01*
X243583Y751466D01*
X243554Y751554D01*
X243530Y751643D01*
X243509Y751733D01*
X243492Y751823D01*
X243478Y751914D01*
X243469Y752006D01*
X243464Y752098D01*
X243462Y752190D01*
X243464Y752282D01*
X243471Y752374D01*
X243481Y752466D01*
X243495Y752557D01*
X243513Y752648D01*
X243535Y752737D01*
X243561Y752826D01*
X243591Y752913D01*
X243624Y752999D01*
X243661Y753083D01*
X243701Y753166D01*
X243745Y753247D01*
X243792Y753326D01*
X243843Y753403D01*
X243897Y753478D01*
X243954Y753551D01*
X244014Y753621D01*
X244077Y753688D01*
X244143Y753752D01*
X244211Y753814D01*
X244282Y753873D01*
X244356Y753928D01*
X244432Y753981D01*
X244510Y754030D01*
X244590Y754076D01*
X244671Y754118D01*
X244755Y754157D01*
X244840Y754192D01*
X244927Y754223D01*
X245015Y754251D01*
X245104Y754275D01*
X245194Y754295D01*
X245284Y754312D01*
X245376Y754324D01*
X245468Y754333D01*
X245560Y754337D01*
X245652Y754338D01*
X245879Y754332D01*
X246106Y754321D01*
X246333Y754304D01*
X246559Y754281D01*
X246785Y754254D01*
X247010Y754220D01*
X247234Y754182D01*
X247457Y754138D01*
X247679Y754089D01*
X247900Y754034D01*
X248119Y753974D01*
X248337Y753909D01*
X248553Y753838D01*
X248767Y753763D01*
X248980Y753682D01*
X249190Y753596D01*
X249399Y753505D01*
X248982Y748510D02*
X249067Y748474D01*
X249150Y748434D01*
X249231Y748391D01*
X249311Y748344D01*
X249388Y748294D01*
X249464Y748241D01*
X249537Y748185D01*
X249607Y748125D01*
X249675Y748063D01*
X249740Y747998D01*
X249802Y747930D01*
X249862Y747859D01*
X249918Y747786D01*
X249971Y747711D01*
X250021Y747633D01*
X250067Y747554D01*
X250110Y747472D01*
X250150Y747389D01*
X250186Y747304D01*
X250218Y747218D01*
X250247Y747130D01*
X250271Y747041D01*
X250292Y746951D01*
X250309Y746861D01*
X250323Y746770D01*
X250332Y746678D01*
X250337Y746586D01*
X250339Y746494D01*
X250337Y746402D01*
X250330Y746310D01*
X250320Y746218D01*
X250306Y746127D01*
X250288Y746036D01*
X250266Y745947D01*
X250240Y745858D01*
X250210Y745771D01*
X250177Y745685D01*
X250140Y745601D01*
X250100Y745518D01*
X250056Y745437D01*
X250009Y745358D01*
X249958Y745281D01*
X249904Y745206D01*
X249847Y745133D01*
X249787Y745063D01*
X249724Y744996D01*
X249658Y744932D01*
X249590Y744870D01*
X249519Y744811D01*
X249445Y744756D01*
X249369Y744703D01*
X249291Y744654D01*
X249211Y744608D01*
X249130Y744566D01*
X249046Y744527D01*
X248961Y744492D01*
X248874Y744461D01*
X248786Y744433D01*
X248697Y744409D01*
X248607Y744389D01*
X248517Y744372D01*
X248425Y744360D01*
X248333Y744351D01*
X248241Y744347D01*
X248149Y744346D01*
X248149Y744347D02*
X247815Y744356D01*
X247482Y744373D01*
X247149Y744397D01*
X246816Y744430D01*
X246485Y744470D01*
X246154Y744518D01*
X245825Y744574D01*
X245497Y744637D01*
X245171Y744709D01*
X244847Y744788D01*
X244524Y744874D01*
X244204Y744969D01*
X243886Y745071D01*
X243570Y745180D01*
X259642Y744347D02*
X262972Y744347D01*
X259642Y744347D02*
X259544Y744349D01*
X259446Y744355D01*
X259348Y744364D01*
X259251Y744378D01*
X259155Y744395D01*
X259059Y744416D01*
X258964Y744441D01*
X258870Y744469D01*
X258777Y744501D01*
X258686Y744537D01*
X258596Y744576D01*
X258508Y744619D01*
X258421Y744666D01*
X258337Y744715D01*
X258254Y744768D01*
X258174Y744824D01*
X258096Y744883D01*
X258020Y744946D01*
X257946Y745011D01*
X257876Y745079D01*
X257808Y745149D01*
X257743Y745223D01*
X257680Y745299D01*
X257621Y745377D01*
X257565Y745457D01*
X257512Y745540D01*
X257463Y745624D01*
X257416Y745711D01*
X257373Y745799D01*
X257334Y745889D01*
X257298Y745980D01*
X257266Y746073D01*
X257238Y746167D01*
X257213Y746262D01*
X257192Y746358D01*
X257175Y746454D01*
X257161Y746551D01*
X257152Y746649D01*
X257146Y746747D01*
X257144Y746845D01*
X257144Y751840D01*
X257146Y751938D01*
X257152Y752036D01*
X257161Y752134D01*
X257175Y752231D01*
X257192Y752327D01*
X257213Y752423D01*
X257238Y752518D01*
X257266Y752612D01*
X257298Y752705D01*
X257334Y752796D01*
X257373Y752886D01*
X257416Y752974D01*
X257463Y753061D01*
X257512Y753145D01*
X257565Y753228D01*
X257621Y753308D01*
X257680Y753387D01*
X257743Y753462D01*
X257808Y753536D01*
X257876Y753606D01*
X257946Y753674D01*
X258020Y753740D01*
X258096Y753802D01*
X258174Y753861D01*
X258254Y753917D01*
X258337Y753970D01*
X258421Y754020D01*
X258508Y754066D01*
X258596Y754109D01*
X258686Y754148D01*
X258777Y754184D01*
X258870Y754216D01*
X258964Y754244D01*
X259059Y754269D01*
X259155Y754290D01*
X259251Y754307D01*
X259348Y754321D01*
X259446Y754330D01*
X259544Y754336D01*
X259642Y754338D01*
X262972Y754338D01*
X269102Y751007D02*
X269102Y747677D01*
X269102Y751007D02*
X269104Y751121D01*
X269110Y751234D01*
X269119Y751348D01*
X269133Y751460D01*
X269150Y751573D01*
X269172Y751685D01*
X269197Y751795D01*
X269225Y751905D01*
X269258Y752014D01*
X269294Y752122D01*
X269334Y752229D01*
X269378Y752334D01*
X269425Y752437D01*
X269475Y752539D01*
X269529Y752639D01*
X269587Y752737D01*
X269648Y752833D01*
X269711Y752927D01*
X269779Y753019D01*
X269849Y753109D01*
X269922Y753195D01*
X269998Y753280D01*
X270077Y753362D01*
X270159Y753441D01*
X270244Y753517D01*
X270330Y753590D01*
X270420Y753660D01*
X270512Y753728D01*
X270606Y753791D01*
X270702Y753852D01*
X270800Y753910D01*
X270900Y753964D01*
X271002Y754014D01*
X271105Y754061D01*
X271210Y754105D01*
X271317Y754145D01*
X271425Y754181D01*
X271534Y754214D01*
X271644Y754242D01*
X271754Y754267D01*
X271866Y754289D01*
X271979Y754306D01*
X272091Y754320D01*
X272205Y754329D01*
X272318Y754335D01*
X272432Y754337D01*
X272546Y754335D01*
X272659Y754329D01*
X272773Y754320D01*
X272885Y754306D01*
X272998Y754289D01*
X273110Y754267D01*
X273220Y754242D01*
X273330Y754214D01*
X273439Y754181D01*
X273547Y754145D01*
X273654Y754105D01*
X273759Y754061D01*
X273862Y754014D01*
X273964Y753964D01*
X274064Y753910D01*
X274162Y753852D01*
X274258Y753791D01*
X274352Y753728D01*
X274444Y753660D01*
X274534Y753590D01*
X274620Y753517D01*
X274705Y753441D01*
X274787Y753362D01*
X274866Y753280D01*
X274942Y753195D01*
X275015Y753109D01*
X275085Y753019D01*
X275153Y752927D01*
X275216Y752833D01*
X275277Y752737D01*
X275335Y752639D01*
X275389Y752539D01*
X275439Y752437D01*
X275486Y752334D01*
X275530Y752229D01*
X275570Y752122D01*
X275606Y752014D01*
X275639Y751905D01*
X275667Y751795D01*
X275692Y751685D01*
X275714Y751573D01*
X275731Y751460D01*
X275745Y751348D01*
X275754Y751234D01*
X275760Y751121D01*
X275762Y751007D01*
X275762Y747677D01*
X275760Y747563D01*
X275754Y747450D01*
X275745Y747336D01*
X275731Y747224D01*
X275714Y747111D01*
X275692Y746999D01*
X275667Y746889D01*
X275639Y746779D01*
X275606Y746670D01*
X275570Y746562D01*
X275530Y746455D01*
X275486Y746350D01*
X275439Y746247D01*
X275389Y746145D01*
X275335Y746045D01*
X275277Y745947D01*
X275216Y745851D01*
X275153Y745757D01*
X275085Y745665D01*
X275015Y745575D01*
X274942Y745489D01*
X274866Y745404D01*
X274787Y745322D01*
X274705Y745243D01*
X274620Y745167D01*
X274534Y745094D01*
X274444Y745024D01*
X274352Y744956D01*
X274258Y744893D01*
X274162Y744832D01*
X274064Y744774D01*
X273964Y744720D01*
X273862Y744670D01*
X273759Y744623D01*
X273654Y744579D01*
X273547Y744539D01*
X273439Y744503D01*
X273330Y744470D01*
X273220Y744442D01*
X273110Y744417D01*
X272998Y744395D01*
X272885Y744378D01*
X272773Y744364D01*
X272659Y744355D01*
X272546Y744349D01*
X272432Y744347D01*
X272318Y744349D01*
X272205Y744355D01*
X272091Y744364D01*
X271979Y744378D01*
X271866Y744395D01*
X271754Y744417D01*
X271644Y744442D01*
X271534Y744470D01*
X271425Y744503D01*
X271317Y744539D01*
X271210Y744579D01*
X271105Y744623D01*
X271002Y744670D01*
X270900Y744720D01*
X270800Y744774D01*
X270702Y744832D01*
X270606Y744893D01*
X270512Y744956D01*
X270420Y745024D01*
X270330Y745094D01*
X270244Y745167D01*
X270159Y745243D01*
X270077Y745322D01*
X269998Y745404D01*
X269922Y745489D01*
X269849Y745575D01*
X269779Y745665D01*
X269711Y745757D01*
X269648Y745851D01*
X269587Y745947D01*
X269529Y746045D01*
X269475Y746145D01*
X269425Y746247D01*
X269378Y746350D01*
X269334Y746455D01*
X269294Y746562D01*
X269258Y746670D01*
X269225Y746779D01*
X269197Y746889D01*
X269172Y746999D01*
X269150Y747111D01*
X269133Y747224D01*
X269119Y747336D01*
X269110Y747450D01*
X269104Y747563D01*
X269102Y747677D01*
X283298Y744347D02*
X283298Y754338D01*
X288293Y754338D01*
X288293Y752673D01*
X296088Y744347D02*
X300251Y744347D01*
X296088Y744347D02*
X295990Y744349D01*
X295892Y744355D01*
X295794Y744364D01*
X295697Y744378D01*
X295601Y744395D01*
X295505Y744416D01*
X295410Y744441D01*
X295316Y744469D01*
X295223Y744501D01*
X295132Y744537D01*
X295042Y744576D01*
X294954Y744619D01*
X294867Y744666D01*
X294783Y744715D01*
X294700Y744768D01*
X294620Y744824D01*
X294542Y744883D01*
X294466Y744946D01*
X294392Y745011D01*
X294322Y745079D01*
X294254Y745149D01*
X294189Y745223D01*
X294126Y745299D01*
X294067Y745377D01*
X294011Y745457D01*
X293958Y745540D01*
X293909Y745624D01*
X293862Y745711D01*
X293819Y745799D01*
X293780Y745889D01*
X293744Y745980D01*
X293712Y746073D01*
X293684Y746167D01*
X293659Y746262D01*
X293638Y746358D01*
X293621Y746454D01*
X293607Y746551D01*
X293598Y746649D01*
X293592Y746747D01*
X293590Y746845D01*
X293590Y751007D01*
X293591Y751007D02*
X293593Y751121D01*
X293599Y751234D01*
X293608Y751348D01*
X293622Y751460D01*
X293639Y751573D01*
X293661Y751685D01*
X293686Y751795D01*
X293714Y751905D01*
X293747Y752014D01*
X293783Y752122D01*
X293823Y752229D01*
X293867Y752334D01*
X293914Y752437D01*
X293964Y752539D01*
X294018Y752639D01*
X294076Y752737D01*
X294137Y752833D01*
X294200Y752927D01*
X294268Y753019D01*
X294338Y753109D01*
X294411Y753195D01*
X294487Y753280D01*
X294566Y753362D01*
X294648Y753441D01*
X294733Y753517D01*
X294819Y753590D01*
X294909Y753660D01*
X295001Y753728D01*
X295095Y753791D01*
X295191Y753852D01*
X295289Y753910D01*
X295389Y753964D01*
X295491Y754014D01*
X295594Y754061D01*
X295699Y754105D01*
X295806Y754145D01*
X295914Y754181D01*
X296023Y754214D01*
X296133Y754242D01*
X296243Y754267D01*
X296355Y754289D01*
X296468Y754306D01*
X296580Y754320D01*
X296694Y754329D01*
X296807Y754335D01*
X296921Y754337D01*
X297035Y754335D01*
X297148Y754329D01*
X297262Y754320D01*
X297374Y754306D01*
X297487Y754289D01*
X297599Y754267D01*
X297709Y754242D01*
X297819Y754214D01*
X297928Y754181D01*
X298036Y754145D01*
X298143Y754105D01*
X298248Y754061D01*
X298351Y754014D01*
X298453Y753964D01*
X298553Y753910D01*
X298651Y753852D01*
X298747Y753791D01*
X298841Y753728D01*
X298933Y753660D01*
X299023Y753590D01*
X299109Y753517D01*
X299194Y753441D01*
X299276Y753362D01*
X299355Y753280D01*
X299431Y753195D01*
X299504Y753109D01*
X299574Y753019D01*
X299642Y752927D01*
X299705Y752833D01*
X299766Y752737D01*
X299824Y752639D01*
X299878Y752539D01*
X299928Y752437D01*
X299975Y752334D01*
X300019Y752229D01*
X300059Y752122D01*
X300095Y752014D01*
X300128Y751905D01*
X300156Y751795D01*
X300181Y751685D01*
X300203Y751573D01*
X300220Y751460D01*
X300234Y751348D01*
X300243Y751234D01*
X300249Y751121D01*
X300251Y751007D01*
X300251Y749342D01*
X293590Y749342D01*
D11*
X515620Y728980D02*
X515620Y-68580D01*
D12*
X475239Y744347D02*
X471909Y754338D01*
X478570Y754338D02*
X475239Y744347D01*
X485354Y750175D02*
X495345Y750175D01*
X503899Y750175D02*
X508062Y748510D01*
X503899Y750174D02*
X503814Y750210D01*
X503731Y750250D01*
X503650Y750293D01*
X503570Y750340D01*
X503493Y750390D01*
X503417Y750443D01*
X503344Y750499D01*
X503274Y750559D01*
X503206Y750621D01*
X503141Y750686D01*
X503079Y750754D01*
X503019Y750825D01*
X502963Y750898D01*
X502910Y750973D01*
X502860Y751051D01*
X502814Y751130D01*
X502771Y751212D01*
X502731Y751295D01*
X502695Y751380D01*
X502663Y751466D01*
X502634Y751554D01*
X502610Y751643D01*
X502589Y751733D01*
X502572Y751823D01*
X502558Y751914D01*
X502549Y752006D01*
X502544Y752098D01*
X502542Y752190D01*
X502544Y752282D01*
X502551Y752374D01*
X502561Y752466D01*
X502575Y752557D01*
X502593Y752648D01*
X502615Y752737D01*
X502641Y752826D01*
X502671Y752913D01*
X502704Y752999D01*
X502741Y753083D01*
X502781Y753166D01*
X502825Y753247D01*
X502872Y753326D01*
X502923Y753403D01*
X502977Y753478D01*
X503034Y753551D01*
X503094Y753621D01*
X503157Y753688D01*
X503223Y753752D01*
X503291Y753814D01*
X503362Y753873D01*
X503436Y753928D01*
X503512Y753981D01*
X503590Y754030D01*
X503670Y754076D01*
X503751Y754118D01*
X503835Y754157D01*
X503920Y754192D01*
X504007Y754223D01*
X504095Y754251D01*
X504184Y754275D01*
X504274Y754295D01*
X504364Y754312D01*
X504456Y754324D01*
X504548Y754333D01*
X504640Y754337D01*
X504732Y754338D01*
X504959Y754332D01*
X505186Y754321D01*
X505413Y754304D01*
X505639Y754281D01*
X505865Y754254D01*
X506090Y754220D01*
X506314Y754182D01*
X506537Y754138D01*
X506759Y754089D01*
X506980Y754034D01*
X507199Y753974D01*
X507417Y753909D01*
X507633Y753838D01*
X507847Y753763D01*
X508060Y753682D01*
X508270Y753596D01*
X508479Y753505D01*
X508062Y748510D02*
X508147Y748474D01*
X508230Y748434D01*
X508311Y748391D01*
X508391Y748344D01*
X508468Y748294D01*
X508544Y748241D01*
X508617Y748185D01*
X508687Y748125D01*
X508755Y748063D01*
X508820Y747998D01*
X508882Y747930D01*
X508942Y747859D01*
X508998Y747786D01*
X509051Y747711D01*
X509101Y747633D01*
X509147Y747554D01*
X509190Y747472D01*
X509230Y747389D01*
X509266Y747304D01*
X509298Y747218D01*
X509327Y747130D01*
X509351Y747041D01*
X509372Y746951D01*
X509389Y746861D01*
X509403Y746770D01*
X509412Y746678D01*
X509417Y746586D01*
X509419Y746494D01*
X509417Y746402D01*
X509410Y746310D01*
X509400Y746218D01*
X509386Y746127D01*
X509368Y746036D01*
X509346Y745947D01*
X509320Y745858D01*
X509290Y745771D01*
X509257Y745685D01*
X509220Y745601D01*
X509180Y745518D01*
X509136Y745437D01*
X509089Y745358D01*
X509038Y745281D01*
X508984Y745206D01*
X508927Y745133D01*
X508867Y745063D01*
X508804Y744996D01*
X508738Y744932D01*
X508670Y744870D01*
X508599Y744811D01*
X508525Y744756D01*
X508449Y744703D01*
X508371Y744654D01*
X508291Y744608D01*
X508210Y744566D01*
X508126Y744527D01*
X508041Y744492D01*
X507954Y744461D01*
X507866Y744433D01*
X507777Y744409D01*
X507687Y744389D01*
X507597Y744372D01*
X507505Y744360D01*
X507413Y744351D01*
X507321Y744347D01*
X507229Y744346D01*
X507229Y744347D02*
X506895Y744356D01*
X506562Y744373D01*
X506229Y744397D01*
X505896Y744430D01*
X505565Y744470D01*
X505234Y744518D01*
X504905Y744574D01*
X504577Y744637D01*
X504251Y744709D01*
X503927Y744788D01*
X503604Y744874D01*
X503284Y744969D01*
X502966Y745071D01*
X502650Y745180D01*
X518722Y744347D02*
X522052Y744347D01*
X518722Y744347D02*
X518624Y744349D01*
X518526Y744355D01*
X518428Y744364D01*
X518331Y744378D01*
X518235Y744395D01*
X518139Y744416D01*
X518044Y744441D01*
X517950Y744469D01*
X517857Y744501D01*
X517766Y744537D01*
X517676Y744576D01*
X517588Y744619D01*
X517501Y744666D01*
X517417Y744715D01*
X517334Y744768D01*
X517254Y744824D01*
X517176Y744883D01*
X517100Y744946D01*
X517026Y745011D01*
X516956Y745079D01*
X516888Y745149D01*
X516823Y745223D01*
X516760Y745299D01*
X516701Y745377D01*
X516645Y745457D01*
X516592Y745540D01*
X516543Y745624D01*
X516496Y745711D01*
X516453Y745799D01*
X516414Y745889D01*
X516378Y745980D01*
X516346Y746073D01*
X516318Y746167D01*
X516293Y746262D01*
X516272Y746358D01*
X516255Y746454D01*
X516241Y746551D01*
X516232Y746649D01*
X516226Y746747D01*
X516224Y746845D01*
X516224Y751840D01*
X516226Y751938D01*
X516232Y752036D01*
X516241Y752134D01*
X516255Y752231D01*
X516272Y752327D01*
X516293Y752423D01*
X516318Y752518D01*
X516346Y752612D01*
X516378Y752705D01*
X516414Y752796D01*
X516453Y752886D01*
X516496Y752974D01*
X516543Y753061D01*
X516592Y753145D01*
X516645Y753228D01*
X516701Y753308D01*
X516760Y753387D01*
X516823Y753462D01*
X516888Y753536D01*
X516956Y753606D01*
X517026Y753674D01*
X517100Y753740D01*
X517176Y753802D01*
X517254Y753861D01*
X517334Y753917D01*
X517417Y753970D01*
X517501Y754020D01*
X517588Y754066D01*
X517676Y754109D01*
X517766Y754148D01*
X517857Y754184D01*
X517950Y754216D01*
X518044Y754244D01*
X518139Y754269D01*
X518235Y754290D01*
X518331Y754307D01*
X518428Y754321D01*
X518526Y754330D01*
X518624Y754336D01*
X518722Y754338D01*
X522052Y754338D01*
X528182Y751007D02*
X528182Y747677D01*
X528182Y751007D02*
X528184Y751121D01*
X528190Y751234D01*
X528199Y751348D01*
X528213Y751460D01*
X528230Y751573D01*
X528252Y751685D01*
X528277Y751795D01*
X528305Y751905D01*
X528338Y752014D01*
X528374Y752122D01*
X528414Y752229D01*
X528458Y752334D01*
X528505Y752437D01*
X528555Y752539D01*
X528609Y752639D01*
X528667Y752737D01*
X528728Y752833D01*
X528791Y752927D01*
X528859Y753019D01*
X528929Y753109D01*
X529002Y753195D01*
X529078Y753280D01*
X529157Y753362D01*
X529239Y753441D01*
X529324Y753517D01*
X529410Y753590D01*
X529500Y753660D01*
X529592Y753728D01*
X529686Y753791D01*
X529782Y753852D01*
X529880Y753910D01*
X529980Y753964D01*
X530082Y754014D01*
X530185Y754061D01*
X530290Y754105D01*
X530397Y754145D01*
X530505Y754181D01*
X530614Y754214D01*
X530724Y754242D01*
X530834Y754267D01*
X530946Y754289D01*
X531059Y754306D01*
X531171Y754320D01*
X531285Y754329D01*
X531398Y754335D01*
X531512Y754337D01*
X531626Y754335D01*
X531739Y754329D01*
X531853Y754320D01*
X531965Y754306D01*
X532078Y754289D01*
X532190Y754267D01*
X532300Y754242D01*
X532410Y754214D01*
X532519Y754181D01*
X532627Y754145D01*
X532734Y754105D01*
X532839Y754061D01*
X532942Y754014D01*
X533044Y753964D01*
X533144Y753910D01*
X533242Y753852D01*
X533338Y753791D01*
X533432Y753728D01*
X533524Y753660D01*
X533614Y753590D01*
X533700Y753517D01*
X533785Y753441D01*
X533867Y753362D01*
X533946Y753280D01*
X534022Y753195D01*
X534095Y753109D01*
X534165Y753019D01*
X534233Y752927D01*
X534296Y752833D01*
X534357Y752737D01*
X534415Y752639D01*
X534469Y752539D01*
X534519Y752437D01*
X534566Y752334D01*
X534610Y752229D01*
X534650Y752122D01*
X534686Y752014D01*
X534719Y751905D01*
X534747Y751795D01*
X534772Y751685D01*
X534794Y751573D01*
X534811Y751460D01*
X534825Y751348D01*
X534834Y751234D01*
X534840Y751121D01*
X534842Y751007D01*
X534842Y747677D01*
X534840Y747563D01*
X534834Y747450D01*
X534825Y747336D01*
X534811Y747224D01*
X534794Y747111D01*
X534772Y746999D01*
X534747Y746889D01*
X534719Y746779D01*
X534686Y746670D01*
X534650Y746562D01*
X534610Y746455D01*
X534566Y746350D01*
X534519Y746247D01*
X534469Y746145D01*
X534415Y746045D01*
X534357Y745947D01*
X534296Y745851D01*
X534233Y745757D01*
X534165Y745665D01*
X534095Y745575D01*
X534022Y745489D01*
X533946Y745404D01*
X533867Y745322D01*
X533785Y745243D01*
X533700Y745167D01*
X533614Y745094D01*
X533524Y745024D01*
X533432Y744956D01*
X533338Y744893D01*
X533242Y744832D01*
X533144Y744774D01*
X533044Y744720D01*
X532942Y744670D01*
X532839Y744623D01*
X532734Y744579D01*
X532627Y744539D01*
X532519Y744503D01*
X532410Y744470D01*
X532300Y744442D01*
X532190Y744417D01*
X532078Y744395D01*
X531965Y744378D01*
X531853Y744364D01*
X531739Y744355D01*
X531626Y744349D01*
X531512Y744347D01*
X531398Y744349D01*
X531285Y744355D01*
X531171Y744364D01*
X531059Y744378D01*
X530946Y744395D01*
X530834Y744417D01*
X530724Y744442D01*
X530614Y744470D01*
X530505Y744503D01*
X530397Y744539D01*
X530290Y744579D01*
X530185Y744623D01*
X530082Y744670D01*
X529980Y744720D01*
X529880Y744774D01*
X529782Y744832D01*
X529686Y744893D01*
X529592Y744956D01*
X529500Y745024D01*
X529410Y745094D01*
X529324Y745167D01*
X529239Y745243D01*
X529157Y745322D01*
X529078Y745404D01*
X529002Y745489D01*
X528929Y745575D01*
X528859Y745665D01*
X528791Y745757D01*
X528728Y745851D01*
X528667Y745947D01*
X528609Y746045D01*
X528555Y746145D01*
X528505Y746247D01*
X528458Y746350D01*
X528414Y746455D01*
X528374Y746562D01*
X528338Y746670D01*
X528305Y746779D01*
X528277Y746889D01*
X528252Y746999D01*
X528230Y747111D01*
X528213Y747224D01*
X528199Y747336D01*
X528190Y747450D01*
X528184Y747563D01*
X528182Y747677D01*
X542378Y744347D02*
X542378Y754338D01*
X547373Y754338D01*
X547373Y752673D01*
X555168Y744347D02*
X559331Y744347D01*
X555168Y744347D02*
X555070Y744349D01*
X554972Y744355D01*
X554874Y744364D01*
X554777Y744378D01*
X554681Y744395D01*
X554585Y744416D01*
X554490Y744441D01*
X554396Y744469D01*
X554303Y744501D01*
X554212Y744537D01*
X554122Y744576D01*
X554034Y744619D01*
X553947Y744666D01*
X553863Y744715D01*
X553780Y744768D01*
X553700Y744824D01*
X553622Y744883D01*
X553546Y744946D01*
X553472Y745011D01*
X553402Y745079D01*
X553334Y745149D01*
X553269Y745223D01*
X553206Y745299D01*
X553147Y745377D01*
X553091Y745457D01*
X553038Y745540D01*
X552989Y745624D01*
X552942Y745711D01*
X552899Y745799D01*
X552860Y745889D01*
X552824Y745980D01*
X552792Y746073D01*
X552764Y746167D01*
X552739Y746262D01*
X552718Y746358D01*
X552701Y746454D01*
X552687Y746551D01*
X552678Y746649D01*
X552672Y746747D01*
X552670Y746845D01*
X552670Y751007D01*
X552671Y751007D02*
X552673Y751121D01*
X552679Y751234D01*
X552688Y751348D01*
X552702Y751460D01*
X552719Y751573D01*
X552741Y751685D01*
X552766Y751795D01*
X552794Y751905D01*
X552827Y752014D01*
X552863Y752122D01*
X552903Y752229D01*
X552947Y752334D01*
X552994Y752437D01*
X553044Y752539D01*
X553098Y752639D01*
X553156Y752737D01*
X553217Y752833D01*
X553280Y752927D01*
X553348Y753019D01*
X553418Y753109D01*
X553491Y753195D01*
X553567Y753280D01*
X553646Y753362D01*
X553728Y753441D01*
X553813Y753517D01*
X553899Y753590D01*
X553989Y753660D01*
X554081Y753728D01*
X554175Y753791D01*
X554271Y753852D01*
X554369Y753910D01*
X554469Y753964D01*
X554571Y754014D01*
X554674Y754061D01*
X554779Y754105D01*
X554886Y754145D01*
X554994Y754181D01*
X555103Y754214D01*
X555213Y754242D01*
X555323Y754267D01*
X555435Y754289D01*
X555548Y754306D01*
X555660Y754320D01*
X555774Y754329D01*
X555887Y754335D01*
X556001Y754337D01*
X556115Y754335D01*
X556228Y754329D01*
X556342Y754320D01*
X556454Y754306D01*
X556567Y754289D01*
X556679Y754267D01*
X556789Y754242D01*
X556899Y754214D01*
X557008Y754181D01*
X557116Y754145D01*
X557223Y754105D01*
X557328Y754061D01*
X557431Y754014D01*
X557533Y753964D01*
X557633Y753910D01*
X557731Y753852D01*
X557827Y753791D01*
X557921Y753728D01*
X558013Y753660D01*
X558103Y753590D01*
X558189Y753517D01*
X558274Y753441D01*
X558356Y753362D01*
X558435Y753280D01*
X558511Y753195D01*
X558584Y753109D01*
X558654Y753019D01*
X558722Y752927D01*
X558785Y752833D01*
X558846Y752737D01*
X558904Y752639D01*
X558958Y752539D01*
X559008Y752437D01*
X559055Y752334D01*
X559099Y752229D01*
X559139Y752122D01*
X559175Y752014D01*
X559208Y751905D01*
X559236Y751795D01*
X559261Y751685D01*
X559283Y751573D01*
X559300Y751460D01*
X559314Y751348D01*
X559323Y751234D01*
X559329Y751121D01*
X559331Y751007D01*
X559331Y749342D01*
X552670Y749342D01*
D11*
X774700Y728980D02*
X774700Y-68580D01*
D12*
X734319Y744347D02*
X730989Y754338D01*
X737650Y754338D02*
X734319Y744347D01*
X744434Y750175D02*
X754425Y750175D01*
X762979Y750175D02*
X767142Y748510D01*
X762979Y750174D02*
X762894Y750210D01*
X762811Y750250D01*
X762730Y750293D01*
X762650Y750340D01*
X762573Y750390D01*
X762497Y750443D01*
X762424Y750499D01*
X762354Y750559D01*
X762286Y750621D01*
X762221Y750686D01*
X762159Y750754D01*
X762099Y750825D01*
X762043Y750898D01*
X761990Y750973D01*
X761940Y751051D01*
X761894Y751130D01*
X761851Y751212D01*
X761811Y751295D01*
X761775Y751380D01*
X761743Y751466D01*
X761714Y751554D01*
X761690Y751643D01*
X761669Y751733D01*
X761652Y751823D01*
X761638Y751914D01*
X761629Y752006D01*
X761624Y752098D01*
X761622Y752190D01*
X761624Y752282D01*
X761631Y752374D01*
X761641Y752466D01*
X761655Y752557D01*
X761673Y752648D01*
X761695Y752737D01*
X761721Y752826D01*
X761751Y752913D01*
X761784Y752999D01*
X761821Y753083D01*
X761861Y753166D01*
X761905Y753247D01*
X761952Y753326D01*
X762003Y753403D01*
X762057Y753478D01*
X762114Y753551D01*
X762174Y753621D01*
X762237Y753688D01*
X762303Y753752D01*
X762371Y753814D01*
X762442Y753873D01*
X762516Y753928D01*
X762592Y753981D01*
X762670Y754030D01*
X762750Y754076D01*
X762831Y754118D01*
X762915Y754157D01*
X763000Y754192D01*
X763087Y754223D01*
X763175Y754251D01*
X763264Y754275D01*
X763354Y754295D01*
X763444Y754312D01*
X763536Y754324D01*
X763628Y754333D01*
X763720Y754337D01*
X763812Y754338D01*
X764039Y754332D01*
X764266Y754321D01*
X764493Y754304D01*
X764719Y754281D01*
X764945Y754254D01*
X765170Y754220D01*
X765394Y754182D01*
X765617Y754138D01*
X765839Y754089D01*
X766060Y754034D01*
X766279Y753974D01*
X766497Y753909D01*
X766713Y753838D01*
X766927Y753763D01*
X767140Y753682D01*
X767350Y753596D01*
X767559Y753505D01*
X767142Y748510D02*
X767227Y748474D01*
X767310Y748434D01*
X767391Y748391D01*
X767471Y748344D01*
X767548Y748294D01*
X767624Y748241D01*
X767697Y748185D01*
X767767Y748125D01*
X767835Y748063D01*
X767900Y747998D01*
X767962Y747930D01*
X768022Y747859D01*
X768078Y747786D01*
X768131Y747711D01*
X768181Y747633D01*
X768227Y747554D01*
X768270Y747472D01*
X768310Y747389D01*
X768346Y747304D01*
X768378Y747218D01*
X768407Y747130D01*
X768431Y747041D01*
X768452Y746951D01*
X768469Y746861D01*
X768483Y746770D01*
X768492Y746678D01*
X768497Y746586D01*
X768499Y746494D01*
X768497Y746402D01*
X768490Y746310D01*
X768480Y746218D01*
X768466Y746127D01*
X768448Y746036D01*
X768426Y745947D01*
X768400Y745858D01*
X768370Y745771D01*
X768337Y745685D01*
X768300Y745601D01*
X768260Y745518D01*
X768216Y745437D01*
X768169Y745358D01*
X768118Y745281D01*
X768064Y745206D01*
X768007Y745133D01*
X767947Y745063D01*
X767884Y744996D01*
X767818Y744932D01*
X767750Y744870D01*
X767679Y744811D01*
X767605Y744756D01*
X767529Y744703D01*
X767451Y744654D01*
X767371Y744608D01*
X767290Y744566D01*
X767206Y744527D01*
X767121Y744492D01*
X767034Y744461D01*
X766946Y744433D01*
X766857Y744409D01*
X766767Y744389D01*
X766677Y744372D01*
X766585Y744360D01*
X766493Y744351D01*
X766401Y744347D01*
X766309Y744346D01*
X766309Y744347D02*
X765975Y744356D01*
X765642Y744373D01*
X765309Y744397D01*
X764976Y744430D01*
X764645Y744470D01*
X764314Y744518D01*
X763985Y744574D01*
X763657Y744637D01*
X763331Y744709D01*
X763007Y744788D01*
X762684Y744874D01*
X762364Y744969D01*
X762046Y745071D01*
X761730Y745180D01*
X777802Y744347D02*
X781132Y744347D01*
X777802Y744347D02*
X777704Y744349D01*
X777606Y744355D01*
X777508Y744364D01*
X777411Y744378D01*
X777315Y744395D01*
X777219Y744416D01*
X777124Y744441D01*
X777030Y744469D01*
X776937Y744501D01*
X776846Y744537D01*
X776756Y744576D01*
X776668Y744619D01*
X776581Y744666D01*
X776497Y744715D01*
X776414Y744768D01*
X776334Y744824D01*
X776256Y744883D01*
X776180Y744946D01*
X776106Y745011D01*
X776036Y745079D01*
X775968Y745149D01*
X775903Y745223D01*
X775840Y745299D01*
X775781Y745377D01*
X775725Y745457D01*
X775672Y745540D01*
X775623Y745624D01*
X775576Y745711D01*
X775533Y745799D01*
X775494Y745889D01*
X775458Y745980D01*
X775426Y746073D01*
X775398Y746167D01*
X775373Y746262D01*
X775352Y746358D01*
X775335Y746454D01*
X775321Y746551D01*
X775312Y746649D01*
X775306Y746747D01*
X775304Y746845D01*
X775304Y751840D01*
X775306Y751938D01*
X775312Y752036D01*
X775321Y752134D01*
X775335Y752231D01*
X775352Y752327D01*
X775373Y752423D01*
X775398Y752518D01*
X775426Y752612D01*
X775458Y752705D01*
X775494Y752796D01*
X775533Y752886D01*
X775576Y752974D01*
X775623Y753061D01*
X775672Y753145D01*
X775725Y753228D01*
X775781Y753308D01*
X775840Y753387D01*
X775903Y753462D01*
X775968Y753536D01*
X776036Y753606D01*
X776106Y753674D01*
X776180Y753740D01*
X776256Y753802D01*
X776334Y753861D01*
X776414Y753917D01*
X776497Y753970D01*
X776581Y754020D01*
X776668Y754066D01*
X776756Y754109D01*
X776846Y754148D01*
X776937Y754184D01*
X777030Y754216D01*
X777124Y754244D01*
X777219Y754269D01*
X777315Y754290D01*
X777411Y754307D01*
X777508Y754321D01*
X777606Y754330D01*
X777704Y754336D01*
X777802Y754338D01*
X781132Y754338D01*
X787262Y751007D02*
X787262Y747677D01*
X787262Y751007D02*
X787264Y751121D01*
X787270Y751234D01*
X787279Y751348D01*
X787293Y751460D01*
X787310Y751573D01*
X787332Y751685D01*
X787357Y751795D01*
X787385Y751905D01*
X787418Y752014D01*
X787454Y752122D01*
X787494Y752229D01*
X787538Y752334D01*
X787585Y752437D01*
X787635Y752539D01*
X787689Y752639D01*
X787747Y752737D01*
X787808Y752833D01*
X787871Y752927D01*
X787939Y753019D01*
X788009Y753109D01*
X788082Y753195D01*
X788158Y753280D01*
X788237Y753362D01*
X788319Y753441D01*
X788404Y753517D01*
X788490Y753590D01*
X788580Y753660D01*
X788672Y753728D01*
X788766Y753791D01*
X788862Y753852D01*
X788960Y753910D01*
X789060Y753964D01*
X789162Y754014D01*
X789265Y754061D01*
X789370Y754105D01*
X789477Y754145D01*
X789585Y754181D01*
X789694Y754214D01*
X789804Y754242D01*
X789914Y754267D01*
X790026Y754289D01*
X790139Y754306D01*
X790251Y754320D01*
X790365Y754329D01*
X790478Y754335D01*
X790592Y754337D01*
X790706Y754335D01*
X790819Y754329D01*
X790933Y754320D01*
X791045Y754306D01*
X791158Y754289D01*
X791270Y754267D01*
X791380Y754242D01*
X791490Y754214D01*
X791599Y754181D01*
X791707Y754145D01*
X791814Y754105D01*
X791919Y754061D01*
X792022Y754014D01*
X792124Y753964D01*
X792224Y753910D01*
X792322Y753852D01*
X792418Y753791D01*
X792512Y753728D01*
X792604Y753660D01*
X792694Y753590D01*
X792780Y753517D01*
X792865Y753441D01*
X792947Y753362D01*
X793026Y753280D01*
X793102Y753195D01*
X793175Y753109D01*
X793245Y753019D01*
X793313Y752927D01*
X793376Y752833D01*
X793437Y752737D01*
X793495Y752639D01*
X793549Y752539D01*
X793599Y752437D01*
X793646Y752334D01*
X793690Y752229D01*
X793730Y752122D01*
X793766Y752014D01*
X793799Y751905D01*
X793827Y751795D01*
X793852Y751685D01*
X793874Y751573D01*
X793891Y751460D01*
X793905Y751348D01*
X793914Y751234D01*
X793920Y751121D01*
X793922Y751007D01*
X793922Y747677D01*
X793920Y747563D01*
X793914Y747450D01*
X793905Y747336D01*
X793891Y747224D01*
X793874Y747111D01*
X793852Y746999D01*
X793827Y746889D01*
X793799Y746779D01*
X793766Y746670D01*
X793730Y746562D01*
X793690Y746455D01*
X793646Y746350D01*
X793599Y746247D01*
X793549Y746145D01*
X793495Y746045D01*
X793437Y745947D01*
X793376Y745851D01*
X793313Y745757D01*
X793245Y745665D01*
X793175Y745575D01*
X793102Y745489D01*
X793026Y745404D01*
X792947Y745322D01*
X792865Y745243D01*
X792780Y745167D01*
X792694Y745094D01*
X792604Y745024D01*
X792512Y744956D01*
X792418Y744893D01*
X792322Y744832D01*
X792224Y744774D01*
X792124Y744720D01*
X792022Y744670D01*
X791919Y744623D01*
X791814Y744579D01*
X791707Y744539D01*
X791599Y744503D01*
X791490Y744470D01*
X791380Y744442D01*
X791270Y744417D01*
X791158Y744395D01*
X791045Y744378D01*
X790933Y744364D01*
X790819Y744355D01*
X790706Y744349D01*
X790592Y744347D01*
X790478Y744349D01*
X790365Y744355D01*
X790251Y744364D01*
X790139Y744378D01*
X790026Y744395D01*
X789914Y744417D01*
X789804Y744442D01*
X789694Y744470D01*
X789585Y744503D01*
X789477Y744539D01*
X789370Y744579D01*
X789265Y744623D01*
X789162Y744670D01*
X789060Y744720D01*
X788960Y744774D01*
X788862Y744832D01*
X788766Y744893D01*
X788672Y744956D01*
X788580Y745024D01*
X788490Y745094D01*
X788404Y745167D01*
X788319Y745243D01*
X788237Y745322D01*
X788158Y745404D01*
X788082Y745489D01*
X788009Y745575D01*
X787939Y745665D01*
X787871Y745757D01*
X787808Y745851D01*
X787747Y745947D01*
X787689Y746045D01*
X787635Y746145D01*
X787585Y746247D01*
X787538Y746350D01*
X787494Y746455D01*
X787454Y746562D01*
X787418Y746670D01*
X787385Y746779D01*
X787357Y746889D01*
X787332Y746999D01*
X787310Y747111D01*
X787293Y747224D01*
X787279Y747336D01*
X787270Y747450D01*
X787264Y747563D01*
X787262Y747677D01*
X801458Y744347D02*
X801458Y754338D01*
X806453Y754338D01*
X806453Y752673D01*
X814248Y744347D02*
X818411Y744347D01*
X814248Y744347D02*
X814150Y744349D01*
X814052Y744355D01*
X813954Y744364D01*
X813857Y744378D01*
X813761Y744395D01*
X813665Y744416D01*
X813570Y744441D01*
X813476Y744469D01*
X813383Y744501D01*
X813292Y744537D01*
X813202Y744576D01*
X813114Y744619D01*
X813027Y744666D01*
X812943Y744715D01*
X812860Y744768D01*
X812780Y744824D01*
X812702Y744883D01*
X812626Y744946D01*
X812552Y745011D01*
X812482Y745079D01*
X812414Y745149D01*
X812349Y745223D01*
X812286Y745299D01*
X812227Y745377D01*
X812171Y745457D01*
X812118Y745540D01*
X812069Y745624D01*
X812022Y745711D01*
X811979Y745799D01*
X811940Y745889D01*
X811904Y745980D01*
X811872Y746073D01*
X811844Y746167D01*
X811819Y746262D01*
X811798Y746358D01*
X811781Y746454D01*
X811767Y746551D01*
X811758Y746649D01*
X811752Y746747D01*
X811750Y746845D01*
X811750Y751007D01*
X811751Y751007D02*
X811753Y751121D01*
X811759Y751234D01*
X811768Y751348D01*
X811782Y751460D01*
X811799Y751573D01*
X811821Y751685D01*
X811846Y751795D01*
X811874Y751905D01*
X811907Y752014D01*
X811943Y752122D01*
X811983Y752229D01*
X812027Y752334D01*
X812074Y752437D01*
X812124Y752539D01*
X812178Y752639D01*
X812236Y752737D01*
X812297Y752833D01*
X812360Y752927D01*
X812428Y753019D01*
X812498Y753109D01*
X812571Y753195D01*
X812647Y753280D01*
X812726Y753362D01*
X812808Y753441D01*
X812893Y753517D01*
X812979Y753590D01*
X813069Y753660D01*
X813161Y753728D01*
X813255Y753791D01*
X813351Y753852D01*
X813449Y753910D01*
X813549Y753964D01*
X813651Y754014D01*
X813754Y754061D01*
X813859Y754105D01*
X813966Y754145D01*
X814074Y754181D01*
X814183Y754214D01*
X814293Y754242D01*
X814403Y754267D01*
X814515Y754289D01*
X814628Y754306D01*
X814740Y754320D01*
X814854Y754329D01*
X814967Y754335D01*
X815081Y754337D01*
X815195Y754335D01*
X815308Y754329D01*
X815422Y754320D01*
X815534Y754306D01*
X815647Y754289D01*
X815759Y754267D01*
X815869Y754242D01*
X815979Y754214D01*
X816088Y754181D01*
X816196Y754145D01*
X816303Y754105D01*
X816408Y754061D01*
X816511Y754014D01*
X816613Y753964D01*
X816713Y753910D01*
X816811Y753852D01*
X816907Y753791D01*
X817001Y753728D01*
X817093Y753660D01*
X817183Y753590D01*
X817269Y753517D01*
X817354Y753441D01*
X817436Y753362D01*
X817515Y753280D01*
X817591Y753195D01*
X817664Y753109D01*
X817734Y753019D01*
X817802Y752927D01*
X817865Y752833D01*
X817926Y752737D01*
X817984Y752639D01*
X818038Y752539D01*
X818088Y752437D01*
X818135Y752334D01*
X818179Y752229D01*
X818219Y752122D01*
X818255Y752014D01*
X818288Y751905D01*
X818316Y751795D01*
X818341Y751685D01*
X818363Y751573D01*
X818380Y751460D01*
X818394Y751348D01*
X818403Y751234D01*
X818409Y751121D01*
X818411Y751007D01*
X818411Y749342D01*
X811750Y749342D01*
D11*
X1033780Y728980D02*
X1033780Y-68580D01*
D12*
X993399Y744347D02*
X990069Y754338D01*
X996730Y754338D02*
X993399Y744347D01*
X1003514Y750175D02*
X1013505Y750175D01*
X1022059Y750175D02*
X1026222Y748510D01*
X1022059Y750174D02*
X1021974Y750210D01*
X1021891Y750250D01*
X1021810Y750293D01*
X1021730Y750340D01*
X1021653Y750390D01*
X1021577Y750443D01*
X1021504Y750499D01*
X1021434Y750559D01*
X1021366Y750621D01*
X1021301Y750686D01*
X1021239Y750754D01*
X1021179Y750825D01*
X1021123Y750898D01*
X1021070Y750973D01*
X1021020Y751051D01*
X1020974Y751130D01*
X1020931Y751212D01*
X1020891Y751295D01*
X1020855Y751380D01*
X1020823Y751466D01*
X1020794Y751554D01*
X1020770Y751643D01*
X1020749Y751733D01*
X1020732Y751823D01*
X1020718Y751914D01*
X1020709Y752006D01*
X1020704Y752098D01*
X1020702Y752190D01*
X1020704Y752282D01*
X1020711Y752374D01*
X1020721Y752466D01*
X1020735Y752557D01*
X1020753Y752648D01*
X1020775Y752737D01*
X1020801Y752826D01*
X1020831Y752913D01*
X1020864Y752999D01*
X1020901Y753083D01*
X1020941Y753166D01*
X1020985Y753247D01*
X1021032Y753326D01*
X1021083Y753403D01*
X1021137Y753478D01*
X1021194Y753551D01*
X1021254Y753621D01*
X1021317Y753688D01*
X1021383Y753752D01*
X1021451Y753814D01*
X1021522Y753873D01*
X1021596Y753928D01*
X1021672Y753981D01*
X1021750Y754030D01*
X1021830Y754076D01*
X1021911Y754118D01*
X1021995Y754157D01*
X1022080Y754192D01*
X1022167Y754223D01*
X1022255Y754251D01*
X1022344Y754275D01*
X1022434Y754295D01*
X1022524Y754312D01*
X1022616Y754324D01*
X1022708Y754333D01*
X1022800Y754337D01*
X1022892Y754338D01*
X1023119Y754332D01*
X1023346Y754321D01*
X1023573Y754304D01*
X1023799Y754281D01*
X1024025Y754254D01*
X1024250Y754220D01*
X1024474Y754182D01*
X1024697Y754138D01*
X1024919Y754089D01*
X1025140Y754034D01*
X1025359Y753974D01*
X1025577Y753909D01*
X1025793Y753838D01*
X1026007Y753763D01*
X1026220Y753682D01*
X1026430Y753596D01*
X1026639Y753505D01*
X1026222Y748510D02*
X1026307Y748474D01*
X1026390Y748434D01*
X1026471Y748391D01*
X1026551Y748344D01*
X1026628Y748294D01*
X1026704Y748241D01*
X1026777Y748185D01*
X1026847Y748125D01*
X1026915Y748063D01*
X1026980Y747998D01*
X1027042Y747930D01*
X1027102Y747859D01*
X1027158Y747786D01*
X1027211Y747711D01*
X1027261Y747633D01*
X1027307Y747554D01*
X1027350Y747472D01*
X1027390Y747389D01*
X1027426Y747304D01*
X1027458Y747218D01*
X1027487Y747130D01*
X1027511Y747041D01*
X1027532Y746951D01*
X1027549Y746861D01*
X1027563Y746770D01*
X1027572Y746678D01*
X1027577Y746586D01*
X1027579Y746494D01*
X1027577Y746402D01*
X1027570Y746310D01*
X1027560Y746218D01*
X1027546Y746127D01*
X1027528Y746036D01*
X1027506Y745947D01*
X1027480Y745858D01*
X1027450Y745771D01*
X1027417Y745685D01*
X1027380Y745601D01*
X1027340Y745518D01*
X1027296Y745437D01*
X1027249Y745358D01*
X1027198Y745281D01*
X1027144Y745206D01*
X1027087Y745133D01*
X1027027Y745063D01*
X1026964Y744996D01*
X1026898Y744932D01*
X1026830Y744870D01*
X1026759Y744811D01*
X1026685Y744756D01*
X1026609Y744703D01*
X1026531Y744654D01*
X1026451Y744608D01*
X1026370Y744566D01*
X1026286Y744527D01*
X1026201Y744492D01*
X1026114Y744461D01*
X1026026Y744433D01*
X1025937Y744409D01*
X1025847Y744389D01*
X1025757Y744372D01*
X1025665Y744360D01*
X1025573Y744351D01*
X1025481Y744347D01*
X1025389Y744346D01*
X1025389Y744347D02*
X1025055Y744356D01*
X1024722Y744373D01*
X1024389Y744397D01*
X1024056Y744430D01*
X1023725Y744470D01*
X1023394Y744518D01*
X1023065Y744574D01*
X1022737Y744637D01*
X1022411Y744709D01*
X1022087Y744788D01*
X1021764Y744874D01*
X1021444Y744969D01*
X1021126Y745071D01*
X1020810Y745180D01*
X1036882Y744347D02*
X1040212Y744347D01*
X1036882Y744347D02*
X1036784Y744349D01*
X1036686Y744355D01*
X1036588Y744364D01*
X1036491Y744378D01*
X1036395Y744395D01*
X1036299Y744416D01*
X1036204Y744441D01*
X1036110Y744469D01*
X1036017Y744501D01*
X1035926Y744537D01*
X1035836Y744576D01*
X1035748Y744619D01*
X1035661Y744666D01*
X1035577Y744715D01*
X1035494Y744768D01*
X1035414Y744824D01*
X1035336Y744883D01*
X1035260Y744946D01*
X1035186Y745011D01*
X1035116Y745079D01*
X1035048Y745149D01*
X1034983Y745223D01*
X1034920Y745299D01*
X1034861Y745377D01*
X1034805Y745457D01*
X1034752Y745540D01*
X1034703Y745624D01*
X1034656Y745711D01*
X1034613Y745799D01*
X1034574Y745889D01*
X1034538Y745980D01*
X1034506Y746073D01*
X1034478Y746167D01*
X1034453Y746262D01*
X1034432Y746358D01*
X1034415Y746454D01*
X1034401Y746551D01*
X1034392Y746649D01*
X1034386Y746747D01*
X1034384Y746845D01*
X1034384Y751840D01*
X1034386Y751938D01*
X1034392Y752036D01*
X1034401Y752134D01*
X1034415Y752231D01*
X1034432Y752327D01*
X1034453Y752423D01*
X1034478Y752518D01*
X1034506Y752612D01*
X1034538Y752705D01*
X1034574Y752796D01*
X1034613Y752886D01*
X1034656Y752974D01*
X1034703Y753061D01*
X1034752Y753145D01*
X1034805Y753228D01*
X1034861Y753308D01*
X1034920Y753387D01*
X1034983Y753462D01*
X1035048Y753536D01*
X1035116Y753606D01*
X1035186Y753674D01*
X1035260Y753740D01*
X1035336Y753802D01*
X1035414Y753861D01*
X1035494Y753917D01*
X1035577Y753970D01*
X1035661Y754020D01*
X1035748Y754066D01*
X1035836Y754109D01*
X1035926Y754148D01*
X1036017Y754184D01*
X1036110Y754216D01*
X1036204Y754244D01*
X1036299Y754269D01*
X1036395Y754290D01*
X1036491Y754307D01*
X1036588Y754321D01*
X1036686Y754330D01*
X1036784Y754336D01*
X1036882Y754338D01*
X1040212Y754338D01*
X1046342Y751007D02*
X1046342Y747677D01*
X1046342Y751007D02*
X1046344Y751121D01*
X1046350Y751234D01*
X1046359Y751348D01*
X1046373Y751460D01*
X1046390Y751573D01*
X1046412Y751685D01*
X1046437Y751795D01*
X1046465Y751905D01*
X1046498Y752014D01*
X1046534Y752122D01*
X1046574Y752229D01*
X1046618Y752334D01*
X1046665Y752437D01*
X1046715Y752539D01*
X1046769Y752639D01*
X1046827Y752737D01*
X1046888Y752833D01*
X1046951Y752927D01*
X1047019Y753019D01*
X1047089Y753109D01*
X1047162Y753195D01*
X1047238Y753280D01*
X1047317Y753362D01*
X1047399Y753441D01*
X1047484Y753517D01*
X1047570Y753590D01*
X1047660Y753660D01*
X1047752Y753728D01*
X1047846Y753791D01*
X1047942Y753852D01*
X1048040Y753910D01*
X1048140Y753964D01*
X1048242Y754014D01*
X1048345Y754061D01*
X1048450Y754105D01*
X1048557Y754145D01*
X1048665Y754181D01*
X1048774Y754214D01*
X1048884Y754242D01*
X1048994Y754267D01*
X1049106Y754289D01*
X1049219Y754306D01*
X1049331Y754320D01*
X1049445Y754329D01*
X1049558Y754335D01*
X1049672Y754337D01*
X1049786Y754335D01*
X1049899Y754329D01*
X1050013Y754320D01*
X1050125Y754306D01*
X1050238Y754289D01*
X1050350Y754267D01*
X1050460Y754242D01*
X1050570Y754214D01*
X1050679Y754181D01*
X1050787Y754145D01*
X1050894Y754105D01*
X1050999Y754061D01*
X1051102Y754014D01*
X1051204Y753964D01*
X1051304Y753910D01*
X1051402Y753852D01*
X1051498Y753791D01*
X1051592Y753728D01*
X1051684Y753660D01*
X1051774Y753590D01*
X1051860Y753517D01*
X1051945Y753441D01*
X1052027Y753362D01*
X1052106Y753280D01*
X1052182Y753195D01*
X1052255Y753109D01*
X1052325Y753019D01*
X1052393Y752927D01*
X1052456Y752833D01*
X1052517Y752737D01*
X1052575Y752639D01*
X1052629Y752539D01*
X1052679Y752437D01*
X1052726Y752334D01*
X1052770Y752229D01*
X1052810Y752122D01*
X1052846Y752014D01*
X1052879Y751905D01*
X1052907Y751795D01*
X1052932Y751685D01*
X1052954Y751573D01*
X1052971Y751460D01*
X1052985Y751348D01*
X1052994Y751234D01*
X1053000Y751121D01*
X1053002Y751007D01*
X1053002Y747677D01*
X1053000Y747563D01*
X1052994Y747450D01*
X1052985Y747336D01*
X1052971Y747224D01*
X1052954Y747111D01*
X1052932Y746999D01*
X1052907Y746889D01*
X1052879Y746779D01*
X1052846Y746670D01*
X1052810Y746562D01*
X1052770Y746455D01*
X1052726Y746350D01*
X1052679Y746247D01*
X1052629Y746145D01*
X1052575Y746045D01*
X1052517Y745947D01*
X1052456Y745851D01*
X1052393Y745757D01*
X1052325Y745665D01*
X1052255Y745575D01*
X1052182Y745489D01*
X1052106Y745404D01*
X1052027Y745322D01*
X1051945Y745243D01*
X1051860Y745167D01*
X1051774Y745094D01*
X1051684Y745024D01*
X1051592Y744956D01*
X1051498Y744893D01*
X1051402Y744832D01*
X1051304Y744774D01*
X1051204Y744720D01*
X1051102Y744670D01*
X1050999Y744623D01*
X1050894Y744579D01*
X1050787Y744539D01*
X1050679Y744503D01*
X1050570Y744470D01*
X1050460Y744442D01*
X1050350Y744417D01*
X1050238Y744395D01*
X1050125Y744378D01*
X1050013Y744364D01*
X1049899Y744355D01*
X1049786Y744349D01*
X1049672Y744347D01*
X1049558Y744349D01*
X1049445Y744355D01*
X1049331Y744364D01*
X1049219Y744378D01*
X1049106Y744395D01*
X1048994Y744417D01*
X1048884Y744442D01*
X1048774Y744470D01*
X1048665Y744503D01*
X1048557Y744539D01*
X1048450Y744579D01*
X1048345Y744623D01*
X1048242Y744670D01*
X1048140Y744720D01*
X1048040Y744774D01*
X1047942Y744832D01*
X1047846Y744893D01*
X1047752Y744956D01*
X1047660Y745024D01*
X1047570Y745094D01*
X1047484Y745167D01*
X1047399Y745243D01*
X1047317Y745322D01*
X1047238Y745404D01*
X1047162Y745489D01*
X1047089Y745575D01*
X1047019Y745665D01*
X1046951Y745757D01*
X1046888Y745851D01*
X1046827Y745947D01*
X1046769Y746045D01*
X1046715Y746145D01*
X1046665Y746247D01*
X1046618Y746350D01*
X1046574Y746455D01*
X1046534Y746562D01*
X1046498Y746670D01*
X1046465Y746779D01*
X1046437Y746889D01*
X1046412Y746999D01*
X1046390Y747111D01*
X1046373Y747224D01*
X1046359Y747336D01*
X1046350Y747450D01*
X1046344Y747563D01*
X1046342Y747677D01*
X1060538Y744347D02*
X1060538Y754338D01*
X1065533Y754338D01*
X1065533Y752673D01*
X1073328Y744347D02*
X1077491Y744347D01*
X1073328Y744347D02*
X1073230Y744349D01*
X1073132Y744355D01*
X1073034Y744364D01*
X1072937Y744378D01*
X1072841Y744395D01*
X1072745Y744416D01*
X1072650Y744441D01*
X1072556Y744469D01*
X1072463Y744501D01*
X1072372Y744537D01*
X1072282Y744576D01*
X1072194Y744619D01*
X1072107Y744666D01*
X1072023Y744715D01*
X1071940Y744768D01*
X1071860Y744824D01*
X1071782Y744883D01*
X1071706Y744946D01*
X1071632Y745011D01*
X1071562Y745079D01*
X1071494Y745149D01*
X1071429Y745223D01*
X1071366Y745299D01*
X1071307Y745377D01*
X1071251Y745457D01*
X1071198Y745540D01*
X1071149Y745624D01*
X1071102Y745711D01*
X1071059Y745799D01*
X1071020Y745889D01*
X1070984Y745980D01*
X1070952Y746073D01*
X1070924Y746167D01*
X1070899Y746262D01*
X1070878Y746358D01*
X1070861Y746454D01*
X1070847Y746551D01*
X1070838Y746649D01*
X1070832Y746747D01*
X1070830Y746845D01*
X1070830Y751007D01*
X1070831Y751007D02*
X1070833Y751121D01*
X1070839Y751234D01*
X1070848Y751348D01*
X1070862Y751460D01*
X1070879Y751573D01*
X1070901Y751685D01*
X1070926Y751795D01*
X1070954Y751905D01*
X1070987Y752014D01*
X1071023Y752122D01*
X1071063Y752229D01*
X1071107Y752334D01*
X1071154Y752437D01*
X1071204Y752539D01*
X1071258Y752639D01*
X1071316Y752737D01*
X1071377Y752833D01*
X1071440Y752927D01*
X1071508Y753019D01*
X1071578Y753109D01*
X1071651Y753195D01*
X1071727Y753280D01*
X1071806Y753362D01*
X1071888Y753441D01*
X1071973Y753517D01*
X1072059Y753590D01*
X1072149Y753660D01*
X1072241Y753728D01*
X1072335Y753791D01*
X1072431Y753852D01*
X1072529Y753910D01*
X1072629Y753964D01*
X1072731Y754014D01*
X1072834Y754061D01*
X1072939Y754105D01*
X1073046Y754145D01*
X1073154Y754181D01*
X1073263Y754214D01*
X1073373Y754242D01*
X1073483Y754267D01*
X1073595Y754289D01*
X1073708Y754306D01*
X1073820Y754320D01*
X1073934Y754329D01*
X1074047Y754335D01*
X1074161Y754337D01*
X1074275Y754335D01*
X1074388Y754329D01*
X1074502Y754320D01*
X1074614Y754306D01*
X1074727Y754289D01*
X1074839Y754267D01*
X1074949Y754242D01*
X1075059Y754214D01*
X1075168Y754181D01*
X1075276Y754145D01*
X1075383Y754105D01*
X1075488Y754061D01*
X1075591Y754014D01*
X1075693Y753964D01*
X1075793Y753910D01*
X1075891Y753852D01*
X1075987Y753791D01*
X1076081Y753728D01*
X1076173Y753660D01*
X1076263Y753590D01*
X1076349Y753517D01*
X1076434Y753441D01*
X1076516Y753362D01*
X1076595Y753280D01*
X1076671Y753195D01*
X1076744Y753109D01*
X1076814Y753019D01*
X1076882Y752927D01*
X1076945Y752833D01*
X1077006Y752737D01*
X1077064Y752639D01*
X1077118Y752539D01*
X1077168Y752437D01*
X1077215Y752334D01*
X1077259Y752229D01*
X1077299Y752122D01*
X1077335Y752014D01*
X1077368Y751905D01*
X1077396Y751795D01*
X1077421Y751685D01*
X1077443Y751573D01*
X1077460Y751460D01*
X1077474Y751348D01*
X1077483Y751234D01*
X1077489Y751121D01*
X1077491Y751007D01*
X1077491Y749342D01*
X1070830Y749342D01*
D11*
X1292860Y728980D02*
X1292860Y-68580D01*
D12*
X1252479Y744347D02*
X1249149Y754338D01*
X1255810Y754338D02*
X1252479Y744347D01*
X1262594Y750175D02*
X1272585Y750175D01*
X1281139Y750175D02*
X1285302Y748510D01*
X1281139Y750174D02*
X1281054Y750210D01*
X1280971Y750250D01*
X1280890Y750293D01*
X1280810Y750340D01*
X1280733Y750390D01*
X1280657Y750443D01*
X1280584Y750499D01*
X1280514Y750559D01*
X1280446Y750621D01*
X1280381Y750686D01*
X1280319Y750754D01*
X1280259Y750825D01*
X1280203Y750898D01*
X1280150Y750973D01*
X1280100Y751051D01*
X1280054Y751130D01*
X1280011Y751212D01*
X1279971Y751295D01*
X1279935Y751380D01*
X1279903Y751466D01*
X1279874Y751554D01*
X1279850Y751643D01*
X1279829Y751733D01*
X1279812Y751823D01*
X1279798Y751914D01*
X1279789Y752006D01*
X1279784Y752098D01*
X1279782Y752190D01*
X1279784Y752282D01*
X1279791Y752374D01*
X1279801Y752466D01*
X1279815Y752557D01*
X1279833Y752648D01*
X1279855Y752737D01*
X1279881Y752826D01*
X1279911Y752913D01*
X1279944Y752999D01*
X1279981Y753083D01*
X1280021Y753166D01*
X1280065Y753247D01*
X1280112Y753326D01*
X1280163Y753403D01*
X1280217Y753478D01*
X1280274Y753551D01*
X1280334Y753621D01*
X1280397Y753688D01*
X1280463Y753752D01*
X1280531Y753814D01*
X1280602Y753873D01*
X1280676Y753928D01*
X1280752Y753981D01*
X1280830Y754030D01*
X1280910Y754076D01*
X1280991Y754118D01*
X1281075Y754157D01*
X1281160Y754192D01*
X1281247Y754223D01*
X1281335Y754251D01*
X1281424Y754275D01*
X1281514Y754295D01*
X1281604Y754312D01*
X1281696Y754324D01*
X1281788Y754333D01*
X1281880Y754337D01*
X1281972Y754338D01*
X1282199Y754332D01*
X1282426Y754321D01*
X1282653Y754304D01*
X1282879Y754281D01*
X1283105Y754254D01*
X1283330Y754220D01*
X1283554Y754182D01*
X1283777Y754138D01*
X1283999Y754089D01*
X1284220Y754034D01*
X1284439Y753974D01*
X1284657Y753909D01*
X1284873Y753838D01*
X1285087Y753763D01*
X1285300Y753682D01*
X1285510Y753596D01*
X1285719Y753505D01*
X1285302Y748510D02*
X1285387Y748474D01*
X1285470Y748434D01*
X1285551Y748391D01*
X1285631Y748344D01*
X1285708Y748294D01*
X1285784Y748241D01*
X1285857Y748185D01*
X1285927Y748125D01*
X1285995Y748063D01*
X1286060Y747998D01*
X1286122Y747930D01*
X1286182Y747859D01*
X1286238Y747786D01*
X1286291Y747711D01*
X1286341Y747633D01*
X1286387Y747554D01*
X1286430Y747472D01*
X1286470Y747389D01*
X1286506Y747304D01*
X1286538Y747218D01*
X1286567Y747130D01*
X1286591Y747041D01*
X1286612Y746951D01*
X1286629Y746861D01*
X1286643Y746770D01*
X1286652Y746678D01*
X1286657Y746586D01*
X1286659Y746494D01*
X1286657Y746402D01*
X1286650Y746310D01*
X1286640Y746218D01*
X1286626Y746127D01*
X1286608Y746036D01*
X1286586Y745947D01*
X1286560Y745858D01*
X1286530Y745771D01*
X1286497Y745685D01*
X1286460Y745601D01*
X1286420Y745518D01*
X1286376Y745437D01*
X1286329Y745358D01*
X1286278Y745281D01*
X1286224Y745206D01*
X1286167Y745133D01*
X1286107Y745063D01*
X1286044Y744996D01*
X1285978Y744932D01*
X1285910Y744870D01*
X1285839Y744811D01*
X1285765Y744756D01*
X1285689Y744703D01*
X1285611Y744654D01*
X1285531Y744608D01*
X1285450Y744566D01*
X1285366Y744527D01*
X1285281Y744492D01*
X1285194Y744461D01*
X1285106Y744433D01*
X1285017Y744409D01*
X1284927Y744389D01*
X1284837Y744372D01*
X1284745Y744360D01*
X1284653Y744351D01*
X1284561Y744347D01*
X1284469Y744346D01*
X1284469Y744347D02*
X1284135Y744356D01*
X1283802Y744373D01*
X1283469Y744397D01*
X1283136Y744430D01*
X1282805Y744470D01*
X1282474Y744518D01*
X1282145Y744574D01*
X1281817Y744637D01*
X1281491Y744709D01*
X1281167Y744788D01*
X1280844Y744874D01*
X1280524Y744969D01*
X1280206Y745071D01*
X1279890Y745180D01*
X1295962Y744347D02*
X1299292Y744347D01*
X1295962Y744347D02*
X1295864Y744349D01*
X1295766Y744355D01*
X1295668Y744364D01*
X1295571Y744378D01*
X1295475Y744395D01*
X1295379Y744416D01*
X1295284Y744441D01*
X1295190Y744469D01*
X1295097Y744501D01*
X1295006Y744537D01*
X1294916Y744576D01*
X1294828Y744619D01*
X1294741Y744666D01*
X1294657Y744715D01*
X1294574Y744768D01*
X1294494Y744824D01*
X1294416Y744883D01*
X1294340Y744946D01*
X1294266Y745011D01*
X1294196Y745079D01*
X1294128Y745149D01*
X1294063Y745223D01*
X1294000Y745299D01*
X1293941Y745377D01*
X1293885Y745457D01*
X1293832Y745540D01*
X1293783Y745624D01*
X1293736Y745711D01*
X1293693Y745799D01*
X1293654Y745889D01*
X1293618Y745980D01*
X1293586Y746073D01*
X1293558Y746167D01*
X1293533Y746262D01*
X1293512Y746358D01*
X1293495Y746454D01*
X1293481Y746551D01*
X1293472Y746649D01*
X1293466Y746747D01*
X1293464Y746845D01*
X1293464Y751840D01*
X1293466Y751938D01*
X1293472Y752036D01*
X1293481Y752134D01*
X1293495Y752231D01*
X1293512Y752327D01*
X1293533Y752423D01*
X1293558Y752518D01*
X1293586Y752612D01*
X1293618Y752705D01*
X1293654Y752796D01*
X1293693Y752886D01*
X1293736Y752974D01*
X1293783Y753061D01*
X1293832Y753145D01*
X1293885Y753228D01*
X1293941Y753308D01*
X1294000Y753387D01*
X1294063Y753462D01*
X1294128Y753536D01*
X1294196Y753606D01*
X1294266Y753674D01*
X1294340Y753740D01*
X1294416Y753802D01*
X1294494Y753861D01*
X1294574Y753917D01*
X1294657Y753970D01*
X1294741Y754020D01*
X1294828Y754066D01*
X1294916Y754109D01*
X1295006Y754148D01*
X1295097Y754184D01*
X1295190Y754216D01*
X1295284Y754244D01*
X1295379Y754269D01*
X1295475Y754290D01*
X1295571Y754307D01*
X1295668Y754321D01*
X1295766Y754330D01*
X1295864Y754336D01*
X1295962Y754338D01*
X1299292Y754338D01*
X1305422Y751007D02*
X1305422Y747677D01*
X1305422Y751007D02*
X1305424Y751121D01*
X1305430Y751234D01*
X1305439Y751348D01*
X1305453Y751460D01*
X1305470Y751573D01*
X1305492Y751685D01*
X1305517Y751795D01*
X1305545Y751905D01*
X1305578Y752014D01*
X1305614Y752122D01*
X1305654Y752229D01*
X1305698Y752334D01*
X1305745Y752437D01*
X1305795Y752539D01*
X1305849Y752639D01*
X1305907Y752737D01*
X1305968Y752833D01*
X1306031Y752927D01*
X1306099Y753019D01*
X1306169Y753109D01*
X1306242Y753195D01*
X1306318Y753280D01*
X1306397Y753362D01*
X1306479Y753441D01*
X1306564Y753517D01*
X1306650Y753590D01*
X1306740Y753660D01*
X1306832Y753728D01*
X1306926Y753791D01*
X1307022Y753852D01*
X1307120Y753910D01*
X1307220Y753964D01*
X1307322Y754014D01*
X1307425Y754061D01*
X1307530Y754105D01*
X1307637Y754145D01*
X1307745Y754181D01*
X1307854Y754214D01*
X1307964Y754242D01*
X1308074Y754267D01*
X1308186Y754289D01*
X1308299Y754306D01*
X1308411Y754320D01*
X1308525Y754329D01*
X1308638Y754335D01*
X1308752Y754337D01*
X1308866Y754335D01*
X1308979Y754329D01*
X1309093Y754320D01*
X1309205Y754306D01*
X1309318Y754289D01*
X1309430Y754267D01*
X1309540Y754242D01*
X1309650Y754214D01*
X1309759Y754181D01*
X1309867Y754145D01*
X1309974Y754105D01*
X1310079Y754061D01*
X1310182Y754014D01*
X1310284Y753964D01*
X1310384Y753910D01*
X1310482Y753852D01*
X1310578Y753791D01*
X1310672Y753728D01*
X1310764Y753660D01*
X1310854Y753590D01*
X1310940Y753517D01*
X1311025Y753441D01*
X1311107Y753362D01*
X1311186Y753280D01*
X1311262Y753195D01*
X1311335Y753109D01*
X1311405Y753019D01*
X1311473Y752927D01*
X1311536Y752833D01*
X1311597Y752737D01*
X1311655Y752639D01*
X1311709Y752539D01*
X1311759Y752437D01*
X1311806Y752334D01*
X1311850Y752229D01*
X1311890Y752122D01*
X1311926Y752014D01*
X1311959Y751905D01*
X1311987Y751795D01*
X1312012Y751685D01*
X1312034Y751573D01*
X1312051Y751460D01*
X1312065Y751348D01*
X1312074Y751234D01*
X1312080Y751121D01*
X1312082Y751007D01*
X1312082Y747677D01*
X1312080Y747563D01*
X1312074Y747450D01*
X1312065Y747336D01*
X1312051Y747224D01*
X1312034Y747111D01*
X1312012Y746999D01*
X1311987Y746889D01*
X1311959Y746779D01*
X1311926Y746670D01*
X1311890Y746562D01*
X1311850Y746455D01*
X1311806Y746350D01*
X1311759Y746247D01*
X1311709Y746145D01*
X1311655Y746045D01*
X1311597Y745947D01*
X1311536Y745851D01*
X1311473Y745757D01*
X1311405Y745665D01*
X1311335Y745575D01*
X1311262Y745489D01*
X1311186Y745404D01*
X1311107Y745322D01*
X1311025Y745243D01*
X1310940Y745167D01*
X1310854Y745094D01*
X1310764Y745024D01*
X1310672Y744956D01*
X1310578Y744893D01*
X1310482Y744832D01*
X1310384Y744774D01*
X1310284Y744720D01*
X1310182Y744670D01*
X1310079Y744623D01*
X1309974Y744579D01*
X1309867Y744539D01*
X1309759Y744503D01*
X1309650Y744470D01*
X1309540Y744442D01*
X1309430Y744417D01*
X1309318Y744395D01*
X1309205Y744378D01*
X1309093Y744364D01*
X1308979Y744355D01*
X1308866Y744349D01*
X1308752Y744347D01*
X1308638Y744349D01*
X1308525Y744355D01*
X1308411Y744364D01*
X1308299Y744378D01*
X1308186Y744395D01*
X1308074Y744417D01*
X1307964Y744442D01*
X1307854Y744470D01*
X1307745Y744503D01*
X1307637Y744539D01*
X1307530Y744579D01*
X1307425Y744623D01*
X1307322Y744670D01*
X1307220Y744720D01*
X1307120Y744774D01*
X1307022Y744832D01*
X1306926Y744893D01*
X1306832Y744956D01*
X1306740Y745024D01*
X1306650Y745094D01*
X1306564Y745167D01*
X1306479Y745243D01*
X1306397Y745322D01*
X1306318Y745404D01*
X1306242Y745489D01*
X1306169Y745575D01*
X1306099Y745665D01*
X1306031Y745757D01*
X1305968Y745851D01*
X1305907Y745947D01*
X1305849Y746045D01*
X1305795Y746145D01*
X1305745Y746247D01*
X1305698Y746350D01*
X1305654Y746455D01*
X1305614Y746562D01*
X1305578Y746670D01*
X1305545Y746779D01*
X1305517Y746889D01*
X1305492Y746999D01*
X1305470Y747111D01*
X1305453Y747224D01*
X1305439Y747336D01*
X1305430Y747450D01*
X1305424Y747563D01*
X1305422Y747677D01*
X1319618Y744347D02*
X1319618Y754338D01*
X1324613Y754338D01*
X1324613Y752673D01*
X1332408Y744347D02*
X1336571Y744347D01*
X1332408Y744347D02*
X1332310Y744349D01*
X1332212Y744355D01*
X1332114Y744364D01*
X1332017Y744378D01*
X1331921Y744395D01*
X1331825Y744416D01*
X1331730Y744441D01*
X1331636Y744469D01*
X1331543Y744501D01*
X1331452Y744537D01*
X1331362Y744576D01*
X1331274Y744619D01*
X1331187Y744666D01*
X1331103Y744715D01*
X1331020Y744768D01*
X1330940Y744824D01*
X1330862Y744883D01*
X1330786Y744946D01*
X1330712Y745011D01*
X1330642Y745079D01*
X1330574Y745149D01*
X1330509Y745223D01*
X1330446Y745299D01*
X1330387Y745377D01*
X1330331Y745457D01*
X1330278Y745540D01*
X1330229Y745624D01*
X1330182Y745711D01*
X1330139Y745799D01*
X1330100Y745889D01*
X1330064Y745980D01*
X1330032Y746073D01*
X1330004Y746167D01*
X1329979Y746262D01*
X1329958Y746358D01*
X1329941Y746454D01*
X1329927Y746551D01*
X1329918Y746649D01*
X1329912Y746747D01*
X1329910Y746845D01*
X1329910Y751007D01*
X1329911Y751007D02*
X1329913Y751121D01*
X1329919Y751234D01*
X1329928Y751348D01*
X1329942Y751460D01*
X1329959Y751573D01*
X1329981Y751685D01*
X1330006Y751795D01*
X1330034Y751905D01*
X1330067Y752014D01*
X1330103Y752122D01*
X1330143Y752229D01*
X1330187Y752334D01*
X1330234Y752437D01*
X1330284Y752539D01*
X1330338Y752639D01*
X1330396Y752737D01*
X1330457Y752833D01*
X1330520Y752927D01*
X1330588Y753019D01*
X1330658Y753109D01*
X1330731Y753195D01*
X1330807Y753280D01*
X1330886Y753362D01*
X1330968Y753441D01*
X1331053Y753517D01*
X1331139Y753590D01*
X1331229Y753660D01*
X1331321Y753728D01*
X1331415Y753791D01*
X1331511Y753852D01*
X1331609Y753910D01*
X1331709Y753964D01*
X1331811Y754014D01*
X1331914Y754061D01*
X1332019Y754105D01*
X1332126Y754145D01*
X1332234Y754181D01*
X1332343Y754214D01*
X1332453Y754242D01*
X1332563Y754267D01*
X1332675Y754289D01*
X1332788Y754306D01*
X1332900Y754320D01*
X1333014Y754329D01*
X1333127Y754335D01*
X1333241Y754337D01*
X1333355Y754335D01*
X1333468Y754329D01*
X1333582Y754320D01*
X1333694Y754306D01*
X1333807Y754289D01*
X1333919Y754267D01*
X1334029Y754242D01*
X1334139Y754214D01*
X1334248Y754181D01*
X1334356Y754145D01*
X1334463Y754105D01*
X1334568Y754061D01*
X1334671Y754014D01*
X1334773Y753964D01*
X1334873Y753910D01*
X1334971Y753852D01*
X1335067Y753791D01*
X1335161Y753728D01*
X1335253Y753660D01*
X1335343Y753590D01*
X1335429Y753517D01*
X1335514Y753441D01*
X1335596Y753362D01*
X1335675Y753280D01*
X1335751Y753195D01*
X1335824Y753109D01*
X1335894Y753019D01*
X1335962Y752927D01*
X1336025Y752833D01*
X1336086Y752737D01*
X1336144Y752639D01*
X1336198Y752539D01*
X1336248Y752437D01*
X1336295Y752334D01*
X1336339Y752229D01*
X1336379Y752122D01*
X1336415Y752014D01*
X1336448Y751905D01*
X1336476Y751795D01*
X1336501Y751685D01*
X1336523Y751573D01*
X1336540Y751460D01*
X1336554Y751348D01*
X1336563Y751234D01*
X1336569Y751121D01*
X1336571Y751007D01*
X1336571Y749342D01*
X1329910Y749342D01*
D11*
X1422400Y-2540D02*
X-68580Y-2540D01*
D12*
X1454889Y-42D02*
X1458219Y-10033D01*
X1461550Y-42D01*
X1468334Y-4205D02*
X1478325Y-4205D01*
X1486879Y-4205D02*
X1491042Y-5870D01*
X1486879Y-4206D02*
X1486794Y-4170D01*
X1486711Y-4130D01*
X1486630Y-4087D01*
X1486550Y-4040D01*
X1486473Y-3990D01*
X1486397Y-3937D01*
X1486324Y-3881D01*
X1486254Y-3821D01*
X1486186Y-3759D01*
X1486121Y-3694D01*
X1486059Y-3626D01*
X1485999Y-3555D01*
X1485943Y-3482D01*
X1485890Y-3407D01*
X1485840Y-3329D01*
X1485794Y-3250D01*
X1485751Y-3168D01*
X1485711Y-3085D01*
X1485675Y-3000D01*
X1485643Y-2914D01*
X1485614Y-2826D01*
X1485590Y-2737D01*
X1485569Y-2647D01*
X1485552Y-2557D01*
X1485538Y-2466D01*
X1485529Y-2374D01*
X1485524Y-2282D01*
X1485522Y-2190D01*
X1485524Y-2098D01*
X1485531Y-2006D01*
X1485541Y-1914D01*
X1485555Y-1823D01*
X1485573Y-1732D01*
X1485595Y-1643D01*
X1485621Y-1554D01*
X1485651Y-1467D01*
X1485684Y-1381D01*
X1485721Y-1297D01*
X1485761Y-1214D01*
X1485805Y-1133D01*
X1485852Y-1054D01*
X1485903Y-977D01*
X1485957Y-902D01*
X1486014Y-829D01*
X1486074Y-759D01*
X1486137Y-692D01*
X1486203Y-628D01*
X1486271Y-566D01*
X1486342Y-507D01*
X1486416Y-452D01*
X1486492Y-399D01*
X1486570Y-350D01*
X1486650Y-304D01*
X1486731Y-262D01*
X1486815Y-223D01*
X1486900Y-188D01*
X1486987Y-157D01*
X1487075Y-129D01*
X1487164Y-105D01*
X1487254Y-85D01*
X1487344Y-68D01*
X1487436Y-56D01*
X1487528Y-47D01*
X1487620Y-43D01*
X1487712Y-42D01*
X1487939Y-48D01*
X1488166Y-59D01*
X1488393Y-76D01*
X1488619Y-99D01*
X1488845Y-126D01*
X1489070Y-160D01*
X1489294Y-198D01*
X1489517Y-242D01*
X1489739Y-291D01*
X1489960Y-346D01*
X1490179Y-406D01*
X1490397Y-471D01*
X1490613Y-542D01*
X1490827Y-617D01*
X1491040Y-698D01*
X1491250Y-784D01*
X1491459Y-875D01*
X1491042Y-5870D02*
X1491127Y-5906D01*
X1491210Y-5946D01*
X1491291Y-5989D01*
X1491371Y-6036D01*
X1491448Y-6086D01*
X1491524Y-6139D01*
X1491597Y-6195D01*
X1491667Y-6255D01*
X1491735Y-6317D01*
X1491800Y-6382D01*
X1491862Y-6450D01*
X1491922Y-6521D01*
X1491978Y-6594D01*
X1492031Y-6669D01*
X1492081Y-6747D01*
X1492127Y-6826D01*
X1492170Y-6908D01*
X1492210Y-6991D01*
X1492246Y-7076D01*
X1492278Y-7162D01*
X1492307Y-7250D01*
X1492331Y-7339D01*
X1492352Y-7429D01*
X1492369Y-7519D01*
X1492383Y-7610D01*
X1492392Y-7702D01*
X1492397Y-7794D01*
X1492399Y-7886D01*
X1492397Y-7978D01*
X1492390Y-8070D01*
X1492380Y-8162D01*
X1492366Y-8253D01*
X1492348Y-8344D01*
X1492326Y-8433D01*
X1492300Y-8522D01*
X1492270Y-8609D01*
X1492237Y-8695D01*
X1492200Y-8779D01*
X1492160Y-8862D01*
X1492116Y-8943D01*
X1492069Y-9022D01*
X1492018Y-9099D01*
X1491964Y-9174D01*
X1491907Y-9247D01*
X1491847Y-9317D01*
X1491784Y-9384D01*
X1491718Y-9448D01*
X1491650Y-9510D01*
X1491579Y-9569D01*
X1491505Y-9624D01*
X1491429Y-9677D01*
X1491351Y-9726D01*
X1491271Y-9772D01*
X1491190Y-9814D01*
X1491106Y-9853D01*
X1491021Y-9888D01*
X1490934Y-9919D01*
X1490846Y-9947D01*
X1490757Y-9971D01*
X1490667Y-9991D01*
X1490577Y-10008D01*
X1490485Y-10020D01*
X1490393Y-10029D01*
X1490301Y-10033D01*
X1490209Y-10034D01*
X1490209Y-10033D02*
X1489875Y-10024D01*
X1489542Y-10007D01*
X1489209Y-9983D01*
X1488876Y-9950D01*
X1488545Y-9910D01*
X1488214Y-9862D01*
X1487885Y-9806D01*
X1487557Y-9743D01*
X1487231Y-9671D01*
X1486907Y-9592D01*
X1486584Y-9506D01*
X1486264Y-9411D01*
X1485946Y-9309D01*
X1485630Y-9200D01*
X1501702Y-10033D02*
X1505032Y-10033D01*
X1501702Y-10033D02*
X1501604Y-10031D01*
X1501506Y-10025D01*
X1501408Y-10016D01*
X1501311Y-10002D01*
X1501215Y-9985D01*
X1501119Y-9964D01*
X1501024Y-9939D01*
X1500930Y-9911D01*
X1500837Y-9879D01*
X1500746Y-9843D01*
X1500656Y-9804D01*
X1500568Y-9761D01*
X1500481Y-9714D01*
X1500397Y-9665D01*
X1500314Y-9612D01*
X1500234Y-9556D01*
X1500156Y-9497D01*
X1500080Y-9435D01*
X1500006Y-9369D01*
X1499936Y-9301D01*
X1499868Y-9231D01*
X1499803Y-9157D01*
X1499740Y-9082D01*
X1499681Y-9003D01*
X1499625Y-8923D01*
X1499572Y-8840D01*
X1499523Y-8756D01*
X1499476Y-8669D01*
X1499433Y-8581D01*
X1499394Y-8491D01*
X1499358Y-8400D01*
X1499326Y-8307D01*
X1499298Y-8213D01*
X1499273Y-8118D01*
X1499252Y-8022D01*
X1499235Y-7926D01*
X1499221Y-7829D01*
X1499212Y-7731D01*
X1499206Y-7633D01*
X1499204Y-7535D01*
X1499204Y-2540D01*
X1499206Y-2442D01*
X1499212Y-2344D01*
X1499221Y-2246D01*
X1499235Y-2149D01*
X1499252Y-2053D01*
X1499273Y-1957D01*
X1499298Y-1862D01*
X1499326Y-1768D01*
X1499358Y-1675D01*
X1499394Y-1584D01*
X1499433Y-1494D01*
X1499476Y-1406D01*
X1499523Y-1319D01*
X1499572Y-1235D01*
X1499625Y-1152D01*
X1499681Y-1072D01*
X1499740Y-994D01*
X1499803Y-918D01*
X1499868Y-844D01*
X1499936Y-774D01*
X1500006Y-706D01*
X1500080Y-641D01*
X1500156Y-578D01*
X1500234Y-519D01*
X1500314Y-463D01*
X1500397Y-410D01*
X1500481Y-361D01*
X1500568Y-314D01*
X1500656Y-271D01*
X1500746Y-232D01*
X1500837Y-196D01*
X1500930Y-164D01*
X1501024Y-136D01*
X1501119Y-111D01*
X1501215Y-90D01*
X1501311Y-73D01*
X1501408Y-59D01*
X1501506Y-50D01*
X1501604Y-44D01*
X1501702Y-42D01*
X1505032Y-42D01*
X1511162Y-3373D02*
X1511162Y-6703D01*
X1511162Y-3373D02*
X1511164Y-3259D01*
X1511170Y-3146D01*
X1511179Y-3032D01*
X1511193Y-2920D01*
X1511210Y-2807D01*
X1511232Y-2695D01*
X1511257Y-2585D01*
X1511285Y-2475D01*
X1511318Y-2366D01*
X1511354Y-2258D01*
X1511394Y-2151D01*
X1511438Y-2046D01*
X1511485Y-1943D01*
X1511535Y-1841D01*
X1511589Y-1741D01*
X1511647Y-1643D01*
X1511708Y-1547D01*
X1511771Y-1453D01*
X1511839Y-1361D01*
X1511909Y-1271D01*
X1511982Y-1185D01*
X1512058Y-1100D01*
X1512137Y-1018D01*
X1512219Y-939D01*
X1512304Y-863D01*
X1512390Y-790D01*
X1512480Y-720D01*
X1512572Y-652D01*
X1512666Y-589D01*
X1512762Y-528D01*
X1512860Y-470D01*
X1512960Y-416D01*
X1513062Y-366D01*
X1513165Y-319D01*
X1513270Y-275D01*
X1513377Y-235D01*
X1513485Y-199D01*
X1513594Y-166D01*
X1513704Y-138D01*
X1513814Y-113D01*
X1513926Y-91D01*
X1514039Y-74D01*
X1514151Y-60D01*
X1514265Y-51D01*
X1514378Y-45D01*
X1514492Y-43D01*
X1514606Y-45D01*
X1514719Y-51D01*
X1514833Y-60D01*
X1514945Y-74D01*
X1515058Y-91D01*
X1515170Y-113D01*
X1515280Y-138D01*
X1515390Y-166D01*
X1515499Y-199D01*
X1515607Y-235D01*
X1515714Y-275D01*
X1515819Y-319D01*
X1515922Y-366D01*
X1516024Y-416D01*
X1516124Y-470D01*
X1516222Y-528D01*
X1516318Y-589D01*
X1516412Y-652D01*
X1516504Y-720D01*
X1516594Y-790D01*
X1516680Y-863D01*
X1516765Y-939D01*
X1516847Y-1018D01*
X1516926Y-1100D01*
X1517002Y-1185D01*
X1517075Y-1271D01*
X1517145Y-1361D01*
X1517213Y-1453D01*
X1517276Y-1547D01*
X1517337Y-1643D01*
X1517395Y-1741D01*
X1517449Y-1841D01*
X1517499Y-1943D01*
X1517546Y-2046D01*
X1517590Y-2151D01*
X1517630Y-2258D01*
X1517666Y-2366D01*
X1517699Y-2475D01*
X1517727Y-2585D01*
X1517752Y-2695D01*
X1517774Y-2807D01*
X1517791Y-2920D01*
X1517805Y-3032D01*
X1517814Y-3146D01*
X1517820Y-3259D01*
X1517822Y-3373D01*
X1517822Y-6703D01*
X1517820Y-6817D01*
X1517814Y-6930D01*
X1517805Y-7044D01*
X1517791Y-7156D01*
X1517774Y-7269D01*
X1517752Y-7381D01*
X1517727Y-7491D01*
X1517699Y-7601D01*
X1517666Y-7710D01*
X1517630Y-7818D01*
X1517590Y-7925D01*
X1517546Y-8030D01*
X1517499Y-8133D01*
X1517449Y-8235D01*
X1517395Y-8335D01*
X1517337Y-8433D01*
X1517276Y-8529D01*
X1517213Y-8623D01*
X1517145Y-8715D01*
X1517075Y-8805D01*
X1517002Y-8891D01*
X1516926Y-8976D01*
X1516847Y-9058D01*
X1516765Y-9137D01*
X1516680Y-9213D01*
X1516594Y-9286D01*
X1516504Y-9356D01*
X1516412Y-9424D01*
X1516318Y-9487D01*
X1516222Y-9548D01*
X1516124Y-9606D01*
X1516024Y-9660D01*
X1515922Y-9710D01*
X1515819Y-9757D01*
X1515714Y-9801D01*
X1515607Y-9841D01*
X1515499Y-9877D01*
X1515390Y-9910D01*
X1515280Y-9938D01*
X1515170Y-9963D01*
X1515058Y-9985D01*
X1514945Y-10002D01*
X1514833Y-10016D01*
X1514719Y-10025D01*
X1514606Y-10031D01*
X1514492Y-10033D01*
X1514378Y-10031D01*
X1514265Y-10025D01*
X1514151Y-10016D01*
X1514039Y-10002D01*
X1513926Y-9985D01*
X1513814Y-9963D01*
X1513704Y-9938D01*
X1513594Y-9910D01*
X1513485Y-9877D01*
X1513377Y-9841D01*
X1513270Y-9801D01*
X1513165Y-9757D01*
X1513062Y-9710D01*
X1512960Y-9660D01*
X1512860Y-9606D01*
X1512762Y-9548D01*
X1512666Y-9487D01*
X1512572Y-9424D01*
X1512480Y-9356D01*
X1512390Y-9286D01*
X1512304Y-9213D01*
X1512219Y-9137D01*
X1512137Y-9058D01*
X1512058Y-8976D01*
X1511982Y-8891D01*
X1511909Y-8805D01*
X1511839Y-8715D01*
X1511771Y-8623D01*
X1511708Y-8529D01*
X1511647Y-8433D01*
X1511589Y-8335D01*
X1511535Y-8235D01*
X1511485Y-8133D01*
X1511438Y-8030D01*
X1511394Y-7925D01*
X1511354Y-7818D01*
X1511318Y-7710D01*
X1511285Y-7601D01*
X1511257Y-7491D01*
X1511232Y-7381D01*
X1511210Y-7269D01*
X1511193Y-7156D01*
X1511179Y-7044D01*
X1511170Y-6930D01*
X1511164Y-6817D01*
X1511162Y-6703D01*
X1525358Y-10033D02*
X1525358Y-42D01*
X1530353Y-42D01*
X1530353Y-1707D01*
X1538148Y-10033D02*
X1542311Y-10033D01*
X1538148Y-10033D02*
X1538050Y-10031D01*
X1537952Y-10025D01*
X1537854Y-10016D01*
X1537757Y-10002D01*
X1537661Y-9985D01*
X1537565Y-9964D01*
X1537470Y-9939D01*
X1537376Y-9911D01*
X1537283Y-9879D01*
X1537192Y-9843D01*
X1537102Y-9804D01*
X1537014Y-9761D01*
X1536927Y-9714D01*
X1536843Y-9665D01*
X1536760Y-9612D01*
X1536680Y-9556D01*
X1536602Y-9497D01*
X1536526Y-9435D01*
X1536452Y-9369D01*
X1536382Y-9301D01*
X1536314Y-9231D01*
X1536249Y-9157D01*
X1536186Y-9082D01*
X1536127Y-9003D01*
X1536071Y-8923D01*
X1536018Y-8840D01*
X1535969Y-8756D01*
X1535922Y-8669D01*
X1535879Y-8581D01*
X1535840Y-8491D01*
X1535804Y-8400D01*
X1535772Y-8307D01*
X1535744Y-8213D01*
X1535719Y-8118D01*
X1535698Y-8022D01*
X1535681Y-7926D01*
X1535667Y-7829D01*
X1535658Y-7731D01*
X1535652Y-7633D01*
X1535650Y-7535D01*
X1535650Y-3373D01*
X1535651Y-3373D02*
X1535653Y-3259D01*
X1535659Y-3146D01*
X1535668Y-3032D01*
X1535682Y-2920D01*
X1535699Y-2807D01*
X1535721Y-2695D01*
X1535746Y-2585D01*
X1535774Y-2475D01*
X1535807Y-2366D01*
X1535843Y-2258D01*
X1535883Y-2151D01*
X1535927Y-2046D01*
X1535974Y-1943D01*
X1536024Y-1841D01*
X1536078Y-1741D01*
X1536136Y-1643D01*
X1536197Y-1547D01*
X1536260Y-1453D01*
X1536328Y-1361D01*
X1536398Y-1271D01*
X1536471Y-1185D01*
X1536547Y-1100D01*
X1536626Y-1018D01*
X1536708Y-939D01*
X1536793Y-863D01*
X1536879Y-790D01*
X1536969Y-720D01*
X1537061Y-652D01*
X1537155Y-589D01*
X1537251Y-528D01*
X1537349Y-470D01*
X1537449Y-416D01*
X1537551Y-366D01*
X1537654Y-319D01*
X1537759Y-275D01*
X1537866Y-235D01*
X1537974Y-199D01*
X1538083Y-166D01*
X1538193Y-138D01*
X1538303Y-113D01*
X1538415Y-91D01*
X1538528Y-74D01*
X1538640Y-60D01*
X1538754Y-51D01*
X1538867Y-45D01*
X1538981Y-43D01*
X1539095Y-45D01*
X1539208Y-51D01*
X1539322Y-60D01*
X1539434Y-74D01*
X1539547Y-91D01*
X1539659Y-113D01*
X1539769Y-138D01*
X1539879Y-166D01*
X1539988Y-199D01*
X1540096Y-235D01*
X1540203Y-275D01*
X1540308Y-319D01*
X1540411Y-366D01*
X1540513Y-416D01*
X1540613Y-470D01*
X1540711Y-528D01*
X1540807Y-589D01*
X1540901Y-652D01*
X1540993Y-720D01*
X1541083Y-790D01*
X1541169Y-863D01*
X1541254Y-939D01*
X1541336Y-1018D01*
X1541415Y-1100D01*
X1541491Y-1185D01*
X1541564Y-1271D01*
X1541634Y-1361D01*
X1541702Y-1453D01*
X1541765Y-1547D01*
X1541826Y-1643D01*
X1541884Y-1741D01*
X1541938Y-1841D01*
X1541988Y-1943D01*
X1542035Y-2046D01*
X1542079Y-2151D01*
X1542119Y-2258D01*
X1542155Y-2366D01*
X1542188Y-2475D01*
X1542216Y-2585D01*
X1542241Y-2695D01*
X1542263Y-2807D01*
X1542280Y-2920D01*
X1542294Y-3032D01*
X1542303Y-3146D01*
X1542309Y-3259D01*
X1542311Y-3373D01*
X1542311Y-5038D01*
X1535650Y-5038D01*
D11*
X1422400Y129540D02*
X-68580Y129540D01*
D12*
X1454889Y132038D02*
X1458219Y122047D01*
X1461550Y132038D01*
X1468334Y127875D02*
X1478325Y127875D01*
X1486879Y127875D02*
X1491042Y126210D01*
X1486879Y127874D02*
X1486794Y127910D01*
X1486711Y127950D01*
X1486630Y127993D01*
X1486550Y128040D01*
X1486473Y128090D01*
X1486397Y128143D01*
X1486324Y128199D01*
X1486254Y128259D01*
X1486186Y128321D01*
X1486121Y128386D01*
X1486059Y128454D01*
X1485999Y128525D01*
X1485943Y128598D01*
X1485890Y128673D01*
X1485840Y128751D01*
X1485794Y128830D01*
X1485751Y128912D01*
X1485711Y128995D01*
X1485675Y129080D01*
X1485643Y129166D01*
X1485614Y129254D01*
X1485590Y129343D01*
X1485569Y129433D01*
X1485552Y129523D01*
X1485538Y129614D01*
X1485529Y129706D01*
X1485524Y129798D01*
X1485522Y129890D01*
X1485524Y129982D01*
X1485531Y130074D01*
X1485541Y130166D01*
X1485555Y130257D01*
X1485573Y130348D01*
X1485595Y130437D01*
X1485621Y130526D01*
X1485651Y130613D01*
X1485684Y130699D01*
X1485721Y130783D01*
X1485761Y130866D01*
X1485805Y130947D01*
X1485852Y131026D01*
X1485903Y131103D01*
X1485957Y131178D01*
X1486014Y131251D01*
X1486074Y131321D01*
X1486137Y131388D01*
X1486203Y131452D01*
X1486271Y131514D01*
X1486342Y131573D01*
X1486416Y131628D01*
X1486492Y131681D01*
X1486570Y131730D01*
X1486650Y131776D01*
X1486731Y131818D01*
X1486815Y131857D01*
X1486900Y131892D01*
X1486987Y131923D01*
X1487075Y131951D01*
X1487164Y131975D01*
X1487254Y131995D01*
X1487344Y132012D01*
X1487436Y132024D01*
X1487528Y132033D01*
X1487620Y132037D01*
X1487712Y132038D01*
X1487939Y132032D01*
X1488166Y132021D01*
X1488393Y132004D01*
X1488619Y131981D01*
X1488845Y131954D01*
X1489070Y131920D01*
X1489294Y131882D01*
X1489517Y131838D01*
X1489739Y131789D01*
X1489960Y131734D01*
X1490179Y131674D01*
X1490397Y131609D01*
X1490613Y131538D01*
X1490827Y131463D01*
X1491040Y131382D01*
X1491250Y131296D01*
X1491459Y131205D01*
X1491042Y126210D02*
X1491127Y126174D01*
X1491210Y126134D01*
X1491291Y126091D01*
X1491371Y126044D01*
X1491448Y125994D01*
X1491524Y125941D01*
X1491597Y125885D01*
X1491667Y125825D01*
X1491735Y125763D01*
X1491800Y125698D01*
X1491862Y125630D01*
X1491922Y125559D01*
X1491978Y125486D01*
X1492031Y125411D01*
X1492081Y125333D01*
X1492127Y125254D01*
X1492170Y125172D01*
X1492210Y125089D01*
X1492246Y125004D01*
X1492278Y124918D01*
X1492307Y124830D01*
X1492331Y124741D01*
X1492352Y124651D01*
X1492369Y124561D01*
X1492383Y124470D01*
X1492392Y124378D01*
X1492397Y124286D01*
X1492399Y124194D01*
X1492397Y124102D01*
X1492390Y124010D01*
X1492380Y123918D01*
X1492366Y123827D01*
X1492348Y123736D01*
X1492326Y123647D01*
X1492300Y123558D01*
X1492270Y123471D01*
X1492237Y123385D01*
X1492200Y123301D01*
X1492160Y123218D01*
X1492116Y123137D01*
X1492069Y123058D01*
X1492018Y122981D01*
X1491964Y122906D01*
X1491907Y122833D01*
X1491847Y122763D01*
X1491784Y122696D01*
X1491718Y122632D01*
X1491650Y122570D01*
X1491579Y122511D01*
X1491505Y122456D01*
X1491429Y122403D01*
X1491351Y122354D01*
X1491271Y122308D01*
X1491190Y122266D01*
X1491106Y122227D01*
X1491021Y122192D01*
X1490934Y122161D01*
X1490846Y122133D01*
X1490757Y122109D01*
X1490667Y122089D01*
X1490577Y122072D01*
X1490485Y122060D01*
X1490393Y122051D01*
X1490301Y122047D01*
X1490209Y122046D01*
X1490209Y122047D02*
X1489875Y122056D01*
X1489542Y122073D01*
X1489209Y122097D01*
X1488876Y122130D01*
X1488545Y122170D01*
X1488214Y122218D01*
X1487885Y122274D01*
X1487557Y122337D01*
X1487231Y122409D01*
X1486907Y122488D01*
X1486584Y122574D01*
X1486264Y122669D01*
X1485946Y122771D01*
X1485630Y122880D01*
X1501702Y122047D02*
X1505032Y122047D01*
X1501702Y122047D02*
X1501604Y122049D01*
X1501506Y122055D01*
X1501408Y122064D01*
X1501311Y122078D01*
X1501215Y122095D01*
X1501119Y122116D01*
X1501024Y122141D01*
X1500930Y122169D01*
X1500837Y122201D01*
X1500746Y122237D01*
X1500656Y122276D01*
X1500568Y122319D01*
X1500481Y122366D01*
X1500397Y122415D01*
X1500314Y122468D01*
X1500234Y122524D01*
X1500156Y122583D01*
X1500080Y122646D01*
X1500006Y122711D01*
X1499936Y122779D01*
X1499868Y122849D01*
X1499803Y122923D01*
X1499740Y122999D01*
X1499681Y123077D01*
X1499625Y123157D01*
X1499572Y123240D01*
X1499523Y123324D01*
X1499476Y123411D01*
X1499433Y123499D01*
X1499394Y123589D01*
X1499358Y123680D01*
X1499326Y123773D01*
X1499298Y123867D01*
X1499273Y123962D01*
X1499252Y124058D01*
X1499235Y124154D01*
X1499221Y124251D01*
X1499212Y124349D01*
X1499206Y124447D01*
X1499204Y124545D01*
X1499204Y129540D01*
X1499206Y129638D01*
X1499212Y129736D01*
X1499221Y129834D01*
X1499235Y129931D01*
X1499252Y130027D01*
X1499273Y130123D01*
X1499298Y130218D01*
X1499326Y130312D01*
X1499358Y130405D01*
X1499394Y130496D01*
X1499433Y130586D01*
X1499476Y130674D01*
X1499523Y130761D01*
X1499572Y130845D01*
X1499625Y130928D01*
X1499681Y131008D01*
X1499740Y131087D01*
X1499803Y131162D01*
X1499868Y131236D01*
X1499936Y131306D01*
X1500006Y131374D01*
X1500080Y131440D01*
X1500156Y131502D01*
X1500234Y131561D01*
X1500314Y131617D01*
X1500397Y131670D01*
X1500481Y131720D01*
X1500568Y131766D01*
X1500656Y131809D01*
X1500746Y131848D01*
X1500837Y131884D01*
X1500930Y131916D01*
X1501024Y131944D01*
X1501119Y131969D01*
X1501215Y131990D01*
X1501311Y132007D01*
X1501408Y132021D01*
X1501506Y132030D01*
X1501604Y132036D01*
X1501702Y132038D01*
X1505032Y132038D01*
X1511162Y128707D02*
X1511162Y125377D01*
X1511162Y128707D02*
X1511164Y128821D01*
X1511170Y128934D01*
X1511179Y129048D01*
X1511193Y129160D01*
X1511210Y129273D01*
X1511232Y129385D01*
X1511257Y129495D01*
X1511285Y129605D01*
X1511318Y129714D01*
X1511354Y129822D01*
X1511394Y129929D01*
X1511438Y130034D01*
X1511485Y130137D01*
X1511535Y130239D01*
X1511589Y130339D01*
X1511647Y130437D01*
X1511708Y130533D01*
X1511771Y130627D01*
X1511839Y130719D01*
X1511909Y130809D01*
X1511982Y130895D01*
X1512058Y130980D01*
X1512137Y131062D01*
X1512219Y131141D01*
X1512304Y131217D01*
X1512390Y131290D01*
X1512480Y131360D01*
X1512572Y131428D01*
X1512666Y131491D01*
X1512762Y131552D01*
X1512860Y131610D01*
X1512960Y131664D01*
X1513062Y131714D01*
X1513165Y131761D01*
X1513270Y131805D01*
X1513377Y131845D01*
X1513485Y131881D01*
X1513594Y131914D01*
X1513704Y131942D01*
X1513814Y131967D01*
X1513926Y131989D01*
X1514039Y132006D01*
X1514151Y132020D01*
X1514265Y132029D01*
X1514378Y132035D01*
X1514492Y132037D01*
X1514606Y132035D01*
X1514719Y132029D01*
X1514833Y132020D01*
X1514945Y132006D01*
X1515058Y131989D01*
X1515170Y131967D01*
X1515280Y131942D01*
X1515390Y131914D01*
X1515499Y131881D01*
X1515607Y131845D01*
X1515714Y131805D01*
X1515819Y131761D01*
X1515922Y131714D01*
X1516024Y131664D01*
X1516124Y131610D01*
X1516222Y131552D01*
X1516318Y131491D01*
X1516412Y131428D01*
X1516504Y131360D01*
X1516594Y131290D01*
X1516680Y131217D01*
X1516765Y131141D01*
X1516847Y131062D01*
X1516926Y130980D01*
X1517002Y130895D01*
X1517075Y130809D01*
X1517145Y130719D01*
X1517213Y130627D01*
X1517276Y130533D01*
X1517337Y130437D01*
X1517395Y130339D01*
X1517449Y130239D01*
X1517499Y130137D01*
X1517546Y130034D01*
X1517590Y129929D01*
X1517630Y129822D01*
X1517666Y129714D01*
X1517699Y129605D01*
X1517727Y129495D01*
X1517752Y129385D01*
X1517774Y129273D01*
X1517791Y129160D01*
X1517805Y129048D01*
X1517814Y128934D01*
X1517820Y128821D01*
X1517822Y128707D01*
X1517822Y125377D01*
X1517820Y125263D01*
X1517814Y125150D01*
X1517805Y125036D01*
X1517791Y124924D01*
X1517774Y124811D01*
X1517752Y124699D01*
X1517727Y124589D01*
X1517699Y124479D01*
X1517666Y124370D01*
X1517630Y124262D01*
X1517590Y124155D01*
X1517546Y124050D01*
X1517499Y123947D01*
X1517449Y123845D01*
X1517395Y123745D01*
X1517337Y123647D01*
X1517276Y123551D01*
X1517213Y123457D01*
X1517145Y123365D01*
X1517075Y123275D01*
X1517002Y123189D01*
X1516926Y123104D01*
X1516847Y123022D01*
X1516765Y122943D01*
X1516680Y122867D01*
X1516594Y122794D01*
X1516504Y122724D01*
X1516412Y122656D01*
X1516318Y122593D01*
X1516222Y122532D01*
X1516124Y122474D01*
X1516024Y122420D01*
X1515922Y122370D01*
X1515819Y122323D01*
X1515714Y122279D01*
X1515607Y122239D01*
X1515499Y122203D01*
X1515390Y122170D01*
X1515280Y122142D01*
X1515170Y122117D01*
X1515058Y122095D01*
X1514945Y122078D01*
X1514833Y122064D01*
X1514719Y122055D01*
X1514606Y122049D01*
X1514492Y122047D01*
X1514378Y122049D01*
X1514265Y122055D01*
X1514151Y122064D01*
X1514039Y122078D01*
X1513926Y122095D01*
X1513814Y122117D01*
X1513704Y122142D01*
X1513594Y122170D01*
X1513485Y122203D01*
X1513377Y122239D01*
X1513270Y122279D01*
X1513165Y122323D01*
X1513062Y122370D01*
X1512960Y122420D01*
X1512860Y122474D01*
X1512762Y122532D01*
X1512666Y122593D01*
X1512572Y122656D01*
X1512480Y122724D01*
X1512390Y122794D01*
X1512304Y122867D01*
X1512219Y122943D01*
X1512137Y123022D01*
X1512058Y123104D01*
X1511982Y123189D01*
X1511909Y123275D01*
X1511839Y123365D01*
X1511771Y123457D01*
X1511708Y123551D01*
X1511647Y123647D01*
X1511589Y123745D01*
X1511535Y123845D01*
X1511485Y123947D01*
X1511438Y124050D01*
X1511394Y124155D01*
X1511354Y124262D01*
X1511318Y124370D01*
X1511285Y124479D01*
X1511257Y124589D01*
X1511232Y124699D01*
X1511210Y124811D01*
X1511193Y124924D01*
X1511179Y125036D01*
X1511170Y125150D01*
X1511164Y125263D01*
X1511162Y125377D01*
X1525358Y122047D02*
X1525358Y132038D01*
X1530353Y132038D01*
X1530353Y130373D01*
X1538148Y122047D02*
X1542311Y122047D01*
X1538148Y122047D02*
X1538050Y122049D01*
X1537952Y122055D01*
X1537854Y122064D01*
X1537757Y122078D01*
X1537661Y122095D01*
X1537565Y122116D01*
X1537470Y122141D01*
X1537376Y122169D01*
X1537283Y122201D01*
X1537192Y122237D01*
X1537102Y122276D01*
X1537014Y122319D01*
X1536927Y122366D01*
X1536843Y122415D01*
X1536760Y122468D01*
X1536680Y122524D01*
X1536602Y122583D01*
X1536526Y122646D01*
X1536452Y122711D01*
X1536382Y122779D01*
X1536314Y122849D01*
X1536249Y122923D01*
X1536186Y122999D01*
X1536127Y123077D01*
X1536071Y123157D01*
X1536018Y123240D01*
X1535969Y123324D01*
X1535922Y123411D01*
X1535879Y123499D01*
X1535840Y123589D01*
X1535804Y123680D01*
X1535772Y123773D01*
X1535744Y123867D01*
X1535719Y123962D01*
X1535698Y124058D01*
X1535681Y124154D01*
X1535667Y124251D01*
X1535658Y124349D01*
X1535652Y124447D01*
X1535650Y124545D01*
X1535650Y128707D01*
X1535651Y128707D02*
X1535653Y128821D01*
X1535659Y128934D01*
X1535668Y129048D01*
X1535682Y129160D01*
X1535699Y129273D01*
X1535721Y129385D01*
X1535746Y129495D01*
X1535774Y129605D01*
X1535807Y129714D01*
X1535843Y129822D01*
X1535883Y129929D01*
X1535927Y130034D01*
X1535974Y130137D01*
X1536024Y130239D01*
X1536078Y130339D01*
X1536136Y130437D01*
X1536197Y130533D01*
X1536260Y130627D01*
X1536328Y130719D01*
X1536398Y130809D01*
X1536471Y130895D01*
X1536547Y130980D01*
X1536626Y131062D01*
X1536708Y131141D01*
X1536793Y131217D01*
X1536879Y131290D01*
X1536969Y131360D01*
X1537061Y131428D01*
X1537155Y131491D01*
X1537251Y131552D01*
X1537349Y131610D01*
X1537449Y131664D01*
X1537551Y131714D01*
X1537654Y131761D01*
X1537759Y131805D01*
X1537866Y131845D01*
X1537974Y131881D01*
X1538083Y131914D01*
X1538193Y131942D01*
X1538303Y131967D01*
X1538415Y131989D01*
X1538528Y132006D01*
X1538640Y132020D01*
X1538754Y132029D01*
X1538867Y132035D01*
X1538981Y132037D01*
X1539095Y132035D01*
X1539208Y132029D01*
X1539322Y132020D01*
X1539434Y132006D01*
X1539547Y131989D01*
X1539659Y131967D01*
X1539769Y131942D01*
X1539879Y131914D01*
X1539988Y131881D01*
X1540096Y131845D01*
X1540203Y131805D01*
X1540308Y131761D01*
X1540411Y131714D01*
X1540513Y131664D01*
X1540613Y131610D01*
X1540711Y131552D01*
X1540807Y131491D01*
X1540901Y131428D01*
X1540993Y131360D01*
X1541083Y131290D01*
X1541169Y131217D01*
X1541254Y131141D01*
X1541336Y131062D01*
X1541415Y130980D01*
X1541491Y130895D01*
X1541564Y130809D01*
X1541634Y130719D01*
X1541702Y130627D01*
X1541765Y130533D01*
X1541826Y130437D01*
X1541884Y130339D01*
X1541938Y130239D01*
X1541988Y130137D01*
X1542035Y130034D01*
X1542079Y129929D01*
X1542119Y129822D01*
X1542155Y129714D01*
X1542188Y129605D01*
X1542216Y129495D01*
X1542241Y129385D01*
X1542263Y129273D01*
X1542280Y129160D01*
X1542294Y129048D01*
X1542303Y128934D01*
X1542309Y128821D01*
X1542311Y128707D01*
X1542311Y127042D01*
X1535650Y127042D01*
D11*
X1422400Y261620D02*
X-68580Y261620D01*
D12*
X1454889Y264118D02*
X1458219Y254127D01*
X1461550Y264118D01*
X1468334Y259955D02*
X1478325Y259955D01*
X1486879Y259955D02*
X1491042Y258290D01*
X1486879Y259954D02*
X1486794Y259990D01*
X1486711Y260030D01*
X1486630Y260073D01*
X1486550Y260120D01*
X1486473Y260170D01*
X1486397Y260223D01*
X1486324Y260279D01*
X1486254Y260339D01*
X1486186Y260401D01*
X1486121Y260466D01*
X1486059Y260534D01*
X1485999Y260605D01*
X1485943Y260678D01*
X1485890Y260753D01*
X1485840Y260831D01*
X1485794Y260910D01*
X1485751Y260992D01*
X1485711Y261075D01*
X1485675Y261160D01*
X1485643Y261246D01*
X1485614Y261334D01*
X1485590Y261423D01*
X1485569Y261513D01*
X1485552Y261603D01*
X1485538Y261694D01*
X1485529Y261786D01*
X1485524Y261878D01*
X1485522Y261970D01*
X1485524Y262062D01*
X1485531Y262154D01*
X1485541Y262246D01*
X1485555Y262337D01*
X1485573Y262428D01*
X1485595Y262517D01*
X1485621Y262606D01*
X1485651Y262693D01*
X1485684Y262779D01*
X1485721Y262863D01*
X1485761Y262946D01*
X1485805Y263027D01*
X1485852Y263106D01*
X1485903Y263183D01*
X1485957Y263258D01*
X1486014Y263331D01*
X1486074Y263401D01*
X1486137Y263468D01*
X1486203Y263532D01*
X1486271Y263594D01*
X1486342Y263653D01*
X1486416Y263708D01*
X1486492Y263761D01*
X1486570Y263810D01*
X1486650Y263856D01*
X1486731Y263898D01*
X1486815Y263937D01*
X1486900Y263972D01*
X1486987Y264003D01*
X1487075Y264031D01*
X1487164Y264055D01*
X1487254Y264075D01*
X1487344Y264092D01*
X1487436Y264104D01*
X1487528Y264113D01*
X1487620Y264117D01*
X1487712Y264118D01*
X1487939Y264112D01*
X1488166Y264101D01*
X1488393Y264084D01*
X1488619Y264061D01*
X1488845Y264034D01*
X1489070Y264000D01*
X1489294Y263962D01*
X1489517Y263918D01*
X1489739Y263869D01*
X1489960Y263814D01*
X1490179Y263754D01*
X1490397Y263689D01*
X1490613Y263618D01*
X1490827Y263543D01*
X1491040Y263462D01*
X1491250Y263376D01*
X1491459Y263285D01*
X1491042Y258290D02*
X1491127Y258254D01*
X1491210Y258214D01*
X1491291Y258171D01*
X1491371Y258124D01*
X1491448Y258074D01*
X1491524Y258021D01*
X1491597Y257965D01*
X1491667Y257905D01*
X1491735Y257843D01*
X1491800Y257778D01*
X1491862Y257710D01*
X1491922Y257639D01*
X1491978Y257566D01*
X1492031Y257491D01*
X1492081Y257413D01*
X1492127Y257334D01*
X1492170Y257252D01*
X1492210Y257169D01*
X1492246Y257084D01*
X1492278Y256998D01*
X1492307Y256910D01*
X1492331Y256821D01*
X1492352Y256731D01*
X1492369Y256641D01*
X1492383Y256550D01*
X1492392Y256458D01*
X1492397Y256366D01*
X1492399Y256274D01*
X1492397Y256182D01*
X1492390Y256090D01*
X1492380Y255998D01*
X1492366Y255907D01*
X1492348Y255816D01*
X1492326Y255727D01*
X1492300Y255638D01*
X1492270Y255551D01*
X1492237Y255465D01*
X1492200Y255381D01*
X1492160Y255298D01*
X1492116Y255217D01*
X1492069Y255138D01*
X1492018Y255061D01*
X1491964Y254986D01*
X1491907Y254913D01*
X1491847Y254843D01*
X1491784Y254776D01*
X1491718Y254712D01*
X1491650Y254650D01*
X1491579Y254591D01*
X1491505Y254536D01*
X1491429Y254483D01*
X1491351Y254434D01*
X1491271Y254388D01*
X1491190Y254346D01*
X1491106Y254307D01*
X1491021Y254272D01*
X1490934Y254241D01*
X1490846Y254213D01*
X1490757Y254189D01*
X1490667Y254169D01*
X1490577Y254152D01*
X1490485Y254140D01*
X1490393Y254131D01*
X1490301Y254127D01*
X1490209Y254126D01*
X1490209Y254127D02*
X1489875Y254136D01*
X1489542Y254153D01*
X1489209Y254177D01*
X1488876Y254210D01*
X1488545Y254250D01*
X1488214Y254298D01*
X1487885Y254354D01*
X1487557Y254417D01*
X1487231Y254489D01*
X1486907Y254568D01*
X1486584Y254654D01*
X1486264Y254749D01*
X1485946Y254851D01*
X1485630Y254960D01*
X1501702Y254127D02*
X1505032Y254127D01*
X1501702Y254127D02*
X1501604Y254129D01*
X1501506Y254135D01*
X1501408Y254144D01*
X1501311Y254158D01*
X1501215Y254175D01*
X1501119Y254196D01*
X1501024Y254221D01*
X1500930Y254249D01*
X1500837Y254281D01*
X1500746Y254317D01*
X1500656Y254356D01*
X1500568Y254399D01*
X1500481Y254446D01*
X1500397Y254495D01*
X1500314Y254548D01*
X1500234Y254604D01*
X1500156Y254663D01*
X1500080Y254726D01*
X1500006Y254791D01*
X1499936Y254859D01*
X1499868Y254929D01*
X1499803Y255003D01*
X1499740Y255079D01*
X1499681Y255157D01*
X1499625Y255237D01*
X1499572Y255320D01*
X1499523Y255404D01*
X1499476Y255491D01*
X1499433Y255579D01*
X1499394Y255669D01*
X1499358Y255760D01*
X1499326Y255853D01*
X1499298Y255947D01*
X1499273Y256042D01*
X1499252Y256138D01*
X1499235Y256234D01*
X1499221Y256331D01*
X1499212Y256429D01*
X1499206Y256527D01*
X1499204Y256625D01*
X1499204Y261620D01*
X1499206Y261718D01*
X1499212Y261816D01*
X1499221Y261914D01*
X1499235Y262011D01*
X1499252Y262107D01*
X1499273Y262203D01*
X1499298Y262298D01*
X1499326Y262392D01*
X1499358Y262485D01*
X1499394Y262576D01*
X1499433Y262666D01*
X1499476Y262754D01*
X1499523Y262841D01*
X1499572Y262925D01*
X1499625Y263008D01*
X1499681Y263088D01*
X1499740Y263167D01*
X1499803Y263242D01*
X1499868Y263316D01*
X1499936Y263386D01*
X1500006Y263454D01*
X1500080Y263520D01*
X1500156Y263582D01*
X1500234Y263641D01*
X1500314Y263697D01*
X1500397Y263750D01*
X1500481Y263800D01*
X1500568Y263846D01*
X1500656Y263889D01*
X1500746Y263928D01*
X1500837Y263964D01*
X1500930Y263996D01*
X1501024Y264024D01*
X1501119Y264049D01*
X1501215Y264070D01*
X1501311Y264087D01*
X1501408Y264101D01*
X1501506Y264110D01*
X1501604Y264116D01*
X1501702Y264118D01*
X1505032Y264118D01*
X1511162Y260787D02*
X1511162Y257457D01*
X1511162Y260787D02*
X1511164Y260901D01*
X1511170Y261014D01*
X1511179Y261128D01*
X1511193Y261240D01*
X1511210Y261353D01*
X1511232Y261465D01*
X1511257Y261575D01*
X1511285Y261685D01*
X1511318Y261794D01*
X1511354Y261902D01*
X1511394Y262009D01*
X1511438Y262114D01*
X1511485Y262217D01*
X1511535Y262319D01*
X1511589Y262419D01*
X1511647Y262517D01*
X1511708Y262613D01*
X1511771Y262707D01*
X1511839Y262799D01*
X1511909Y262889D01*
X1511982Y262975D01*
X1512058Y263060D01*
X1512137Y263142D01*
X1512219Y263221D01*
X1512304Y263297D01*
X1512390Y263370D01*
X1512480Y263440D01*
X1512572Y263508D01*
X1512666Y263571D01*
X1512762Y263632D01*
X1512860Y263690D01*
X1512960Y263744D01*
X1513062Y263794D01*
X1513165Y263841D01*
X1513270Y263885D01*
X1513377Y263925D01*
X1513485Y263961D01*
X1513594Y263994D01*
X1513704Y264022D01*
X1513814Y264047D01*
X1513926Y264069D01*
X1514039Y264086D01*
X1514151Y264100D01*
X1514265Y264109D01*
X1514378Y264115D01*
X1514492Y264117D01*
X1514606Y264115D01*
X1514719Y264109D01*
X1514833Y264100D01*
X1514945Y264086D01*
X1515058Y264069D01*
X1515170Y264047D01*
X1515280Y264022D01*
X1515390Y263994D01*
X1515499Y263961D01*
X1515607Y263925D01*
X1515714Y263885D01*
X1515819Y263841D01*
X1515922Y263794D01*
X1516024Y263744D01*
X1516124Y263690D01*
X1516222Y263632D01*
X1516318Y263571D01*
X1516412Y263508D01*
X1516504Y263440D01*
X1516594Y263370D01*
X1516680Y263297D01*
X1516765Y263221D01*
X1516847Y263142D01*
X1516926Y263060D01*
X1517002Y262975D01*
X1517075Y262889D01*
X1517145Y262799D01*
X1517213Y262707D01*
X1517276Y262613D01*
X1517337Y262517D01*
X1517395Y262419D01*
X1517449Y262319D01*
X1517499Y262217D01*
X1517546Y262114D01*
X1517590Y262009D01*
X1517630Y261902D01*
X1517666Y261794D01*
X1517699Y261685D01*
X1517727Y261575D01*
X1517752Y261465D01*
X1517774Y261353D01*
X1517791Y261240D01*
X1517805Y261128D01*
X1517814Y261014D01*
X1517820Y260901D01*
X1517822Y260787D01*
X1517822Y257457D01*
X1517820Y257343D01*
X1517814Y257230D01*
X1517805Y257116D01*
X1517791Y257004D01*
X1517774Y256891D01*
X1517752Y256779D01*
X1517727Y256669D01*
X1517699Y256559D01*
X1517666Y256450D01*
X1517630Y256342D01*
X1517590Y256235D01*
X1517546Y256130D01*
X1517499Y256027D01*
X1517449Y255925D01*
X1517395Y255825D01*
X1517337Y255727D01*
X1517276Y255631D01*
X1517213Y255537D01*
X1517145Y255445D01*
X1517075Y255355D01*
X1517002Y255269D01*
X1516926Y255184D01*
X1516847Y255102D01*
X1516765Y255023D01*
X1516680Y254947D01*
X1516594Y254874D01*
X1516504Y254804D01*
X1516412Y254736D01*
X1516318Y254673D01*
X1516222Y254612D01*
X1516124Y254554D01*
X1516024Y254500D01*
X1515922Y254450D01*
X1515819Y254403D01*
X1515714Y254359D01*
X1515607Y254319D01*
X1515499Y254283D01*
X1515390Y254250D01*
X1515280Y254222D01*
X1515170Y254197D01*
X1515058Y254175D01*
X1514945Y254158D01*
X1514833Y254144D01*
X1514719Y254135D01*
X1514606Y254129D01*
X1514492Y254127D01*
X1514378Y254129D01*
X1514265Y254135D01*
X1514151Y254144D01*
X1514039Y254158D01*
X1513926Y254175D01*
X1513814Y254197D01*
X1513704Y254222D01*
X1513594Y254250D01*
X1513485Y254283D01*
X1513377Y254319D01*
X1513270Y254359D01*
X1513165Y254403D01*
X1513062Y254450D01*
X1512960Y254500D01*
X1512860Y254554D01*
X1512762Y254612D01*
X1512666Y254673D01*
X1512572Y254736D01*
X1512480Y254804D01*
X1512390Y254874D01*
X1512304Y254947D01*
X1512219Y255023D01*
X1512137Y255102D01*
X1512058Y255184D01*
X1511982Y255269D01*
X1511909Y255355D01*
X1511839Y255445D01*
X1511771Y255537D01*
X1511708Y255631D01*
X1511647Y255727D01*
X1511589Y255825D01*
X1511535Y255925D01*
X1511485Y256027D01*
X1511438Y256130D01*
X1511394Y256235D01*
X1511354Y256342D01*
X1511318Y256450D01*
X1511285Y256559D01*
X1511257Y256669D01*
X1511232Y256779D01*
X1511210Y256891D01*
X1511193Y257004D01*
X1511179Y257116D01*
X1511170Y257230D01*
X1511164Y257343D01*
X1511162Y257457D01*
X1525358Y254127D02*
X1525358Y264118D01*
X1530353Y264118D01*
X1530353Y262453D01*
X1538148Y254127D02*
X1542311Y254127D01*
X1538148Y254127D02*
X1538050Y254129D01*
X1537952Y254135D01*
X1537854Y254144D01*
X1537757Y254158D01*
X1537661Y254175D01*
X1537565Y254196D01*
X1537470Y254221D01*
X1537376Y254249D01*
X1537283Y254281D01*
X1537192Y254317D01*
X1537102Y254356D01*
X1537014Y254399D01*
X1536927Y254446D01*
X1536843Y254495D01*
X1536760Y254548D01*
X1536680Y254604D01*
X1536602Y254663D01*
X1536526Y254726D01*
X1536452Y254791D01*
X1536382Y254859D01*
X1536314Y254929D01*
X1536249Y255003D01*
X1536186Y255079D01*
X1536127Y255157D01*
X1536071Y255237D01*
X1536018Y255320D01*
X1535969Y255404D01*
X1535922Y255491D01*
X1535879Y255579D01*
X1535840Y255669D01*
X1535804Y255760D01*
X1535772Y255853D01*
X1535744Y255947D01*
X1535719Y256042D01*
X1535698Y256138D01*
X1535681Y256234D01*
X1535667Y256331D01*
X1535658Y256429D01*
X1535652Y256527D01*
X1535650Y256625D01*
X1535650Y260787D01*
X1535651Y260787D02*
X1535653Y260901D01*
X1535659Y261014D01*
X1535668Y261128D01*
X1535682Y261240D01*
X1535699Y261353D01*
X1535721Y261465D01*
X1535746Y261575D01*
X1535774Y261685D01*
X1535807Y261794D01*
X1535843Y261902D01*
X1535883Y262009D01*
X1535927Y262114D01*
X1535974Y262217D01*
X1536024Y262319D01*
X1536078Y262419D01*
X1536136Y262517D01*
X1536197Y262613D01*
X1536260Y262707D01*
X1536328Y262799D01*
X1536398Y262889D01*
X1536471Y262975D01*
X1536547Y263060D01*
X1536626Y263142D01*
X1536708Y263221D01*
X1536793Y263297D01*
X1536879Y263370D01*
X1536969Y263440D01*
X1537061Y263508D01*
X1537155Y263571D01*
X1537251Y263632D01*
X1537349Y263690D01*
X1537449Y263744D01*
X1537551Y263794D01*
X1537654Y263841D01*
X1537759Y263885D01*
X1537866Y263925D01*
X1537974Y263961D01*
X1538083Y263994D01*
X1538193Y264022D01*
X1538303Y264047D01*
X1538415Y264069D01*
X1538528Y264086D01*
X1538640Y264100D01*
X1538754Y264109D01*
X1538867Y264115D01*
X1538981Y264117D01*
X1539095Y264115D01*
X1539208Y264109D01*
X1539322Y264100D01*
X1539434Y264086D01*
X1539547Y264069D01*
X1539659Y264047D01*
X1539769Y264022D01*
X1539879Y263994D01*
X1539988Y263961D01*
X1540096Y263925D01*
X1540203Y263885D01*
X1540308Y263841D01*
X1540411Y263794D01*
X1540513Y263744D01*
X1540613Y263690D01*
X1540711Y263632D01*
X1540807Y263571D01*
X1540901Y263508D01*
X1540993Y263440D01*
X1541083Y263370D01*
X1541169Y263297D01*
X1541254Y263221D01*
X1541336Y263142D01*
X1541415Y263060D01*
X1541491Y262975D01*
X1541564Y262889D01*
X1541634Y262799D01*
X1541702Y262707D01*
X1541765Y262613D01*
X1541826Y262517D01*
X1541884Y262419D01*
X1541938Y262319D01*
X1541988Y262217D01*
X1542035Y262114D01*
X1542079Y262009D01*
X1542119Y261902D01*
X1542155Y261794D01*
X1542188Y261685D01*
X1542216Y261575D01*
X1542241Y261465D01*
X1542263Y261353D01*
X1542280Y261240D01*
X1542294Y261128D01*
X1542303Y261014D01*
X1542309Y260901D01*
X1542311Y260787D01*
X1542311Y259122D01*
X1535650Y259122D01*
D11*
X1422400Y393700D02*
X-68580Y393700D01*
D12*
X1454889Y396198D02*
X1458219Y386207D01*
X1461550Y396198D01*
X1468334Y392035D02*
X1478325Y392035D01*
X1486879Y392035D02*
X1491042Y390370D01*
X1486879Y392034D02*
X1486794Y392070D01*
X1486711Y392110D01*
X1486630Y392153D01*
X1486550Y392200D01*
X1486473Y392250D01*
X1486397Y392303D01*
X1486324Y392359D01*
X1486254Y392419D01*
X1486186Y392481D01*
X1486121Y392546D01*
X1486059Y392614D01*
X1485999Y392685D01*
X1485943Y392758D01*
X1485890Y392833D01*
X1485840Y392911D01*
X1485794Y392990D01*
X1485751Y393072D01*
X1485711Y393155D01*
X1485675Y393240D01*
X1485643Y393326D01*
X1485614Y393414D01*
X1485590Y393503D01*
X1485569Y393593D01*
X1485552Y393683D01*
X1485538Y393774D01*
X1485529Y393866D01*
X1485524Y393958D01*
X1485522Y394050D01*
X1485524Y394142D01*
X1485531Y394234D01*
X1485541Y394326D01*
X1485555Y394417D01*
X1485573Y394508D01*
X1485595Y394597D01*
X1485621Y394686D01*
X1485651Y394773D01*
X1485684Y394859D01*
X1485721Y394943D01*
X1485761Y395026D01*
X1485805Y395107D01*
X1485852Y395186D01*
X1485903Y395263D01*
X1485957Y395338D01*
X1486014Y395411D01*
X1486074Y395481D01*
X1486137Y395548D01*
X1486203Y395612D01*
X1486271Y395674D01*
X1486342Y395733D01*
X1486416Y395788D01*
X1486492Y395841D01*
X1486570Y395890D01*
X1486650Y395936D01*
X1486731Y395978D01*
X1486815Y396017D01*
X1486900Y396052D01*
X1486987Y396083D01*
X1487075Y396111D01*
X1487164Y396135D01*
X1487254Y396155D01*
X1487344Y396172D01*
X1487436Y396184D01*
X1487528Y396193D01*
X1487620Y396197D01*
X1487712Y396198D01*
X1487939Y396192D01*
X1488166Y396181D01*
X1488393Y396164D01*
X1488619Y396141D01*
X1488845Y396114D01*
X1489070Y396080D01*
X1489294Y396042D01*
X1489517Y395998D01*
X1489739Y395949D01*
X1489960Y395894D01*
X1490179Y395834D01*
X1490397Y395769D01*
X1490613Y395698D01*
X1490827Y395623D01*
X1491040Y395542D01*
X1491250Y395456D01*
X1491459Y395365D01*
X1491042Y390370D02*
X1491127Y390334D01*
X1491210Y390294D01*
X1491291Y390251D01*
X1491371Y390204D01*
X1491448Y390154D01*
X1491524Y390101D01*
X1491597Y390045D01*
X1491667Y389985D01*
X1491735Y389923D01*
X1491800Y389858D01*
X1491862Y389790D01*
X1491922Y389719D01*
X1491978Y389646D01*
X1492031Y389571D01*
X1492081Y389493D01*
X1492127Y389414D01*
X1492170Y389332D01*
X1492210Y389249D01*
X1492246Y389164D01*
X1492278Y389078D01*
X1492307Y388990D01*
X1492331Y388901D01*
X1492352Y388811D01*
X1492369Y388721D01*
X1492383Y388630D01*
X1492392Y388538D01*
X1492397Y388446D01*
X1492399Y388354D01*
X1492397Y388262D01*
X1492390Y388170D01*
X1492380Y388078D01*
X1492366Y387987D01*
X1492348Y387896D01*
X1492326Y387807D01*
X1492300Y387718D01*
X1492270Y387631D01*
X1492237Y387545D01*
X1492200Y387461D01*
X1492160Y387378D01*
X1492116Y387297D01*
X1492069Y387218D01*
X1492018Y387141D01*
X1491964Y387066D01*
X1491907Y386993D01*
X1491847Y386923D01*
X1491784Y386856D01*
X1491718Y386792D01*
X1491650Y386730D01*
X1491579Y386671D01*
X1491505Y386616D01*
X1491429Y386563D01*
X1491351Y386514D01*
X1491271Y386468D01*
X1491190Y386426D01*
X1491106Y386387D01*
X1491021Y386352D01*
X1490934Y386321D01*
X1490846Y386293D01*
X1490757Y386269D01*
X1490667Y386249D01*
X1490577Y386232D01*
X1490485Y386220D01*
X1490393Y386211D01*
X1490301Y386207D01*
X1490209Y386206D01*
X1490209Y386207D02*
X1489875Y386216D01*
X1489542Y386233D01*
X1489209Y386257D01*
X1488876Y386290D01*
X1488545Y386330D01*
X1488214Y386378D01*
X1487885Y386434D01*
X1487557Y386497D01*
X1487231Y386569D01*
X1486907Y386648D01*
X1486584Y386734D01*
X1486264Y386829D01*
X1485946Y386931D01*
X1485630Y387040D01*
X1501702Y386207D02*
X1505032Y386207D01*
X1501702Y386207D02*
X1501604Y386209D01*
X1501506Y386215D01*
X1501408Y386224D01*
X1501311Y386238D01*
X1501215Y386255D01*
X1501119Y386276D01*
X1501024Y386301D01*
X1500930Y386329D01*
X1500837Y386361D01*
X1500746Y386397D01*
X1500656Y386436D01*
X1500568Y386479D01*
X1500481Y386526D01*
X1500397Y386575D01*
X1500314Y386628D01*
X1500234Y386684D01*
X1500156Y386743D01*
X1500080Y386806D01*
X1500006Y386871D01*
X1499936Y386939D01*
X1499868Y387009D01*
X1499803Y387083D01*
X1499740Y387159D01*
X1499681Y387237D01*
X1499625Y387317D01*
X1499572Y387400D01*
X1499523Y387484D01*
X1499476Y387571D01*
X1499433Y387659D01*
X1499394Y387749D01*
X1499358Y387840D01*
X1499326Y387933D01*
X1499298Y388027D01*
X1499273Y388122D01*
X1499252Y388218D01*
X1499235Y388314D01*
X1499221Y388411D01*
X1499212Y388509D01*
X1499206Y388607D01*
X1499204Y388705D01*
X1499204Y393700D01*
X1499206Y393798D01*
X1499212Y393896D01*
X1499221Y393994D01*
X1499235Y394091D01*
X1499252Y394187D01*
X1499273Y394283D01*
X1499298Y394378D01*
X1499326Y394472D01*
X1499358Y394565D01*
X1499394Y394656D01*
X1499433Y394746D01*
X1499476Y394834D01*
X1499523Y394921D01*
X1499572Y395005D01*
X1499625Y395088D01*
X1499681Y395168D01*
X1499740Y395247D01*
X1499803Y395322D01*
X1499868Y395396D01*
X1499936Y395466D01*
X1500006Y395534D01*
X1500080Y395600D01*
X1500156Y395662D01*
X1500234Y395721D01*
X1500314Y395777D01*
X1500397Y395830D01*
X1500481Y395880D01*
X1500568Y395926D01*
X1500656Y395969D01*
X1500746Y396008D01*
X1500837Y396044D01*
X1500930Y396076D01*
X1501024Y396104D01*
X1501119Y396129D01*
X1501215Y396150D01*
X1501311Y396167D01*
X1501408Y396181D01*
X1501506Y396190D01*
X1501604Y396196D01*
X1501702Y396198D01*
X1505032Y396198D01*
X1511162Y392867D02*
X1511162Y389537D01*
X1511162Y392867D02*
X1511164Y392981D01*
X1511170Y393094D01*
X1511179Y393208D01*
X1511193Y393320D01*
X1511210Y393433D01*
X1511232Y393545D01*
X1511257Y393655D01*
X1511285Y393765D01*
X1511318Y393874D01*
X1511354Y393982D01*
X1511394Y394089D01*
X1511438Y394194D01*
X1511485Y394297D01*
X1511535Y394399D01*
X1511589Y394499D01*
X1511647Y394597D01*
X1511708Y394693D01*
X1511771Y394787D01*
X1511839Y394879D01*
X1511909Y394969D01*
X1511982Y395055D01*
X1512058Y395140D01*
X1512137Y395222D01*
X1512219Y395301D01*
X1512304Y395377D01*
X1512390Y395450D01*
X1512480Y395520D01*
X1512572Y395588D01*
X1512666Y395651D01*
X1512762Y395712D01*
X1512860Y395770D01*
X1512960Y395824D01*
X1513062Y395874D01*
X1513165Y395921D01*
X1513270Y395965D01*
X1513377Y396005D01*
X1513485Y396041D01*
X1513594Y396074D01*
X1513704Y396102D01*
X1513814Y396127D01*
X1513926Y396149D01*
X1514039Y396166D01*
X1514151Y396180D01*
X1514265Y396189D01*
X1514378Y396195D01*
X1514492Y396197D01*
X1514606Y396195D01*
X1514719Y396189D01*
X1514833Y396180D01*
X1514945Y396166D01*
X1515058Y396149D01*
X1515170Y396127D01*
X1515280Y396102D01*
X1515390Y396074D01*
X1515499Y396041D01*
X1515607Y396005D01*
X1515714Y395965D01*
X1515819Y395921D01*
X1515922Y395874D01*
X1516024Y395824D01*
X1516124Y395770D01*
X1516222Y395712D01*
X1516318Y395651D01*
X1516412Y395588D01*
X1516504Y395520D01*
X1516594Y395450D01*
X1516680Y395377D01*
X1516765Y395301D01*
X1516847Y395222D01*
X1516926Y395140D01*
X1517002Y395055D01*
X1517075Y394969D01*
X1517145Y394879D01*
X1517213Y394787D01*
X1517276Y394693D01*
X1517337Y394597D01*
X1517395Y394499D01*
X1517449Y394399D01*
X1517499Y394297D01*
X1517546Y394194D01*
X1517590Y394089D01*
X1517630Y393982D01*
X1517666Y393874D01*
X1517699Y393765D01*
X1517727Y393655D01*
X1517752Y393545D01*
X1517774Y393433D01*
X1517791Y393320D01*
X1517805Y393208D01*
X1517814Y393094D01*
X1517820Y392981D01*
X1517822Y392867D01*
X1517822Y389537D01*
X1517820Y389423D01*
X1517814Y389310D01*
X1517805Y389196D01*
X1517791Y389084D01*
X1517774Y388971D01*
X1517752Y388859D01*
X1517727Y388749D01*
X1517699Y388639D01*
X1517666Y388530D01*
X1517630Y388422D01*
X1517590Y388315D01*
X1517546Y388210D01*
X1517499Y388107D01*
X1517449Y388005D01*
X1517395Y387905D01*
X1517337Y387807D01*
X1517276Y387711D01*
X1517213Y387617D01*
X1517145Y387525D01*
X1517075Y387435D01*
X1517002Y387349D01*
X1516926Y387264D01*
X1516847Y387182D01*
X1516765Y387103D01*
X1516680Y387027D01*
X1516594Y386954D01*
X1516504Y386884D01*
X1516412Y386816D01*
X1516318Y386753D01*
X1516222Y386692D01*
X1516124Y386634D01*
X1516024Y386580D01*
X1515922Y386530D01*
X1515819Y386483D01*
X1515714Y386439D01*
X1515607Y386399D01*
X1515499Y386363D01*
X1515390Y386330D01*
X1515280Y386302D01*
X1515170Y386277D01*
X1515058Y386255D01*
X1514945Y386238D01*
X1514833Y386224D01*
X1514719Y386215D01*
X1514606Y386209D01*
X1514492Y386207D01*
X1514378Y386209D01*
X1514265Y386215D01*
X1514151Y386224D01*
X1514039Y386238D01*
X1513926Y386255D01*
X1513814Y386277D01*
X1513704Y386302D01*
X1513594Y386330D01*
X1513485Y386363D01*
X1513377Y386399D01*
X1513270Y386439D01*
X1513165Y386483D01*
X1513062Y386530D01*
X1512960Y386580D01*
X1512860Y386634D01*
X1512762Y386692D01*
X1512666Y386753D01*
X1512572Y386816D01*
X1512480Y386884D01*
X1512390Y386954D01*
X1512304Y387027D01*
X1512219Y387103D01*
X1512137Y387182D01*
X1512058Y387264D01*
X1511982Y387349D01*
X1511909Y387435D01*
X1511839Y387525D01*
X1511771Y387617D01*
X1511708Y387711D01*
X1511647Y387807D01*
X1511589Y387905D01*
X1511535Y388005D01*
X1511485Y388107D01*
X1511438Y388210D01*
X1511394Y388315D01*
X1511354Y388422D01*
X1511318Y388530D01*
X1511285Y388639D01*
X1511257Y388749D01*
X1511232Y388859D01*
X1511210Y388971D01*
X1511193Y389084D01*
X1511179Y389196D01*
X1511170Y389310D01*
X1511164Y389423D01*
X1511162Y389537D01*
X1525358Y386207D02*
X1525358Y396198D01*
X1530353Y396198D01*
X1530353Y394533D01*
X1538148Y386207D02*
X1542311Y386207D01*
X1538148Y386207D02*
X1538050Y386209D01*
X1537952Y386215D01*
X1537854Y386224D01*
X1537757Y386238D01*
X1537661Y386255D01*
X1537565Y386276D01*
X1537470Y386301D01*
X1537376Y386329D01*
X1537283Y386361D01*
X1537192Y386397D01*
X1537102Y386436D01*
X1537014Y386479D01*
X1536927Y386526D01*
X1536843Y386575D01*
X1536760Y386628D01*
X1536680Y386684D01*
X1536602Y386743D01*
X1536526Y386806D01*
X1536452Y386871D01*
X1536382Y386939D01*
X1536314Y387009D01*
X1536249Y387083D01*
X1536186Y387159D01*
X1536127Y387237D01*
X1536071Y387317D01*
X1536018Y387400D01*
X1535969Y387484D01*
X1535922Y387571D01*
X1535879Y387659D01*
X1535840Y387749D01*
X1535804Y387840D01*
X1535772Y387933D01*
X1535744Y388027D01*
X1535719Y388122D01*
X1535698Y388218D01*
X1535681Y388314D01*
X1535667Y388411D01*
X1535658Y388509D01*
X1535652Y388607D01*
X1535650Y388705D01*
X1535650Y392867D01*
X1535651Y392867D02*
X1535653Y392981D01*
X1535659Y393094D01*
X1535668Y393208D01*
X1535682Y393320D01*
X1535699Y393433D01*
X1535721Y393545D01*
X1535746Y393655D01*
X1535774Y393765D01*
X1535807Y393874D01*
X1535843Y393982D01*
X1535883Y394089D01*
X1535927Y394194D01*
X1535974Y394297D01*
X1536024Y394399D01*
X1536078Y394499D01*
X1536136Y394597D01*
X1536197Y394693D01*
X1536260Y394787D01*
X1536328Y394879D01*
X1536398Y394969D01*
X1536471Y395055D01*
X1536547Y395140D01*
X1536626Y395222D01*
X1536708Y395301D01*
X1536793Y395377D01*
X1536879Y395450D01*
X1536969Y395520D01*
X1537061Y395588D01*
X1537155Y395651D01*
X1537251Y395712D01*
X1537349Y395770D01*
X1537449Y395824D01*
X1537551Y395874D01*
X1537654Y395921D01*
X1537759Y395965D01*
X1537866Y396005D01*
X1537974Y396041D01*
X1538083Y396074D01*
X1538193Y396102D01*
X1538303Y396127D01*
X1538415Y396149D01*
X1538528Y396166D01*
X1538640Y396180D01*
X1538754Y396189D01*
X1538867Y396195D01*
X1538981Y396197D01*
X1539095Y396195D01*
X1539208Y396189D01*
X1539322Y396180D01*
X1539434Y396166D01*
X1539547Y396149D01*
X1539659Y396127D01*
X1539769Y396102D01*
X1539879Y396074D01*
X1539988Y396041D01*
X1540096Y396005D01*
X1540203Y395965D01*
X1540308Y395921D01*
X1540411Y395874D01*
X1540513Y395824D01*
X1540613Y395770D01*
X1540711Y395712D01*
X1540807Y395651D01*
X1540901Y395588D01*
X1540993Y395520D01*
X1541083Y395450D01*
X1541169Y395377D01*
X1541254Y395301D01*
X1541336Y395222D01*
X1541415Y395140D01*
X1541491Y395055D01*
X1541564Y394969D01*
X1541634Y394879D01*
X1541702Y394787D01*
X1541765Y394693D01*
X1541826Y394597D01*
X1541884Y394499D01*
X1541938Y394399D01*
X1541988Y394297D01*
X1542035Y394194D01*
X1542079Y394089D01*
X1542119Y393982D01*
X1542155Y393874D01*
X1542188Y393765D01*
X1542216Y393655D01*
X1542241Y393545D01*
X1542263Y393433D01*
X1542280Y393320D01*
X1542294Y393208D01*
X1542303Y393094D01*
X1542309Y392981D01*
X1542311Y392867D01*
X1542311Y391202D01*
X1535650Y391202D01*
D11*
X1422400Y525780D02*
X-68580Y525780D01*
D12*
X1454889Y528278D02*
X1458219Y518287D01*
X1461550Y528278D01*
X1468334Y524115D02*
X1478325Y524115D01*
X1486879Y524115D02*
X1491042Y522450D01*
X1486879Y524114D02*
X1486794Y524150D01*
X1486711Y524190D01*
X1486630Y524233D01*
X1486550Y524280D01*
X1486473Y524330D01*
X1486397Y524383D01*
X1486324Y524439D01*
X1486254Y524499D01*
X1486186Y524561D01*
X1486121Y524626D01*
X1486059Y524694D01*
X1485999Y524765D01*
X1485943Y524838D01*
X1485890Y524913D01*
X1485840Y524991D01*
X1485794Y525070D01*
X1485751Y525152D01*
X1485711Y525235D01*
X1485675Y525320D01*
X1485643Y525406D01*
X1485614Y525494D01*
X1485590Y525583D01*
X1485569Y525673D01*
X1485552Y525763D01*
X1485538Y525854D01*
X1485529Y525946D01*
X1485524Y526038D01*
X1485522Y526130D01*
X1485524Y526222D01*
X1485531Y526314D01*
X1485541Y526406D01*
X1485555Y526497D01*
X1485573Y526588D01*
X1485595Y526677D01*
X1485621Y526766D01*
X1485651Y526853D01*
X1485684Y526939D01*
X1485721Y527023D01*
X1485761Y527106D01*
X1485805Y527187D01*
X1485852Y527266D01*
X1485903Y527343D01*
X1485957Y527418D01*
X1486014Y527491D01*
X1486074Y527561D01*
X1486137Y527628D01*
X1486203Y527692D01*
X1486271Y527754D01*
X1486342Y527813D01*
X1486416Y527868D01*
X1486492Y527921D01*
X1486570Y527970D01*
X1486650Y528016D01*
X1486731Y528058D01*
X1486815Y528097D01*
X1486900Y528132D01*
X1486987Y528163D01*
X1487075Y528191D01*
X1487164Y528215D01*
X1487254Y528235D01*
X1487344Y528252D01*
X1487436Y528264D01*
X1487528Y528273D01*
X1487620Y528277D01*
X1487712Y528278D01*
X1487939Y528272D01*
X1488166Y528261D01*
X1488393Y528244D01*
X1488619Y528221D01*
X1488845Y528194D01*
X1489070Y528160D01*
X1489294Y528122D01*
X1489517Y528078D01*
X1489739Y528029D01*
X1489960Y527974D01*
X1490179Y527914D01*
X1490397Y527849D01*
X1490613Y527778D01*
X1490827Y527703D01*
X1491040Y527622D01*
X1491250Y527536D01*
X1491459Y527445D01*
X1491042Y522450D02*
X1491127Y522414D01*
X1491210Y522374D01*
X1491291Y522331D01*
X1491371Y522284D01*
X1491448Y522234D01*
X1491524Y522181D01*
X1491597Y522125D01*
X1491667Y522065D01*
X1491735Y522003D01*
X1491800Y521938D01*
X1491862Y521870D01*
X1491922Y521799D01*
X1491978Y521726D01*
X1492031Y521651D01*
X1492081Y521573D01*
X1492127Y521494D01*
X1492170Y521412D01*
X1492210Y521329D01*
X1492246Y521244D01*
X1492278Y521158D01*
X1492307Y521070D01*
X1492331Y520981D01*
X1492352Y520891D01*
X1492369Y520801D01*
X1492383Y520710D01*
X1492392Y520618D01*
X1492397Y520526D01*
X1492399Y520434D01*
X1492397Y520342D01*
X1492390Y520250D01*
X1492380Y520158D01*
X1492366Y520067D01*
X1492348Y519976D01*
X1492326Y519887D01*
X1492300Y519798D01*
X1492270Y519711D01*
X1492237Y519625D01*
X1492200Y519541D01*
X1492160Y519458D01*
X1492116Y519377D01*
X1492069Y519298D01*
X1492018Y519221D01*
X1491964Y519146D01*
X1491907Y519073D01*
X1491847Y519003D01*
X1491784Y518936D01*
X1491718Y518872D01*
X1491650Y518810D01*
X1491579Y518751D01*
X1491505Y518696D01*
X1491429Y518643D01*
X1491351Y518594D01*
X1491271Y518548D01*
X1491190Y518506D01*
X1491106Y518467D01*
X1491021Y518432D01*
X1490934Y518401D01*
X1490846Y518373D01*
X1490757Y518349D01*
X1490667Y518329D01*
X1490577Y518312D01*
X1490485Y518300D01*
X1490393Y518291D01*
X1490301Y518287D01*
X1490209Y518286D01*
X1490209Y518287D02*
X1489875Y518296D01*
X1489542Y518313D01*
X1489209Y518337D01*
X1488876Y518370D01*
X1488545Y518410D01*
X1488214Y518458D01*
X1487885Y518514D01*
X1487557Y518577D01*
X1487231Y518649D01*
X1486907Y518728D01*
X1486584Y518814D01*
X1486264Y518909D01*
X1485946Y519011D01*
X1485630Y519120D01*
X1501702Y518287D02*
X1505032Y518287D01*
X1501702Y518287D02*
X1501604Y518289D01*
X1501506Y518295D01*
X1501408Y518304D01*
X1501311Y518318D01*
X1501215Y518335D01*
X1501119Y518356D01*
X1501024Y518381D01*
X1500930Y518409D01*
X1500837Y518441D01*
X1500746Y518477D01*
X1500656Y518516D01*
X1500568Y518559D01*
X1500481Y518606D01*
X1500397Y518655D01*
X1500314Y518708D01*
X1500234Y518764D01*
X1500156Y518823D01*
X1500080Y518886D01*
X1500006Y518951D01*
X1499936Y519019D01*
X1499868Y519089D01*
X1499803Y519163D01*
X1499740Y519239D01*
X1499681Y519317D01*
X1499625Y519397D01*
X1499572Y519480D01*
X1499523Y519564D01*
X1499476Y519651D01*
X1499433Y519739D01*
X1499394Y519829D01*
X1499358Y519920D01*
X1499326Y520013D01*
X1499298Y520107D01*
X1499273Y520202D01*
X1499252Y520298D01*
X1499235Y520394D01*
X1499221Y520491D01*
X1499212Y520589D01*
X1499206Y520687D01*
X1499204Y520785D01*
X1499204Y525780D01*
X1499206Y525878D01*
X1499212Y525976D01*
X1499221Y526074D01*
X1499235Y526171D01*
X1499252Y526267D01*
X1499273Y526363D01*
X1499298Y526458D01*
X1499326Y526552D01*
X1499358Y526645D01*
X1499394Y526736D01*
X1499433Y526826D01*
X1499476Y526914D01*
X1499523Y527001D01*
X1499572Y527085D01*
X1499625Y527168D01*
X1499681Y527248D01*
X1499740Y527327D01*
X1499803Y527402D01*
X1499868Y527476D01*
X1499936Y527546D01*
X1500006Y527614D01*
X1500080Y527680D01*
X1500156Y527742D01*
X1500234Y527801D01*
X1500314Y527857D01*
X1500397Y527910D01*
X1500481Y527960D01*
X1500568Y528006D01*
X1500656Y528049D01*
X1500746Y528088D01*
X1500837Y528124D01*
X1500930Y528156D01*
X1501024Y528184D01*
X1501119Y528209D01*
X1501215Y528230D01*
X1501311Y528247D01*
X1501408Y528261D01*
X1501506Y528270D01*
X1501604Y528276D01*
X1501702Y528278D01*
X1505032Y528278D01*
X1511162Y524947D02*
X1511162Y521617D01*
X1511162Y524947D02*
X1511164Y525061D01*
X1511170Y525174D01*
X1511179Y525288D01*
X1511193Y525400D01*
X1511210Y525513D01*
X1511232Y525625D01*
X1511257Y525735D01*
X1511285Y525845D01*
X1511318Y525954D01*
X1511354Y526062D01*
X1511394Y526169D01*
X1511438Y526274D01*
X1511485Y526377D01*
X1511535Y526479D01*
X1511589Y526579D01*
X1511647Y526677D01*
X1511708Y526773D01*
X1511771Y526867D01*
X1511839Y526959D01*
X1511909Y527049D01*
X1511982Y527135D01*
X1512058Y527220D01*
X1512137Y527302D01*
X1512219Y527381D01*
X1512304Y527457D01*
X1512390Y527530D01*
X1512480Y527600D01*
X1512572Y527668D01*
X1512666Y527731D01*
X1512762Y527792D01*
X1512860Y527850D01*
X1512960Y527904D01*
X1513062Y527954D01*
X1513165Y528001D01*
X1513270Y528045D01*
X1513377Y528085D01*
X1513485Y528121D01*
X1513594Y528154D01*
X1513704Y528182D01*
X1513814Y528207D01*
X1513926Y528229D01*
X1514039Y528246D01*
X1514151Y528260D01*
X1514265Y528269D01*
X1514378Y528275D01*
X1514492Y528277D01*
X1514606Y528275D01*
X1514719Y528269D01*
X1514833Y528260D01*
X1514945Y528246D01*
X1515058Y528229D01*
X1515170Y528207D01*
X1515280Y528182D01*
X1515390Y528154D01*
X1515499Y528121D01*
X1515607Y528085D01*
X1515714Y528045D01*
X1515819Y528001D01*
X1515922Y527954D01*
X1516024Y527904D01*
X1516124Y527850D01*
X1516222Y527792D01*
X1516318Y527731D01*
X1516412Y527668D01*
X1516504Y527600D01*
X1516594Y527530D01*
X1516680Y527457D01*
X1516765Y527381D01*
X1516847Y527302D01*
X1516926Y527220D01*
X1517002Y527135D01*
X1517075Y527049D01*
X1517145Y526959D01*
X1517213Y526867D01*
X1517276Y526773D01*
X1517337Y526677D01*
X1517395Y526579D01*
X1517449Y526479D01*
X1517499Y526377D01*
X1517546Y526274D01*
X1517590Y526169D01*
X1517630Y526062D01*
X1517666Y525954D01*
X1517699Y525845D01*
X1517727Y525735D01*
X1517752Y525625D01*
X1517774Y525513D01*
X1517791Y525400D01*
X1517805Y525288D01*
X1517814Y525174D01*
X1517820Y525061D01*
X1517822Y524947D01*
X1517822Y521617D01*
X1517820Y521503D01*
X1517814Y521390D01*
X1517805Y521276D01*
X1517791Y521164D01*
X1517774Y521051D01*
X1517752Y520939D01*
X1517727Y520829D01*
X1517699Y520719D01*
X1517666Y520610D01*
X1517630Y520502D01*
X1517590Y520395D01*
X1517546Y520290D01*
X1517499Y520187D01*
X1517449Y520085D01*
X1517395Y519985D01*
X1517337Y519887D01*
X1517276Y519791D01*
X1517213Y519697D01*
X1517145Y519605D01*
X1517075Y519515D01*
X1517002Y519429D01*
X1516926Y519344D01*
X1516847Y519262D01*
X1516765Y519183D01*
X1516680Y519107D01*
X1516594Y519034D01*
X1516504Y518964D01*
X1516412Y518896D01*
X1516318Y518833D01*
X1516222Y518772D01*
X1516124Y518714D01*
X1516024Y518660D01*
X1515922Y518610D01*
X1515819Y518563D01*
X1515714Y518519D01*
X1515607Y518479D01*
X1515499Y518443D01*
X1515390Y518410D01*
X1515280Y518382D01*
X1515170Y518357D01*
X1515058Y518335D01*
X1514945Y518318D01*
X1514833Y518304D01*
X1514719Y518295D01*
X1514606Y518289D01*
X1514492Y518287D01*
X1514378Y518289D01*
X1514265Y518295D01*
X1514151Y518304D01*
X1514039Y518318D01*
X1513926Y518335D01*
X1513814Y518357D01*
X1513704Y518382D01*
X1513594Y518410D01*
X1513485Y518443D01*
X1513377Y518479D01*
X1513270Y518519D01*
X1513165Y518563D01*
X1513062Y518610D01*
X1512960Y518660D01*
X1512860Y518714D01*
X1512762Y518772D01*
X1512666Y518833D01*
X1512572Y518896D01*
X1512480Y518964D01*
X1512390Y519034D01*
X1512304Y519107D01*
X1512219Y519183D01*
X1512137Y519262D01*
X1512058Y519344D01*
X1511982Y519429D01*
X1511909Y519515D01*
X1511839Y519605D01*
X1511771Y519697D01*
X1511708Y519791D01*
X1511647Y519887D01*
X1511589Y519985D01*
X1511535Y520085D01*
X1511485Y520187D01*
X1511438Y520290D01*
X1511394Y520395D01*
X1511354Y520502D01*
X1511318Y520610D01*
X1511285Y520719D01*
X1511257Y520829D01*
X1511232Y520939D01*
X1511210Y521051D01*
X1511193Y521164D01*
X1511179Y521276D01*
X1511170Y521390D01*
X1511164Y521503D01*
X1511162Y521617D01*
X1525358Y518287D02*
X1525358Y528278D01*
X1530353Y528278D01*
X1530353Y526613D01*
X1538148Y518287D02*
X1542311Y518287D01*
X1538148Y518287D02*
X1538050Y518289D01*
X1537952Y518295D01*
X1537854Y518304D01*
X1537757Y518318D01*
X1537661Y518335D01*
X1537565Y518356D01*
X1537470Y518381D01*
X1537376Y518409D01*
X1537283Y518441D01*
X1537192Y518477D01*
X1537102Y518516D01*
X1537014Y518559D01*
X1536927Y518606D01*
X1536843Y518655D01*
X1536760Y518708D01*
X1536680Y518764D01*
X1536602Y518823D01*
X1536526Y518886D01*
X1536452Y518951D01*
X1536382Y519019D01*
X1536314Y519089D01*
X1536249Y519163D01*
X1536186Y519239D01*
X1536127Y519317D01*
X1536071Y519397D01*
X1536018Y519480D01*
X1535969Y519564D01*
X1535922Y519651D01*
X1535879Y519739D01*
X1535840Y519829D01*
X1535804Y519920D01*
X1535772Y520013D01*
X1535744Y520107D01*
X1535719Y520202D01*
X1535698Y520298D01*
X1535681Y520394D01*
X1535667Y520491D01*
X1535658Y520589D01*
X1535652Y520687D01*
X1535650Y520785D01*
X1535650Y524947D01*
X1535651Y524947D02*
X1535653Y525061D01*
X1535659Y525174D01*
X1535668Y525288D01*
X1535682Y525400D01*
X1535699Y525513D01*
X1535721Y525625D01*
X1535746Y525735D01*
X1535774Y525845D01*
X1535807Y525954D01*
X1535843Y526062D01*
X1535883Y526169D01*
X1535927Y526274D01*
X1535974Y526377D01*
X1536024Y526479D01*
X1536078Y526579D01*
X1536136Y526677D01*
X1536197Y526773D01*
X1536260Y526867D01*
X1536328Y526959D01*
X1536398Y527049D01*
X1536471Y527135D01*
X1536547Y527220D01*
X1536626Y527302D01*
X1536708Y527381D01*
X1536793Y527457D01*
X1536879Y527530D01*
X1536969Y527600D01*
X1537061Y527668D01*
X1537155Y527731D01*
X1537251Y527792D01*
X1537349Y527850D01*
X1537449Y527904D01*
X1537551Y527954D01*
X1537654Y528001D01*
X1537759Y528045D01*
X1537866Y528085D01*
X1537974Y528121D01*
X1538083Y528154D01*
X1538193Y528182D01*
X1538303Y528207D01*
X1538415Y528229D01*
X1538528Y528246D01*
X1538640Y528260D01*
X1538754Y528269D01*
X1538867Y528275D01*
X1538981Y528277D01*
X1539095Y528275D01*
X1539208Y528269D01*
X1539322Y528260D01*
X1539434Y528246D01*
X1539547Y528229D01*
X1539659Y528207D01*
X1539769Y528182D01*
X1539879Y528154D01*
X1539988Y528121D01*
X1540096Y528085D01*
X1540203Y528045D01*
X1540308Y528001D01*
X1540411Y527954D01*
X1540513Y527904D01*
X1540613Y527850D01*
X1540711Y527792D01*
X1540807Y527731D01*
X1540901Y527668D01*
X1540993Y527600D01*
X1541083Y527530D01*
X1541169Y527457D01*
X1541254Y527381D01*
X1541336Y527302D01*
X1541415Y527220D01*
X1541491Y527135D01*
X1541564Y527049D01*
X1541634Y526959D01*
X1541702Y526867D01*
X1541765Y526773D01*
X1541826Y526677D01*
X1541884Y526579D01*
X1541938Y526479D01*
X1541988Y526377D01*
X1542035Y526274D01*
X1542079Y526169D01*
X1542119Y526062D01*
X1542155Y525954D01*
X1542188Y525845D01*
X1542216Y525735D01*
X1542241Y525625D01*
X1542263Y525513D01*
X1542280Y525400D01*
X1542294Y525288D01*
X1542303Y525174D01*
X1542309Y525061D01*
X1542311Y524947D01*
X1542311Y523282D01*
X1535650Y523282D01*
D11*
X1422400Y657860D02*
X-68580Y657860D01*
D12*
X1454889Y660358D02*
X1458219Y650367D01*
X1461550Y660358D01*
X1468334Y656195D02*
X1478325Y656195D01*
X1486879Y656195D02*
X1491042Y654530D01*
X1486879Y656194D02*
X1486794Y656230D01*
X1486711Y656270D01*
X1486630Y656313D01*
X1486550Y656360D01*
X1486473Y656410D01*
X1486397Y656463D01*
X1486324Y656519D01*
X1486254Y656579D01*
X1486186Y656641D01*
X1486121Y656706D01*
X1486059Y656774D01*
X1485999Y656845D01*
X1485943Y656918D01*
X1485890Y656993D01*
X1485840Y657071D01*
X1485794Y657150D01*
X1485751Y657232D01*
X1485711Y657315D01*
X1485675Y657400D01*
X1485643Y657486D01*
X1485614Y657574D01*
X1485590Y657663D01*
X1485569Y657753D01*
X1485552Y657843D01*
X1485538Y657934D01*
X1485529Y658026D01*
X1485524Y658118D01*
X1485522Y658210D01*
X1485524Y658302D01*
X1485531Y658394D01*
X1485541Y658486D01*
X1485555Y658577D01*
X1485573Y658668D01*
X1485595Y658757D01*
X1485621Y658846D01*
X1485651Y658933D01*
X1485684Y659019D01*
X1485721Y659103D01*
X1485761Y659186D01*
X1485805Y659267D01*
X1485852Y659346D01*
X1485903Y659423D01*
X1485957Y659498D01*
X1486014Y659571D01*
X1486074Y659641D01*
X1486137Y659708D01*
X1486203Y659772D01*
X1486271Y659834D01*
X1486342Y659893D01*
X1486416Y659948D01*
X1486492Y660001D01*
X1486570Y660050D01*
X1486650Y660096D01*
X1486731Y660138D01*
X1486815Y660177D01*
X1486900Y660212D01*
X1486987Y660243D01*
X1487075Y660271D01*
X1487164Y660295D01*
X1487254Y660315D01*
X1487344Y660332D01*
X1487436Y660344D01*
X1487528Y660353D01*
X1487620Y660357D01*
X1487712Y660358D01*
X1487939Y660352D01*
X1488166Y660341D01*
X1488393Y660324D01*
X1488619Y660301D01*
X1488845Y660274D01*
X1489070Y660240D01*
X1489294Y660202D01*
X1489517Y660158D01*
X1489739Y660109D01*
X1489960Y660054D01*
X1490179Y659994D01*
X1490397Y659929D01*
X1490613Y659858D01*
X1490827Y659783D01*
X1491040Y659702D01*
X1491250Y659616D01*
X1491459Y659525D01*
X1491042Y654530D02*
X1491127Y654494D01*
X1491210Y654454D01*
X1491291Y654411D01*
X1491371Y654364D01*
X1491448Y654314D01*
X1491524Y654261D01*
X1491597Y654205D01*
X1491667Y654145D01*
X1491735Y654083D01*
X1491800Y654018D01*
X1491862Y653950D01*
X1491922Y653879D01*
X1491978Y653806D01*
X1492031Y653731D01*
X1492081Y653653D01*
X1492127Y653574D01*
X1492170Y653492D01*
X1492210Y653409D01*
X1492246Y653324D01*
X1492278Y653238D01*
X1492307Y653150D01*
X1492331Y653061D01*
X1492352Y652971D01*
X1492369Y652881D01*
X1492383Y652790D01*
X1492392Y652698D01*
X1492397Y652606D01*
X1492399Y652514D01*
X1492397Y652422D01*
X1492390Y652330D01*
X1492380Y652238D01*
X1492366Y652147D01*
X1492348Y652056D01*
X1492326Y651967D01*
X1492300Y651878D01*
X1492270Y651791D01*
X1492237Y651705D01*
X1492200Y651621D01*
X1492160Y651538D01*
X1492116Y651457D01*
X1492069Y651378D01*
X1492018Y651301D01*
X1491964Y651226D01*
X1491907Y651153D01*
X1491847Y651083D01*
X1491784Y651016D01*
X1491718Y650952D01*
X1491650Y650890D01*
X1491579Y650831D01*
X1491505Y650776D01*
X1491429Y650723D01*
X1491351Y650674D01*
X1491271Y650628D01*
X1491190Y650586D01*
X1491106Y650547D01*
X1491021Y650512D01*
X1490934Y650481D01*
X1490846Y650453D01*
X1490757Y650429D01*
X1490667Y650409D01*
X1490577Y650392D01*
X1490485Y650380D01*
X1490393Y650371D01*
X1490301Y650367D01*
X1490209Y650366D01*
X1490209Y650367D02*
X1489875Y650376D01*
X1489542Y650393D01*
X1489209Y650417D01*
X1488876Y650450D01*
X1488545Y650490D01*
X1488214Y650538D01*
X1487885Y650594D01*
X1487557Y650657D01*
X1487231Y650729D01*
X1486907Y650808D01*
X1486584Y650894D01*
X1486264Y650989D01*
X1485946Y651091D01*
X1485630Y651200D01*
X1501702Y650367D02*
X1505032Y650367D01*
X1501702Y650367D02*
X1501604Y650369D01*
X1501506Y650375D01*
X1501408Y650384D01*
X1501311Y650398D01*
X1501215Y650415D01*
X1501119Y650436D01*
X1501024Y650461D01*
X1500930Y650489D01*
X1500837Y650521D01*
X1500746Y650557D01*
X1500656Y650596D01*
X1500568Y650639D01*
X1500481Y650686D01*
X1500397Y650735D01*
X1500314Y650788D01*
X1500234Y650844D01*
X1500156Y650903D01*
X1500080Y650966D01*
X1500006Y651031D01*
X1499936Y651099D01*
X1499868Y651169D01*
X1499803Y651243D01*
X1499740Y651319D01*
X1499681Y651397D01*
X1499625Y651477D01*
X1499572Y651560D01*
X1499523Y651644D01*
X1499476Y651731D01*
X1499433Y651819D01*
X1499394Y651909D01*
X1499358Y652000D01*
X1499326Y652093D01*
X1499298Y652187D01*
X1499273Y652282D01*
X1499252Y652378D01*
X1499235Y652474D01*
X1499221Y652571D01*
X1499212Y652669D01*
X1499206Y652767D01*
X1499204Y652865D01*
X1499204Y657860D01*
X1499206Y657958D01*
X1499212Y658056D01*
X1499221Y658154D01*
X1499235Y658251D01*
X1499252Y658347D01*
X1499273Y658443D01*
X1499298Y658538D01*
X1499326Y658632D01*
X1499358Y658725D01*
X1499394Y658816D01*
X1499433Y658906D01*
X1499476Y658994D01*
X1499523Y659081D01*
X1499572Y659165D01*
X1499625Y659248D01*
X1499681Y659328D01*
X1499740Y659407D01*
X1499803Y659482D01*
X1499868Y659556D01*
X1499936Y659626D01*
X1500006Y659694D01*
X1500080Y659760D01*
X1500156Y659822D01*
X1500234Y659881D01*
X1500314Y659937D01*
X1500397Y659990D01*
X1500481Y660040D01*
X1500568Y660086D01*
X1500656Y660129D01*
X1500746Y660168D01*
X1500837Y660204D01*
X1500930Y660236D01*
X1501024Y660264D01*
X1501119Y660289D01*
X1501215Y660310D01*
X1501311Y660327D01*
X1501408Y660341D01*
X1501506Y660350D01*
X1501604Y660356D01*
X1501702Y660358D01*
X1505032Y660358D01*
X1511162Y657027D02*
X1511162Y653697D01*
X1511162Y657027D02*
X1511164Y657141D01*
X1511170Y657254D01*
X1511179Y657368D01*
X1511193Y657480D01*
X1511210Y657593D01*
X1511232Y657705D01*
X1511257Y657815D01*
X1511285Y657925D01*
X1511318Y658034D01*
X1511354Y658142D01*
X1511394Y658249D01*
X1511438Y658354D01*
X1511485Y658457D01*
X1511535Y658559D01*
X1511589Y658659D01*
X1511647Y658757D01*
X1511708Y658853D01*
X1511771Y658947D01*
X1511839Y659039D01*
X1511909Y659129D01*
X1511982Y659215D01*
X1512058Y659300D01*
X1512137Y659382D01*
X1512219Y659461D01*
X1512304Y659537D01*
X1512390Y659610D01*
X1512480Y659680D01*
X1512572Y659748D01*
X1512666Y659811D01*
X1512762Y659872D01*
X1512860Y659930D01*
X1512960Y659984D01*
X1513062Y660034D01*
X1513165Y660081D01*
X1513270Y660125D01*
X1513377Y660165D01*
X1513485Y660201D01*
X1513594Y660234D01*
X1513704Y660262D01*
X1513814Y660287D01*
X1513926Y660309D01*
X1514039Y660326D01*
X1514151Y660340D01*
X1514265Y660349D01*
X1514378Y660355D01*
X1514492Y660357D01*
X1514606Y660355D01*
X1514719Y660349D01*
X1514833Y660340D01*
X1514945Y660326D01*
X1515058Y660309D01*
X1515170Y660287D01*
X1515280Y660262D01*
X1515390Y660234D01*
X1515499Y660201D01*
X1515607Y660165D01*
X1515714Y660125D01*
X1515819Y660081D01*
X1515922Y660034D01*
X1516024Y659984D01*
X1516124Y659930D01*
X1516222Y659872D01*
X1516318Y659811D01*
X1516412Y659748D01*
X1516504Y659680D01*
X1516594Y659610D01*
X1516680Y659537D01*
X1516765Y659461D01*
X1516847Y659382D01*
X1516926Y659300D01*
X1517002Y659215D01*
X1517075Y659129D01*
X1517145Y659039D01*
X1517213Y658947D01*
X1517276Y658853D01*
X1517337Y658757D01*
X1517395Y658659D01*
X1517449Y658559D01*
X1517499Y658457D01*
X1517546Y658354D01*
X1517590Y658249D01*
X1517630Y658142D01*
X1517666Y658034D01*
X1517699Y657925D01*
X1517727Y657815D01*
X1517752Y657705D01*
X1517774Y657593D01*
X1517791Y657480D01*
X1517805Y657368D01*
X1517814Y657254D01*
X1517820Y657141D01*
X1517822Y657027D01*
X1517822Y653697D01*
X1517820Y653583D01*
X1517814Y653470D01*
X1517805Y653356D01*
X1517791Y653244D01*
X1517774Y653131D01*
X1517752Y653019D01*
X1517727Y652909D01*
X1517699Y652799D01*
X1517666Y652690D01*
X1517630Y652582D01*
X1517590Y652475D01*
X1517546Y652370D01*
X1517499Y652267D01*
X1517449Y652165D01*
X1517395Y652065D01*
X1517337Y651967D01*
X1517276Y651871D01*
X1517213Y651777D01*
X1517145Y651685D01*
X1517075Y651595D01*
X1517002Y651509D01*
X1516926Y651424D01*
X1516847Y651342D01*
X1516765Y651263D01*
X1516680Y651187D01*
X1516594Y651114D01*
X1516504Y651044D01*
X1516412Y650976D01*
X1516318Y650913D01*
X1516222Y650852D01*
X1516124Y650794D01*
X1516024Y650740D01*
X1515922Y650690D01*
X1515819Y650643D01*
X1515714Y650599D01*
X1515607Y650559D01*
X1515499Y650523D01*
X1515390Y650490D01*
X1515280Y650462D01*
X1515170Y650437D01*
X1515058Y650415D01*
X1514945Y650398D01*
X1514833Y650384D01*
X1514719Y650375D01*
X1514606Y650369D01*
X1514492Y650367D01*
X1514378Y650369D01*
X1514265Y650375D01*
X1514151Y650384D01*
X1514039Y650398D01*
X1513926Y650415D01*
X1513814Y650437D01*
X1513704Y650462D01*
X1513594Y650490D01*
X1513485Y650523D01*
X1513377Y650559D01*
X1513270Y650599D01*
X1513165Y650643D01*
X1513062Y650690D01*
X1512960Y650740D01*
X1512860Y650794D01*
X1512762Y650852D01*
X1512666Y650913D01*
X1512572Y650976D01*
X1512480Y651044D01*
X1512390Y651114D01*
X1512304Y651187D01*
X1512219Y651263D01*
X1512137Y651342D01*
X1512058Y651424D01*
X1511982Y651509D01*
X1511909Y651595D01*
X1511839Y651685D01*
X1511771Y651777D01*
X1511708Y651871D01*
X1511647Y651967D01*
X1511589Y652065D01*
X1511535Y652165D01*
X1511485Y652267D01*
X1511438Y652370D01*
X1511394Y652475D01*
X1511354Y652582D01*
X1511318Y652690D01*
X1511285Y652799D01*
X1511257Y652909D01*
X1511232Y653019D01*
X1511210Y653131D01*
X1511193Y653244D01*
X1511179Y653356D01*
X1511170Y653470D01*
X1511164Y653583D01*
X1511162Y653697D01*
X1525358Y650367D02*
X1525358Y660358D01*
X1530353Y660358D01*
X1530353Y658693D01*
X1538148Y650367D02*
X1542311Y650367D01*
X1538148Y650367D02*
X1538050Y650369D01*
X1537952Y650375D01*
X1537854Y650384D01*
X1537757Y650398D01*
X1537661Y650415D01*
X1537565Y650436D01*
X1537470Y650461D01*
X1537376Y650489D01*
X1537283Y650521D01*
X1537192Y650557D01*
X1537102Y650596D01*
X1537014Y650639D01*
X1536927Y650686D01*
X1536843Y650735D01*
X1536760Y650788D01*
X1536680Y650844D01*
X1536602Y650903D01*
X1536526Y650966D01*
X1536452Y651031D01*
X1536382Y651099D01*
X1536314Y651169D01*
X1536249Y651243D01*
X1536186Y651319D01*
X1536127Y651397D01*
X1536071Y651477D01*
X1536018Y651560D01*
X1535969Y651644D01*
X1535922Y651731D01*
X1535879Y651819D01*
X1535840Y651909D01*
X1535804Y652000D01*
X1535772Y652093D01*
X1535744Y652187D01*
X1535719Y652282D01*
X1535698Y652378D01*
X1535681Y652474D01*
X1535667Y652571D01*
X1535658Y652669D01*
X1535652Y652767D01*
X1535650Y652865D01*
X1535650Y657027D01*
X1535651Y657027D02*
X1535653Y657141D01*
X1535659Y657254D01*
X1535668Y657368D01*
X1535682Y657480D01*
X1535699Y657593D01*
X1535721Y657705D01*
X1535746Y657815D01*
X1535774Y657925D01*
X1535807Y658034D01*
X1535843Y658142D01*
X1535883Y658249D01*
X1535927Y658354D01*
X1535974Y658457D01*
X1536024Y658559D01*
X1536078Y658659D01*
X1536136Y658757D01*
X1536197Y658853D01*
X1536260Y658947D01*
X1536328Y659039D01*
X1536398Y659129D01*
X1536471Y659215D01*
X1536547Y659300D01*
X1536626Y659382D01*
X1536708Y659461D01*
X1536793Y659537D01*
X1536879Y659610D01*
X1536969Y659680D01*
X1537061Y659748D01*
X1537155Y659811D01*
X1537251Y659872D01*
X1537349Y659930D01*
X1537449Y659984D01*
X1537551Y660034D01*
X1537654Y660081D01*
X1537759Y660125D01*
X1537866Y660165D01*
X1537974Y660201D01*
X1538083Y660234D01*
X1538193Y660262D01*
X1538303Y660287D01*
X1538415Y660309D01*
X1538528Y660326D01*
X1538640Y660340D01*
X1538754Y660349D01*
X1538867Y660355D01*
X1538981Y660357D01*
X1539095Y660355D01*
X1539208Y660349D01*
X1539322Y660340D01*
X1539434Y660326D01*
X1539547Y660309D01*
X1539659Y660287D01*
X1539769Y660262D01*
X1539879Y660234D01*
X1539988Y660201D01*
X1540096Y660165D01*
X1540203Y660125D01*
X1540308Y660081D01*
X1540411Y660034D01*
X1540513Y659984D01*
X1540613Y659930D01*
X1540711Y659872D01*
X1540807Y659811D01*
X1540901Y659748D01*
X1540993Y659680D01*
X1541083Y659610D01*
X1541169Y659537D01*
X1541254Y659461D01*
X1541336Y659382D01*
X1541415Y659300D01*
X1541491Y659215D01*
X1541564Y659129D01*
X1541634Y659039D01*
X1541702Y658947D01*
X1541765Y658853D01*
X1541826Y658757D01*
X1541884Y658659D01*
X1541938Y658559D01*
X1541988Y658457D01*
X1542035Y658354D01*
X1542079Y658249D01*
X1542119Y658142D01*
X1542155Y658034D01*
X1542188Y657925D01*
X1542216Y657815D01*
X1542241Y657705D01*
X1542263Y657593D01*
X1542280Y657480D01*
X1542294Y657368D01*
X1542303Y657254D01*
X1542309Y657141D01*
X1542311Y657027D01*
X1542311Y655362D01*
X1535650Y655362D01*
D13*
X1358900Y-5080D02*
X-68580Y-5080D01*
X1358900Y-5080D02*
X1358900Y-68580D01*
X-68580Y-68580D01*
X-68580Y-5080D01*
X1295400Y655320D02*
X1358900Y655320D01*
X1358900Y0D01*
X1295400Y0D01*
X1295400Y655320D01*
X1358900Y723900D02*
X-68580Y723900D01*
X1358900Y723900D02*
X1358900Y660400D01*
X-68580Y660400D01*
X-68580Y723900D01*
X-68580Y655320D02*
X-5080Y655320D01*
X-5080Y0D01*
X-68580Y0D01*
X-68580Y655320D01*
M02*
