M48
;GenerationSoftware,Autodesk,EAGLE,9.6.2*%
;CreationDate,2023-03-22T18:24:59Z*%
FMAT,2
ICI,OFF
METRIC,TZ,000.000
T4C0.102
T3C0.254
T2C0.950
T1C1.016
%
G90
M71
T1
X27178Y3810
X1270Y6350
X27178Y22098
X1270Y3810
X53086Y3810
X27178Y19558
X104902Y3810
X1270Y19558
X53086Y59182
X104902Y11430
X27178Y1270
X104902Y1270
X104902Y8890
X53086Y61722
X53086Y1270
X27178Y17018
X78994Y11430
X78994Y6350
X27178Y14478
X1270Y17018
X27178Y11430
X78994Y8890
X1270Y14478
X1270Y8890
X53086Y64262
X53086Y6350
X1270Y1270
X78994Y54102
X27178Y8890
X53086Y11430
X78994Y56642
X1270Y11430
X104902Y6350
X78994Y3810
X1270Y24638
X53086Y8890
X78994Y59182
X1270Y22098
X27178Y6350
X78994Y61722
X78994Y1270
X27178Y24638
X78994Y64262
X53086Y14478
X53086Y17018
X53086Y19558
X53086Y22098
X53086Y24638
X104902Y54102
X78994Y14478
X78994Y17018
X78994Y19558
X78994Y22098
X78994Y24638
X104902Y56642
X104902Y14478
X104902Y17018
X104902Y19558
X104902Y22098
X104902Y24638
X104902Y59182
X1270Y27686
X1270Y30226
X1270Y32766
X1270Y35306
X1270Y37846
X104902Y61722
X27178Y27686
X27178Y30226
X27178Y32766
X27178Y35306
X27178Y37846
X104902Y64262
X53086Y27686
X53086Y30226
X53086Y32766
X53086Y35306
X53086Y37846
X78994Y27686
X78994Y30226
X78994Y32766
X78994Y35306
X78994Y37846
X104902Y27686
X104902Y30226
X104902Y32766
X104902Y35306
X104902Y37846
X1270Y40894
X1270Y43434
X1270Y45974
X1270Y48514
X1270Y51054
X27178Y40894
X27178Y43434
X27178Y45974
X27178Y48514
X27178Y51054
X53086Y40894
X53086Y43434
X53086Y45974
X53086Y48514
X53086Y51054
X78994Y40894
X78994Y43434
X78994Y45974
X78994Y48514
X78994Y51054
X104902Y40894
X104902Y43434
X104902Y45974
X104902Y48514
X104902Y51054
X1270Y54102
X1270Y56642
X1270Y59182
X1270Y61722
X1270Y64262
X27178Y54102
X27178Y56642
X27178Y59182
X27178Y61722
X27178Y64262
X53086Y54102
X53086Y56642
T2
X58420Y11430
X6604Y11430
X6604Y24638
X32512Y11430
X110236Y64262
X110236Y11430
X84328Y11430
X32512Y24638
X58420Y24638
X84328Y24638
X110236Y24638
X6604Y37846
X32512Y37846
X58420Y64262
X110236Y37846
X110236Y51054
X32512Y51054
X84328Y51054
X32512Y64262
X84328Y64262
X58420Y51054
X84328Y37846
X58420Y37846
X6604Y64262
X6604Y51054
T3
X67795Y6256
X67790Y5159
X71384Y8374
X72210Y1730
X55743Y5951
X55735Y7531
X57628Y1252
X59914Y1252
X57760Y6248
X66599Y2743
X68529Y2794
X65329Y711
X63551Y711
X68552Y4143
X66068Y9050
X67422Y8644
X68964Y11412
X70005Y12098
X75847Y7018
X75847Y3462
X69393Y9601
X68654Y714
X72591Y714
X55169Y11125
X66027Y6642
X63271Y2540
X64795Y2540
X70749Y6088
X70749Y4310
X74069Y12098
X57582Y7061
X75004Y841
X59741Y12014
X71956Y6683
X74069Y5875
X61598Y7932
X54610Y8103
X64745Y11481
X65430Y2515
X72997Y8517
X58344Y7112
X62484Y9144
X64237Y9169
X61275Y6289
X60884Y5872
X61285Y5034
X71620Y2149
X69710Y2207
X60706Y5080
X64262Y1270
X85598Y9906
X83464Y9881
X89398Y6429
X93703Y6256
X93698Y5159
X97292Y8374
X98118Y1730
X81651Y5951
X81643Y7531
X83536Y1252
X85822Y1252
X83668Y6248
X92507Y2743
X94437Y2794
X91237Y711
X89459Y711
X94460Y4143
X91976Y9050
X93330Y8644
X94872Y11412
X95913Y12098
X101755Y7018
X101755Y3462
X95301Y9601
X94562Y714
X98499Y714
X81077Y11125
X91935Y6642
X89179Y2540
X90703Y2540
X96657Y6088
X96657Y4310
X99977Y12098
X83490Y7061
X100912Y841
X85649Y12014
X97864Y6683
X99977Y5875
X87506Y7932
X80518Y8103
X90653Y11481
X91338Y2515
X98905Y8517
X84252Y7112
X88392Y9144
X90145Y9169
X87183Y6289
X86792Y5872
X87193Y5034
X97528Y2149
X95618Y2207
X86614Y5080
X90170Y1270
X111506Y9906
X109372Y9881
X115306Y6429
X119611Y6256
X119606Y5159
X123200Y8374
X124026Y1730
X107559Y5951
X107551Y7531
X109444Y1252
X111730Y1252
X109576Y6248
X118415Y2743
X120345Y2794
X117145Y711
X115367Y711
X120368Y4143
X117884Y9050
X119238Y8644
X120780Y11412
X121821Y12098
X127663Y7018
X127663Y3462
X121209Y9601
X120470Y714
X124407Y714
X106985Y11125
X117843Y6642
X115087Y2540
X116611Y2540
X122565Y6088
X122565Y4310
X125885Y12098
X109398Y7061
X126820Y841
X111557Y12014
X123772Y6683
X125885Y5875
X113414Y7932
X106426Y8103
X116561Y11481
X117246Y2515
X124813Y8517
X110160Y7112
X114300Y9144
X116053Y9169
X113091Y6289
X112700Y5872
X113101Y5034
X123436Y2149
X121526Y2207
X112522Y5080
X116078Y1270
X7874Y23114
X5740Y23089
X11674Y19637
X15979Y19464
X15974Y18367
X19568Y21582
X20394Y14938
X3927Y19159
X3919Y20739
X5812Y14460
X8098Y14460
X5944Y19456
X14783Y15951
X16713Y16002
X13513Y13919
X11735Y13919
X16736Y17351
X14252Y22258
X15606Y21852
X17148Y24620
X18189Y25306
X24031Y20226
X24031Y16670
X17577Y22809
X16838Y13922
X20775Y13922
X3353Y24333
X14211Y19850
X11455Y15748
X12979Y15748
X18933Y19296
X18933Y17518
X22253Y25306
X5766Y20269
X23188Y14049
X7925Y25222
X20140Y19891
X22253Y19083
X9782Y21140
X2794Y21311
X12929Y24689
X13614Y15723
X21181Y21725
X6528Y20320
X10668Y22352
X12421Y22377
X9459Y19497
X9068Y19080
X9469Y18242
X19804Y15357
X17894Y15415
X8890Y18288
X12446Y14478
X33782Y23114
X31648Y23089
X37582Y19637
X41887Y19464
X41882Y18367
X45476Y21582
X46302Y14938
X29835Y19159
X29827Y20739
X31720Y14460
X34006Y14460
X31852Y19456
X40691Y15951
X42621Y16002
X39421Y13919
X37643Y13919
X42644Y17351
X40160Y22258
X41514Y21852
X43056Y24620
X44097Y25306
X49939Y20226
X49939Y16670
X43485Y22809
X42746Y13922
X46683Y13922
X29261Y24333
X40119Y19850
X37363Y15748
X38887Y15748
X44841Y19296
X44841Y17518
X48161Y25306
X31674Y20269
X49096Y14049
X33833Y25222
X46048Y19891
X48161Y19083
X35690Y21140
X28702Y21311
X38837Y24689
X39522Y15723
X47089Y21725
X32436Y20320
X36576Y22352
X38329Y22377
X35367Y19497
X34976Y19080
X35377Y18242
X45712Y15357
X43802Y15415
X34798Y18288
X38354Y14478
X59690Y23114
X57556Y23089
X63490Y19637
X67795Y19464
X67790Y18367
X71384Y21582
X72210Y14938
X55743Y19159
X55735Y20739
X57628Y14460
X59914Y14460
X57760Y19456
X66599Y15951
X68529Y16002
X65329Y13919
X63551Y13919
X68552Y17351
X66068Y22258
X67422Y21852
X68964Y24620
X70005Y25306
X75847Y20226
X75847Y16670
X69393Y22809
X68654Y13922
X72591Y13922
X55169Y24333
X66027Y19850
X63271Y15748
X64795Y15748
X70749Y19296
X70749Y17518
X74069Y25306
X57582Y20269
X75004Y14049
X59741Y25222
X71956Y19891
X74069Y19083
X61598Y21140
X54610Y21311
X64745Y24689
X65430Y15723
X72997Y21725
X58344Y20320
X62484Y22352
X64237Y22377
X61275Y19497
X60884Y19080
X61285Y18242
X71620Y15357
X69710Y15415
X60706Y18288
X64262Y14478
X85598Y23114
X83464Y23089
X89398Y19637
X93703Y19464
X93698Y18367
X97292Y21582
X98118Y14938
X81651Y19159
X81643Y20739
X83536Y14460
X85822Y14460
X83668Y19456
X92507Y15951
X94437Y16002
X91237Y13919
X89459Y13919
X94460Y17351
X91976Y22258
X93330Y21852
X94872Y24620
X95913Y25306
X101755Y20226
X101755Y16670
X95301Y22809
X94562Y13922
X98499Y13922
X81077Y24333
X91935Y19850
X89179Y15748
X90703Y15748
X96657Y19296
X96657Y17518
X99977Y25306
X83490Y20269
X100912Y14049
X85649Y25222
X97864Y19891
X99977Y19083
X87506Y21140
X80518Y21311
X90653Y24689
X91338Y15723
X98905Y21725
X84252Y20320
X88392Y22352
X90145Y22377
X87183Y19497
X86792Y19080
X87193Y18242
X97528Y15357
X95618Y15415
X86614Y18288
X90170Y14478
X111506Y23114
X109372Y23089
X115306Y19637
X119611Y19464
X119606Y18367
X123200Y21582
X124026Y14938
X107559Y19159
X107551Y20739
X109444Y14460
X111730Y14460
X109576Y19456
X118415Y15951
X120345Y16002
X117145Y13919
X115367Y13919
X120368Y17351
X117884Y22258
X119238Y21852
X120780Y24620
X121821Y25306
X127663Y20226
X127663Y16670
X121209Y22809
X120470Y13922
X124407Y13922
X106985Y24333
X117843Y19850
X115087Y15748
X116611Y15748
X122565Y19296
X122565Y17518
X125885Y25306
X109398Y20269
X126820Y14049
X111557Y25222
X123772Y19891
X125885Y19083
X113414Y21140
X106426Y21311
X116561Y24689
X117246Y15723
X124813Y21725
X110160Y20320
X114300Y22352
X116053Y22377
X113091Y19497
X112700Y19080
X113101Y18242
X123436Y15357
X121526Y15415
X112522Y18288
X116078Y14478
X7874Y36322
X5740Y36297
X11674Y32845
X15979Y32672
X15974Y31575
X19568Y34790
X20394Y28146
X3927Y32367
X3919Y33947
X5812Y27668
X8098Y27668
X5944Y32664
X14783Y29159
X16713Y29210
X13513Y27127
X11735Y27127
X16736Y30559
X14252Y35466
X15606Y35060
X17148Y37828
X18189Y38514
X24031Y33434
X24031Y29878
X17577Y36017
X16838Y27130
X20775Y27130
X3353Y37541
X14211Y33058
X11455Y28956
X12979Y28956
X18933Y32504
X18933Y30726
X22253Y38514
X5766Y33477
X23188Y27257
X7925Y38430
X20140Y33099
X22253Y32291
X9782Y34348
X2794Y34519
X12929Y37897
X13614Y28931
X21181Y34933
X6528Y33528
X10668Y35560
X12421Y35585
X9459Y32705
X9068Y32288
X9469Y31450
X19804Y28565
X17894Y28623
X8890Y31496
X12446Y27686
X33782Y36322
X31648Y36297
X37582Y32845
X41887Y32672
X41882Y31575
X45476Y34790
X46302Y28146
X29835Y32367
X29827Y33947
X31720Y27668
X34006Y27668
X31852Y32664
X40691Y29159
X42621Y29210
X39421Y27127
X37643Y27127
X42644Y30559
X40160Y35466
X41514Y35060
X43056Y37828
X44097Y38514
X49939Y33434
X49939Y29878
X43485Y36017
X42746Y27130
X46683Y27130
X29261Y37541
X40119Y33058
X37363Y28956
X38887Y28956
X44841Y32504
X44841Y30726
X48161Y38514
X31674Y33477
X49096Y27257
X33833Y38430
X46048Y33099
X48161Y32291
X35690Y34348
X28702Y34519
X38837Y37897
X39522Y28931
X47089Y34933
X32436Y33528
X36576Y35560
X38329Y35585
X35367Y32705
X34976Y32288
X35377Y31450
X45712Y28565
X43802Y28623
X34798Y31496
X38354Y27686
X59690Y36322
X57556Y36297
X63490Y32845
X67795Y32672
X67790Y31575
X71384Y34790
X72210Y28146
X55743Y32367
X55735Y33947
X57628Y27668
X59914Y27668
X57760Y32664
X66599Y29159
X68529Y29210
X65329Y27127
X63551Y27127
X68552Y30559
X66068Y35466
X67422Y35060
X68964Y37828
X70005Y38514
X75847Y33434
X75847Y29878
X69393Y36017
X68654Y27130
X72591Y27130
X55169Y37541
X66027Y33058
X63271Y28956
X64795Y28956
X70749Y32504
X70749Y30726
X74069Y38514
X57582Y33477
X75004Y27257
X59741Y38430
X71956Y33099
X74069Y32291
X61598Y34348
X54610Y34519
X64745Y37897
X65430Y28931
X72997Y34933
X58344Y33528
X62484Y35560
X64237Y35585
X61275Y32705
X60884Y32288
X61285Y31450
X71620Y28565
X69710Y28623
X60706Y31496
X64262Y27686
X85598Y36322
X83464Y36297
X89398Y32845
X93703Y32672
X93698Y31575
X97292Y34790
X98118Y28146
X81651Y32367
X81643Y33947
X83536Y27668
X85822Y27668
X83668Y32664
X92507Y29159
X94437Y29210
X91237Y27127
X89459Y27127
X94460Y30559
X91976Y35466
X93330Y35060
X94872Y37828
X95913Y38514
X101755Y33434
X101755Y29878
X95301Y36017
X94562Y27130
X98499Y27130
X81077Y37541
X91935Y33058
X89179Y28956
X90703Y28956
X96657Y32504
X96657Y30726
X99977Y38514
X83490Y33477
X100912Y27257
X85649Y38430
X97864Y33099
X99977Y32291
X87506Y34348
X80518Y34519
X90653Y37897
X91338Y28931
X98905Y34933
X84252Y33528
X88392Y35560
X90145Y35585
X87183Y32705
X86792Y32288
X87193Y31450
X97528Y28565
X95618Y28623
X86614Y31496
X90170Y27686
X111506Y36322
X109372Y36297
X115306Y32845
X119611Y32672
X119606Y31575
X123200Y34790
X124026Y28146
X107559Y32367
X107551Y33947
X109444Y27668
X111730Y27668
X109576Y32664
X118415Y29159
X120345Y29210
X117145Y27127
X115367Y27127
X120368Y30559
X117884Y35466
X119238Y35060
X120780Y37828
X121821Y38514
X127663Y33434
X127663Y29878
X121209Y36017
X120470Y27130
X124407Y27130
X106985Y37541
X117843Y33058
X115087Y28956
X116611Y28956
X122565Y32504
X122565Y30726
X125885Y38514
X109398Y33477
X126820Y27257
X111557Y38430
X123772Y33099
X125885Y32291
X113414Y34348
X106426Y34519
X116561Y37897
X117246Y28931
X124813Y34933
X110160Y33528
X114300Y35560
X116053Y35585
X113091Y32705
X112700Y32288
X113101Y31450
X123436Y28565
X121526Y28623
X112522Y31496
X116078Y27686
X7874Y49530
X5740Y49505
X11674Y46053
X15979Y45880
X15974Y44783
X19568Y47998
X20394Y41354
X3927Y45575
X3919Y47155
X5812Y40876
X8098Y40876
X5944Y45872
X14783Y42367
X16713Y42418
X13513Y40335
X11735Y40335
X16736Y43767
X14252Y48674
X15606Y48268
X17148Y51036
X18189Y51722
X24031Y46642
X24031Y43086
X17577Y49225
X16838Y40338
X20775Y40338
X3353Y50749
X14211Y46266
X11455Y42164
X12979Y42164
X18933Y45712
X18933Y43934
X22253Y51722
X5766Y46685
X23188Y40465
X7925Y51638
X20140Y46307
X22253Y45499
X9782Y47556
X2794Y47727
X12929Y51105
X13614Y42139
X21181Y48141
X6528Y46736
X10668Y48768
X12421Y48793
X9459Y45913
X9068Y45496
X9469Y44658
X19804Y41773
X17894Y41831
X8890Y44704
X12446Y40894
X33782Y49530
X31648Y49505
X37582Y46053
X41887Y45880
X41882Y44783
X45476Y47998
X46302Y41354
X29835Y45575
X29827Y47155
X31720Y40876
X34006Y40876
X31852Y45872
X40691Y42367
X42621Y42418
X39421Y40335
X37643Y40335
X42644Y43767
X40160Y48674
X41514Y48268
X43056Y51036
X44097Y51722
X49939Y46642
X49939Y43086
X43485Y49225
X42746Y40338
X46683Y40338
X29261Y50749
X40119Y46266
X37363Y42164
X38887Y42164
X44841Y45712
X44841Y43934
X48161Y51722
X31674Y46685
X49096Y40465
X33833Y51638
X46048Y46307
X48161Y45499
X35690Y47556
X28702Y47727
X38837Y51105
X39522Y42139
X47089Y48141
X32436Y46736
X36576Y48768
X38329Y48793
X35367Y45913
X34976Y45496
X35377Y44658
X45712Y41773
X43802Y41831
X34798Y44704
X38354Y40894
X59690Y49530
X57556Y49505
X63490Y46053
X67795Y45880
X67790Y44783
X71384Y47998
X72210Y41354
X55743Y45575
X55735Y47155
X57628Y40876
X59914Y40876
X57760Y45872
X66599Y42367
X68529Y42418
X65329Y40335
X63551Y40335
X68552Y43767
X66068Y48674
X67422Y48268
X68964Y51036
X70005Y51722
X75847Y46642
X75847Y43086
X69393Y49225
X68654Y40338
X72591Y40338
X55169Y50749
X66027Y46266
X63271Y42164
X64795Y42164
X70749Y45712
X70749Y43934
X74069Y51722
X57582Y46685
X75004Y40465
X59741Y51638
X71956Y46307
X74069Y45499
X61598Y47556
X54610Y47727
X64745Y51105
X65430Y42139
X72997Y48141
X58344Y46736
X62484Y48768
X64237Y48793
X61275Y45913
X60884Y45496
X61285Y44658
X71620Y41773
X69710Y41831
X60706Y44704
X64262Y40894
X85598Y49530
X83464Y49505
X89398Y46053
X93703Y45880
X93698Y44783
X97292Y47998
X98118Y41354
X81651Y45575
X81643Y47155
X83536Y40876
X85822Y40876
X83668Y45872
X92507Y42367
X94437Y42418
X91237Y40335
X89459Y40335
X94460Y43767
X91976Y48674
X93330Y48268
X94872Y51036
X95913Y51722
X101755Y46642
X101755Y43086
X95301Y49225
X94562Y40338
X98499Y40338
X81077Y50749
X91935Y46266
X89179Y42164
X90703Y42164
X96657Y45712
X96657Y43934
X99977Y51722
X83490Y46685
X100912Y40465
X85649Y51638
X97864Y46307
X99977Y45499
X87506Y47556
X80518Y47727
X90653Y51105
X91338Y42139
X98905Y48141
X84252Y46736
X88392Y48768
X90145Y48793
X87183Y45913
X86792Y45496
X87193Y44658
X97528Y41773
X95618Y41831
X86614Y44704
X90170Y40894
X111506Y49530
X109372Y49505
X115306Y46053
X119611Y45880
X119606Y44783
X123200Y47998
X124026Y41354
X107559Y45575
X107551Y47155
X109444Y40876
X111730Y40876
X109576Y45872
X118415Y42367
X120345Y42418
X117145Y40335
X115367Y40335
X120368Y43767
X117884Y48674
X119238Y48268
X120780Y51036
X121821Y51722
X127663Y46642
X127663Y43086
X121209Y49225
X120470Y40338
X124407Y40338
X106985Y50749
X117843Y46266
X115087Y42164
X116611Y42164
X122565Y45712
X122565Y43934
X125885Y51722
X109398Y46685
X126820Y40465
X111557Y51638
X123772Y46307
X125885Y45499
X113414Y47556
X106426Y47727
X116561Y51105
X117246Y42139
X124813Y48141
X110160Y46736
X114300Y48768
X116053Y48793
X113091Y45913
X112700Y45496
X113101Y44658
X123436Y41773
X121526Y41831
X112522Y44704
X116078Y40894
X7874Y62738
X5740Y62713
X11674Y59261
X15979Y59088
X15974Y57991
X19568Y61206
X20394Y54562
X3927Y58783
X3919Y60363
X5812Y54084
X8098Y54084
X5944Y59080
X14783Y55575
X16713Y55626
X13513Y53543
X11735Y53543
X16736Y56975
X14252Y61882
X15606Y61476
X17148Y64244
X18189Y64930
X24031Y59850
X24031Y56294
X17577Y62433
X16838Y53546
X20775Y53546
X3353Y63957
X14211Y59474
X11455Y55372
X12979Y55372
X18933Y58920
X18933Y57142
X22253Y64930
X5766Y59893
X23188Y53673
X7925Y64846
X20140Y59515
X22253Y58707
X9782Y60764
X2794Y60935
X12929Y64313
X13614Y55347
X6528Y59944
X10668Y61976
X12421Y62001
X9459Y59121
X9068Y58704
X9469Y57866
X19804Y54981
X17894Y55039
X8890Y57912
X12446Y54102
X33782Y62738
X31648Y62713
X37582Y59261
X41887Y59088
X41882Y57991
X45476Y61206
X46302Y54562
X29835Y58783
X29827Y60363
X31720Y54084
X34006Y54084
X31852Y59080
X40691Y55575
X42621Y55626
X39421Y53543
X37643Y53543
X42644Y56975
X40160Y61882
X41514Y61476
X43056Y64244
X44097Y64930
X49939Y59850
X49939Y56294
X43485Y62433
X42746Y53546
X46683Y53546
X29261Y63957
X40119Y59474
X37363Y55372
X38887Y55372
X44841Y58920
X44841Y57142
X48161Y64930
X31674Y59893
X49096Y53673
X33833Y64846
X46048Y59515
X48161Y58707
X35690Y60764
X28702Y60935
X38837Y64313
X39522Y55347
X47089Y61349
X32436Y59944
X36576Y61976
X38329Y62001
X35367Y59121
X34976Y58704
X35377Y57866
X45712Y54981
X43802Y55039
X34798Y57912
X38354Y54102
X59690Y62738
X57556Y62713
X63490Y59261
X67795Y59088
X67790Y57991
X71384Y61206
X72210Y54562
X55743Y58783
X55735Y60363
X57628Y54084
X59914Y54084
X57760Y59080
X66599Y55575
X68529Y55626
X65329Y53543
X63551Y53543
X68552Y56975
X66068Y61882
X67422Y61476
X68964Y64244
X70005Y64930
X75847Y59850
X75847Y56294
X69393Y62433
X68654Y53546
X72591Y53546
X55169Y63957
X66027Y59474
X63271Y55372
X64795Y55372
X70749Y58920
X70749Y57142
X74069Y64930
X57582Y59893
X75004Y53673
X59741Y64846
X71956Y59515
X74069Y58707
X61598Y60764
X54610Y60935
X64745Y64313
X65430Y55347
X72997Y61349
X58344Y59944
X62484Y61976
X64237Y62001
X61275Y59121
X60884Y58704
X61285Y57866
X71620Y54981
X69710Y55039
X60706Y57912
X64262Y54102
X85598Y62738
X83464Y62713
X89398Y59261
X93703Y59088
X93698Y57991
X97292Y61206
X98118Y54562
X81651Y58783
X81643Y60363
X83536Y54084
X85822Y54084
X83668Y59080
X92507Y55575
X94437Y55626
X91237Y53543
X89459Y53543
X94460Y56975
X91976Y61882
X93330Y61476
X94872Y64244
X95913Y64930
X101755Y59850
X101755Y56294
X95301Y62433
X94562Y53546
X98499Y53546
X81077Y63957
X91935Y59474
X89179Y55372
X90703Y55372
X96657Y58920
X96657Y57142
X99977Y64930
X83490Y59893
X100912Y53673
X85649Y64846
X97864Y59515
X99977Y58707
X87506Y60764
X80518Y60935
X90653Y64313
X91338Y55347
X98905Y61349
X84252Y59944
X88392Y61976
X90145Y62001
X87183Y59121
X86792Y58704
X87193Y57866
X97528Y54981
X95618Y55039
X86614Y57912
X90170Y54102
X111506Y62738
X109372Y62713
X115306Y59261
X119611Y59088
X119606Y57991
X123200Y61206
X124026Y54562
X107559Y58783
X107551Y60363
X109444Y54084
X111730Y54084
X21181Y61349
X118415Y55575
X120345Y55626
X117145Y53543
X115367Y53543
X120368Y56975
X117884Y61882
X119238Y61476
X120780Y64244
X121821Y64930
X127663Y59850
X127663Y56294
X121209Y62433
X120470Y53546
X124407Y53546
X106985Y63957
X117843Y59474
X115087Y55372
X116611Y55372
X122565Y58920
X122565Y57142
X125885Y64930
X109398Y59893
X126820Y53673
X111557Y64846
X123772Y59515
X125885Y58707
X113414Y60764
X106426Y60935
X116561Y64313
X117246Y55347
X124813Y61349
X110160Y59944
X114300Y61976
X116053Y62001
X113091Y59121
X112700Y58704
X113101Y57866
X123436Y54981
X121526Y55039
X112522Y57912
X116078Y54102
X7874Y9906
X5740Y9881
X11674Y6429
X15979Y6256
X15974Y5159
X19568Y8374
X20394Y1730
X3927Y5951
X3919Y7531
X5812Y1252
X8098Y1252
X5944Y6248
X14783Y2743
X16713Y2794
X13513Y711
X11735Y711
X16736Y4143
X14252Y9050
X15606Y8644
X17148Y11412
X18189Y12098
X24031Y7018
X24031Y3462
X17577Y9601
X16838Y714
X20775Y714
X3353Y11125
X14211Y6642
X11455Y2540
X12979Y2540
X18933Y6088
X18933Y4310
X22253Y12098
X5766Y7061
X23188Y841
X7925Y12014
X20140Y6683
X22253Y5875
X9782Y7932
X2794Y8103
X12929Y11481
X13614Y2515
X21181Y8517
X6528Y7112
X10668Y9144
X12421Y9169
X9459Y6289
X9068Y5872
X9469Y5034
X19804Y2149
X17894Y2207
X8890Y5080
X12446Y1270
X33782Y9906
X31648Y9881
X37582Y6429
X41887Y6256
X41882Y5159
X45476Y8374
X46302Y1730
X29835Y5951
X29827Y7531
X31720Y1252
X34006Y1252
X31852Y6248
X40691Y2743
X42621Y2794
X39421Y711
X37643Y711
X42644Y4143
X40160Y9050
X41514Y8644
X43056Y11412
X44097Y12098
X49939Y7018
X49939Y3462
X43485Y9601
X42746Y714
X46683Y714
X29261Y11125
X40119Y6642
X37363Y2540
X38887Y2540
X44841Y6088
X44841Y4310
X48161Y12098
X31674Y7061
X49096Y841
X33833Y12014
X46048Y6683
X48161Y5875
X35690Y7932
X28702Y8103
X38837Y11481
X39522Y2515
X47089Y8517
X32436Y7112
X36576Y9144
X38329Y9169
X35367Y6289
X34976Y5872
X35377Y5034
X45712Y2149
X43802Y2207
X34798Y5080
X38354Y1270
X59690Y9906
X57556Y9881
X63490Y6429
X109576Y59080
T4
X85430Y32327
X59873Y32327
X59522Y32680
X59522Y32327
X33965Y32327
X33614Y32680
X33614Y32327
X8057Y32327
X7706Y32680
X7706Y32327
X111689Y19119
X111338Y19472
X111338Y19119
X85781Y19119
X85430Y19472
X85430Y19119
X59873Y19119
X59522Y19472
X59522Y19119
X33965Y19119
X33614Y19472
X33614Y19119
X8057Y19119
X7706Y19472
X7706Y19119
X111689Y5911
X111338Y6264
X111338Y5911
X85781Y5911
X85430Y6264
X85430Y5911
X59873Y5911
X59522Y6264
X59522Y5911
X33965Y5911
X33614Y6264
X33614Y5911
X8057Y5911
X7706Y6264
X7706Y5911
X8057Y45535
X85430Y59096
X111338Y45888
X111338Y32680
X33614Y59096
X111689Y32327
X59522Y59096
X33614Y45535
X8057Y58743
X7706Y45888
X85781Y32327
X85781Y58743
X33614Y58743
X85781Y45535
X111338Y58743
X33614Y45888
X59873Y45535
X33965Y58743
X59873Y58743
X111338Y45535
X111689Y45535
X85430Y58743
X59522Y58743
X33965Y45535
X111338Y59096
X111338Y32327
X7706Y58743
X85430Y32680
X85430Y45535
X7706Y59096
X85430Y45888
X59522Y45888
X7706Y45535
X59522Y45535
X111689Y58743
M30