G04 EAGLE Gerber RS-274X export*
G75*
%MOMM*%
%FSLAX34Y34*%
%LPD*%
%INSoldermask Top*%
%IPPOS*%
%AMOC8*
5,1,8,0,0,1.08239X$1,22.5*%
G01*
%ADD10R,0.603200X1.303200*%
%ADD11C,0.200000*%
%ADD12R,1.203200X2.003200*%
%ADD13R,1.203200X1.303200*%
%ADD14R,0.803200X0.803200*%
%ADD15R,1.303200X1.203200*%
%ADD16R,1.003200X1.403200*%
%ADD17R,2.003200X1.003200*%
%ADD18R,1.403200X2.203200*%
%ADD19R,0.803200X1.553200*%
%ADD20C,2.082800*%
%ADD21C,1.803200*%
%ADD22C,0.838200*%
%ADD23C,1.203200*%
%ADD24C,1.270000*%
%ADD25C,1.703200*%


D10*
X215490Y96160D03*
X208990Y96160D03*
X202490Y96160D03*
X195990Y96160D03*
X195990Y51160D03*
X202490Y51160D03*
X208990Y51160D03*
X215490Y51160D03*
D11*
X73560Y55640D03*
X73560Y59140D03*
X73560Y62640D03*
X73560Y66140D03*
X77060Y55640D03*
X77060Y59140D03*
X77060Y62640D03*
X77060Y66140D03*
X80560Y55640D03*
X80560Y59140D03*
X80560Y62640D03*
X80560Y66140D03*
X84060Y55640D03*
X84060Y59140D03*
X84060Y62640D03*
X84060Y66140D03*
D12*
X78286Y38100D03*
X53286Y38100D03*
D13*
X180340Y51680D03*
X180340Y34680D03*
D14*
X170311Y66904D03*
X180311Y66904D03*
D15*
X211700Y114300D03*
X194700Y114300D03*
D16*
X201820Y35560D03*
X219820Y35560D03*
D17*
X236220Y115680D03*
X236220Y97680D03*
D14*
X63805Y82427D03*
X63805Y92427D03*
D18*
X155000Y114728D03*
X99000Y114728D03*
D19*
X142000Y77978D03*
X132000Y77978D03*
X122000Y77978D03*
X112000Y77978D03*
D20*
X12700Y12700D03*
X12700Y38100D03*
X12700Y63500D03*
X12700Y88900D03*
X12700Y114300D03*
D14*
X73660Y82376D03*
X73660Y92376D03*
D18*
X99000Y14050D03*
X155000Y14050D03*
D19*
X112000Y50800D03*
X122000Y50800D03*
X132000Y50800D03*
X142000Y50800D03*
D21*
X66040Y114300D03*
D22*
X86944Y120828D03*
X246380Y7620D03*
D10*
X474570Y96160D03*
X468070Y96160D03*
X461570Y96160D03*
X455070Y96160D03*
X455070Y51160D03*
X461570Y51160D03*
X468070Y51160D03*
X474570Y51160D03*
D11*
X332640Y55640D03*
X332640Y59140D03*
X332640Y62640D03*
X332640Y66140D03*
X336140Y55640D03*
X336140Y59140D03*
X336140Y62640D03*
X336140Y66140D03*
X339640Y55640D03*
X339640Y59140D03*
X339640Y62640D03*
X339640Y66140D03*
X343140Y55640D03*
X343140Y59140D03*
X343140Y62640D03*
X343140Y66140D03*
D12*
X337366Y38100D03*
X312366Y38100D03*
D13*
X439420Y51680D03*
X439420Y34680D03*
D14*
X429391Y66904D03*
X439391Y66904D03*
D15*
X470780Y114300D03*
X453780Y114300D03*
D16*
X460900Y35560D03*
X478900Y35560D03*
D17*
X495300Y115680D03*
X495300Y97680D03*
D14*
X322885Y82427D03*
X322885Y92427D03*
D18*
X414080Y114728D03*
X358080Y114728D03*
D19*
X401080Y77978D03*
X391080Y77978D03*
X381080Y77978D03*
X371080Y77978D03*
D20*
X271780Y12700D03*
X271780Y38100D03*
X271780Y63500D03*
X271780Y88900D03*
X271780Y114300D03*
D14*
X332740Y82376D03*
X332740Y92376D03*
D18*
X358080Y14050D03*
X414080Y14050D03*
D19*
X371080Y50800D03*
X381080Y50800D03*
X391080Y50800D03*
X401080Y50800D03*
D21*
X325120Y114300D03*
D22*
X346024Y120828D03*
X505460Y7620D03*
D10*
X733650Y96160D03*
X727150Y96160D03*
X720650Y96160D03*
X714150Y96160D03*
X714150Y51160D03*
X720650Y51160D03*
X727150Y51160D03*
X733650Y51160D03*
D11*
X591720Y55640D03*
X591720Y59140D03*
X591720Y62640D03*
X591720Y66140D03*
X595220Y55640D03*
X595220Y59140D03*
X595220Y62640D03*
X595220Y66140D03*
X598720Y55640D03*
X598720Y59140D03*
X598720Y62640D03*
X598720Y66140D03*
X602220Y55640D03*
X602220Y59140D03*
X602220Y62640D03*
X602220Y66140D03*
D12*
X596446Y38100D03*
X571446Y38100D03*
D13*
X698500Y51680D03*
X698500Y34680D03*
D14*
X688471Y66904D03*
X698471Y66904D03*
D15*
X729860Y114300D03*
X712860Y114300D03*
D16*
X719980Y35560D03*
X737980Y35560D03*
D17*
X754380Y115680D03*
X754380Y97680D03*
D14*
X581965Y82427D03*
X581965Y92427D03*
D18*
X673160Y114728D03*
X617160Y114728D03*
D19*
X660160Y77978D03*
X650160Y77978D03*
X640160Y77978D03*
X630160Y77978D03*
D20*
X530860Y12700D03*
X530860Y38100D03*
X530860Y63500D03*
X530860Y88900D03*
X530860Y114300D03*
D14*
X591820Y82376D03*
X591820Y92376D03*
D18*
X617160Y14050D03*
X673160Y14050D03*
D19*
X630160Y50800D03*
X640160Y50800D03*
X650160Y50800D03*
X660160Y50800D03*
D21*
X584200Y114300D03*
D22*
X605104Y120828D03*
X764540Y7620D03*
D10*
X992730Y96160D03*
X986230Y96160D03*
X979730Y96160D03*
X973230Y96160D03*
X973230Y51160D03*
X979730Y51160D03*
X986230Y51160D03*
X992730Y51160D03*
D11*
X850800Y55640D03*
X850800Y59140D03*
X850800Y62640D03*
X850800Y66140D03*
X854300Y55640D03*
X854300Y59140D03*
X854300Y62640D03*
X854300Y66140D03*
X857800Y55640D03*
X857800Y59140D03*
X857800Y62640D03*
X857800Y66140D03*
X861300Y55640D03*
X861300Y59140D03*
X861300Y62640D03*
X861300Y66140D03*
D12*
X855526Y38100D03*
X830526Y38100D03*
D13*
X957580Y51680D03*
X957580Y34680D03*
D14*
X947551Y66904D03*
X957551Y66904D03*
D15*
X988940Y114300D03*
X971940Y114300D03*
D16*
X979060Y35560D03*
X997060Y35560D03*
D17*
X1013460Y115680D03*
X1013460Y97680D03*
D14*
X841045Y82427D03*
X841045Y92427D03*
D18*
X932240Y114728D03*
X876240Y114728D03*
D19*
X919240Y77978D03*
X909240Y77978D03*
X899240Y77978D03*
X889240Y77978D03*
D20*
X789940Y12700D03*
X789940Y38100D03*
X789940Y63500D03*
X789940Y88900D03*
X789940Y114300D03*
D14*
X850900Y82376D03*
X850900Y92376D03*
D18*
X876240Y14050D03*
X932240Y14050D03*
D19*
X889240Y50800D03*
X899240Y50800D03*
X909240Y50800D03*
X919240Y50800D03*
D21*
X843280Y114300D03*
D22*
X864184Y120828D03*
X1023620Y7620D03*
D10*
X1251810Y96160D03*
X1245310Y96160D03*
X1238810Y96160D03*
X1232310Y96160D03*
X1232310Y51160D03*
X1238810Y51160D03*
X1245310Y51160D03*
X1251810Y51160D03*
D11*
X1109880Y55640D03*
X1109880Y59140D03*
X1109880Y62640D03*
X1109880Y66140D03*
X1113380Y55640D03*
X1113380Y59140D03*
X1113380Y62640D03*
X1113380Y66140D03*
X1116880Y55640D03*
X1116880Y59140D03*
X1116880Y62640D03*
X1116880Y66140D03*
X1120380Y55640D03*
X1120380Y59140D03*
X1120380Y62640D03*
X1120380Y66140D03*
D12*
X1114606Y38100D03*
X1089606Y38100D03*
D13*
X1216660Y51680D03*
X1216660Y34680D03*
D14*
X1206631Y66904D03*
X1216631Y66904D03*
D15*
X1248020Y114300D03*
X1231020Y114300D03*
D16*
X1238140Y35560D03*
X1256140Y35560D03*
D17*
X1272540Y115680D03*
X1272540Y97680D03*
D14*
X1100125Y82427D03*
X1100125Y92427D03*
D18*
X1191320Y114728D03*
X1135320Y114728D03*
D19*
X1178320Y77978D03*
X1168320Y77978D03*
X1158320Y77978D03*
X1148320Y77978D03*
D20*
X1049020Y12700D03*
X1049020Y38100D03*
X1049020Y63500D03*
X1049020Y88900D03*
X1049020Y114300D03*
D14*
X1109980Y82376D03*
X1109980Y92376D03*
D18*
X1135320Y14050D03*
X1191320Y14050D03*
D19*
X1148320Y50800D03*
X1158320Y50800D03*
X1168320Y50800D03*
X1178320Y50800D03*
D21*
X1102360Y114300D03*
D22*
X1123264Y120828D03*
X1282700Y7620D03*
D10*
X215490Y228240D03*
X208990Y228240D03*
X202490Y228240D03*
X195990Y228240D03*
X195990Y183240D03*
X202490Y183240D03*
X208990Y183240D03*
X215490Y183240D03*
D11*
X73560Y187720D03*
X73560Y191220D03*
X73560Y194720D03*
X73560Y198220D03*
X77060Y187720D03*
X77060Y191220D03*
X77060Y194720D03*
X77060Y198220D03*
X80560Y187720D03*
X80560Y191220D03*
X80560Y194720D03*
X80560Y198220D03*
X84060Y187720D03*
X84060Y191220D03*
X84060Y194720D03*
X84060Y198220D03*
D12*
X78286Y170180D03*
X53286Y170180D03*
D13*
X180340Y183760D03*
X180340Y166760D03*
D14*
X170311Y198984D03*
X180311Y198984D03*
D15*
X211700Y246380D03*
X194700Y246380D03*
D16*
X201820Y167640D03*
X219820Y167640D03*
D17*
X236220Y247760D03*
X236220Y229760D03*
D14*
X63805Y214507D03*
X63805Y224507D03*
D18*
X155000Y246808D03*
X99000Y246808D03*
D19*
X142000Y210058D03*
X132000Y210058D03*
X122000Y210058D03*
X112000Y210058D03*
D20*
X12700Y144780D03*
X12700Y170180D03*
X12700Y195580D03*
X12700Y220980D03*
X12700Y246380D03*
D14*
X73660Y214456D03*
X73660Y224456D03*
D18*
X99000Y146130D03*
X155000Y146130D03*
D19*
X112000Y182880D03*
X122000Y182880D03*
X132000Y182880D03*
X142000Y182880D03*
D21*
X66040Y246380D03*
D22*
X86944Y252908D03*
X246380Y139700D03*
D10*
X474570Y228240D03*
X468070Y228240D03*
X461570Y228240D03*
X455070Y228240D03*
X455070Y183240D03*
X461570Y183240D03*
X468070Y183240D03*
X474570Y183240D03*
D11*
X332640Y187720D03*
X332640Y191220D03*
X332640Y194720D03*
X332640Y198220D03*
X336140Y187720D03*
X336140Y191220D03*
X336140Y194720D03*
X336140Y198220D03*
X339640Y187720D03*
X339640Y191220D03*
X339640Y194720D03*
X339640Y198220D03*
X343140Y187720D03*
X343140Y191220D03*
X343140Y194720D03*
X343140Y198220D03*
D12*
X337366Y170180D03*
X312366Y170180D03*
D13*
X439420Y183760D03*
X439420Y166760D03*
D14*
X429391Y198984D03*
X439391Y198984D03*
D15*
X470780Y246380D03*
X453780Y246380D03*
D16*
X460900Y167640D03*
X478900Y167640D03*
D17*
X495300Y247760D03*
X495300Y229760D03*
D14*
X322885Y214507D03*
X322885Y224507D03*
D18*
X414080Y246808D03*
X358080Y246808D03*
D19*
X401080Y210058D03*
X391080Y210058D03*
X381080Y210058D03*
X371080Y210058D03*
D20*
X271780Y144780D03*
X271780Y170180D03*
X271780Y195580D03*
X271780Y220980D03*
X271780Y246380D03*
D14*
X332740Y214456D03*
X332740Y224456D03*
D18*
X358080Y146130D03*
X414080Y146130D03*
D19*
X371080Y182880D03*
X381080Y182880D03*
X391080Y182880D03*
X401080Y182880D03*
D21*
X325120Y246380D03*
D22*
X346024Y252908D03*
X505460Y139700D03*
D10*
X733650Y228240D03*
X727150Y228240D03*
X720650Y228240D03*
X714150Y228240D03*
X714150Y183240D03*
X720650Y183240D03*
X727150Y183240D03*
X733650Y183240D03*
D11*
X591720Y187720D03*
X591720Y191220D03*
X591720Y194720D03*
X591720Y198220D03*
X595220Y187720D03*
X595220Y191220D03*
X595220Y194720D03*
X595220Y198220D03*
X598720Y187720D03*
X598720Y191220D03*
X598720Y194720D03*
X598720Y198220D03*
X602220Y187720D03*
X602220Y191220D03*
X602220Y194720D03*
X602220Y198220D03*
D12*
X596446Y170180D03*
X571446Y170180D03*
D13*
X698500Y183760D03*
X698500Y166760D03*
D14*
X688471Y198984D03*
X698471Y198984D03*
D15*
X729860Y246380D03*
X712860Y246380D03*
D16*
X719980Y167640D03*
X737980Y167640D03*
D17*
X754380Y247760D03*
X754380Y229760D03*
D14*
X581965Y214507D03*
X581965Y224507D03*
D18*
X673160Y246808D03*
X617160Y246808D03*
D19*
X660160Y210058D03*
X650160Y210058D03*
X640160Y210058D03*
X630160Y210058D03*
D20*
X530860Y144780D03*
X530860Y170180D03*
X530860Y195580D03*
X530860Y220980D03*
X530860Y246380D03*
D14*
X591820Y214456D03*
X591820Y224456D03*
D18*
X617160Y146130D03*
X673160Y146130D03*
D19*
X630160Y182880D03*
X640160Y182880D03*
X650160Y182880D03*
X660160Y182880D03*
D21*
X584200Y246380D03*
D22*
X605104Y252908D03*
X764540Y139700D03*
D10*
X992730Y228240D03*
X986230Y228240D03*
X979730Y228240D03*
X973230Y228240D03*
X973230Y183240D03*
X979730Y183240D03*
X986230Y183240D03*
X992730Y183240D03*
D11*
X850800Y187720D03*
X850800Y191220D03*
X850800Y194720D03*
X850800Y198220D03*
X854300Y187720D03*
X854300Y191220D03*
X854300Y194720D03*
X854300Y198220D03*
X857800Y187720D03*
X857800Y191220D03*
X857800Y194720D03*
X857800Y198220D03*
X861300Y187720D03*
X861300Y191220D03*
X861300Y194720D03*
X861300Y198220D03*
D12*
X855526Y170180D03*
X830526Y170180D03*
D13*
X957580Y183760D03*
X957580Y166760D03*
D14*
X947551Y198984D03*
X957551Y198984D03*
D15*
X988940Y246380D03*
X971940Y246380D03*
D16*
X979060Y167640D03*
X997060Y167640D03*
D17*
X1013460Y247760D03*
X1013460Y229760D03*
D14*
X841045Y214507D03*
X841045Y224507D03*
D18*
X932240Y246808D03*
X876240Y246808D03*
D19*
X919240Y210058D03*
X909240Y210058D03*
X899240Y210058D03*
X889240Y210058D03*
D20*
X789940Y144780D03*
X789940Y170180D03*
X789940Y195580D03*
X789940Y220980D03*
X789940Y246380D03*
D14*
X850900Y214456D03*
X850900Y224456D03*
D18*
X876240Y146130D03*
X932240Y146130D03*
D19*
X889240Y182880D03*
X899240Y182880D03*
X909240Y182880D03*
X919240Y182880D03*
D21*
X843280Y246380D03*
D22*
X864184Y252908D03*
X1023620Y139700D03*
D10*
X1251810Y228240D03*
X1245310Y228240D03*
X1238810Y228240D03*
X1232310Y228240D03*
X1232310Y183240D03*
X1238810Y183240D03*
X1245310Y183240D03*
X1251810Y183240D03*
D11*
X1109880Y187720D03*
X1109880Y191220D03*
X1109880Y194720D03*
X1109880Y198220D03*
X1113380Y187720D03*
X1113380Y191220D03*
X1113380Y194720D03*
X1113380Y198220D03*
X1116880Y187720D03*
X1116880Y191220D03*
X1116880Y194720D03*
X1116880Y198220D03*
X1120380Y187720D03*
X1120380Y191220D03*
X1120380Y194720D03*
X1120380Y198220D03*
D12*
X1114606Y170180D03*
X1089606Y170180D03*
D13*
X1216660Y183760D03*
X1216660Y166760D03*
D14*
X1206631Y198984D03*
X1216631Y198984D03*
D15*
X1248020Y246380D03*
X1231020Y246380D03*
D16*
X1238140Y167640D03*
X1256140Y167640D03*
D17*
X1272540Y247760D03*
X1272540Y229760D03*
D14*
X1100125Y214507D03*
X1100125Y224507D03*
D18*
X1191320Y246808D03*
X1135320Y246808D03*
D19*
X1178320Y210058D03*
X1168320Y210058D03*
X1158320Y210058D03*
X1148320Y210058D03*
D20*
X1049020Y144780D03*
X1049020Y170180D03*
X1049020Y195580D03*
X1049020Y220980D03*
X1049020Y246380D03*
D14*
X1109980Y214456D03*
X1109980Y224456D03*
D18*
X1135320Y146130D03*
X1191320Y146130D03*
D19*
X1148320Y182880D03*
X1158320Y182880D03*
X1168320Y182880D03*
X1178320Y182880D03*
D21*
X1102360Y246380D03*
D22*
X1123264Y252908D03*
X1282700Y139700D03*
D10*
X215490Y360320D03*
X208990Y360320D03*
X202490Y360320D03*
X195990Y360320D03*
X195990Y315320D03*
X202490Y315320D03*
X208990Y315320D03*
X215490Y315320D03*
D11*
X73560Y319800D03*
X73560Y323300D03*
X73560Y326800D03*
X73560Y330300D03*
X77060Y319800D03*
X77060Y323300D03*
X77060Y326800D03*
X77060Y330300D03*
X80560Y319800D03*
X80560Y323300D03*
X80560Y326800D03*
X80560Y330300D03*
X84060Y319800D03*
X84060Y323300D03*
X84060Y326800D03*
X84060Y330300D03*
D12*
X78286Y302260D03*
X53286Y302260D03*
D13*
X180340Y315840D03*
X180340Y298840D03*
D14*
X170311Y331064D03*
X180311Y331064D03*
D15*
X211700Y378460D03*
X194700Y378460D03*
D16*
X201820Y299720D03*
X219820Y299720D03*
D17*
X236220Y379840D03*
X236220Y361840D03*
D14*
X63805Y346587D03*
X63805Y356587D03*
D18*
X155000Y378888D03*
X99000Y378888D03*
D19*
X142000Y342138D03*
X132000Y342138D03*
X122000Y342138D03*
X112000Y342138D03*
D20*
X12700Y276860D03*
X12700Y302260D03*
X12700Y327660D03*
X12700Y353060D03*
X12700Y378460D03*
D14*
X73660Y346536D03*
X73660Y356536D03*
D18*
X99000Y278210D03*
X155000Y278210D03*
D19*
X112000Y314960D03*
X122000Y314960D03*
X132000Y314960D03*
X142000Y314960D03*
D21*
X66040Y378460D03*
D22*
X86944Y384988D03*
X246380Y271780D03*
D10*
X474570Y360320D03*
X468070Y360320D03*
X461570Y360320D03*
X455070Y360320D03*
X455070Y315320D03*
X461570Y315320D03*
X468070Y315320D03*
X474570Y315320D03*
D11*
X332640Y319800D03*
X332640Y323300D03*
X332640Y326800D03*
X332640Y330300D03*
X336140Y319800D03*
X336140Y323300D03*
X336140Y326800D03*
X336140Y330300D03*
X339640Y319800D03*
X339640Y323300D03*
X339640Y326800D03*
X339640Y330300D03*
X343140Y319800D03*
X343140Y323300D03*
X343140Y326800D03*
X343140Y330300D03*
D12*
X337366Y302260D03*
X312366Y302260D03*
D13*
X439420Y315840D03*
X439420Y298840D03*
D14*
X429391Y331064D03*
X439391Y331064D03*
D15*
X470780Y378460D03*
X453780Y378460D03*
D16*
X460900Y299720D03*
X478900Y299720D03*
D17*
X495300Y379840D03*
X495300Y361840D03*
D14*
X322885Y346587D03*
X322885Y356587D03*
D18*
X414080Y378888D03*
X358080Y378888D03*
D19*
X401080Y342138D03*
X391080Y342138D03*
X381080Y342138D03*
X371080Y342138D03*
D20*
X271780Y276860D03*
X271780Y302260D03*
X271780Y327660D03*
X271780Y353060D03*
X271780Y378460D03*
D14*
X332740Y346536D03*
X332740Y356536D03*
D18*
X358080Y278210D03*
X414080Y278210D03*
D19*
X371080Y314960D03*
X381080Y314960D03*
X391080Y314960D03*
X401080Y314960D03*
D21*
X325120Y378460D03*
D22*
X346024Y384988D03*
X505460Y271780D03*
D10*
X733650Y360320D03*
X727150Y360320D03*
X720650Y360320D03*
X714150Y360320D03*
X714150Y315320D03*
X720650Y315320D03*
X727150Y315320D03*
X733650Y315320D03*
D11*
X591720Y319800D03*
X591720Y323300D03*
X591720Y326800D03*
X591720Y330300D03*
X595220Y319800D03*
X595220Y323300D03*
X595220Y326800D03*
X595220Y330300D03*
X598720Y319800D03*
X598720Y323300D03*
X598720Y326800D03*
X598720Y330300D03*
X602220Y319800D03*
X602220Y323300D03*
X602220Y326800D03*
X602220Y330300D03*
D12*
X596446Y302260D03*
X571446Y302260D03*
D13*
X698500Y315840D03*
X698500Y298840D03*
D14*
X688471Y331064D03*
X698471Y331064D03*
D15*
X729860Y378460D03*
X712860Y378460D03*
D16*
X719980Y299720D03*
X737980Y299720D03*
D17*
X754380Y379840D03*
X754380Y361840D03*
D14*
X581965Y346587D03*
X581965Y356587D03*
D18*
X673160Y378888D03*
X617160Y378888D03*
D19*
X660160Y342138D03*
X650160Y342138D03*
X640160Y342138D03*
X630160Y342138D03*
D20*
X530860Y276860D03*
X530860Y302260D03*
X530860Y327660D03*
X530860Y353060D03*
X530860Y378460D03*
D14*
X591820Y346536D03*
X591820Y356536D03*
D18*
X617160Y278210D03*
X673160Y278210D03*
D19*
X630160Y314960D03*
X640160Y314960D03*
X650160Y314960D03*
X660160Y314960D03*
D21*
X584200Y378460D03*
D22*
X605104Y384988D03*
X764540Y271780D03*
D10*
X992730Y360320D03*
X986230Y360320D03*
X979730Y360320D03*
X973230Y360320D03*
X973230Y315320D03*
X979730Y315320D03*
X986230Y315320D03*
X992730Y315320D03*
D11*
X850800Y319800D03*
X850800Y323300D03*
X850800Y326800D03*
X850800Y330300D03*
X854300Y319800D03*
X854300Y323300D03*
X854300Y326800D03*
X854300Y330300D03*
X857800Y319800D03*
X857800Y323300D03*
X857800Y326800D03*
X857800Y330300D03*
X861300Y319800D03*
X861300Y323300D03*
X861300Y326800D03*
X861300Y330300D03*
D12*
X855526Y302260D03*
X830526Y302260D03*
D13*
X957580Y315840D03*
X957580Y298840D03*
D14*
X947551Y331064D03*
X957551Y331064D03*
D15*
X988940Y378460D03*
X971940Y378460D03*
D16*
X979060Y299720D03*
X997060Y299720D03*
D17*
X1013460Y379840D03*
X1013460Y361840D03*
D14*
X841045Y346587D03*
X841045Y356587D03*
D18*
X932240Y378888D03*
X876240Y378888D03*
D19*
X919240Y342138D03*
X909240Y342138D03*
X899240Y342138D03*
X889240Y342138D03*
D20*
X789940Y276860D03*
X789940Y302260D03*
X789940Y327660D03*
X789940Y353060D03*
X789940Y378460D03*
D14*
X850900Y346536D03*
X850900Y356536D03*
D18*
X876240Y278210D03*
X932240Y278210D03*
D19*
X889240Y314960D03*
X899240Y314960D03*
X909240Y314960D03*
X919240Y314960D03*
D21*
X843280Y378460D03*
D22*
X864184Y384988D03*
X1023620Y271780D03*
D10*
X1251810Y360320D03*
X1245310Y360320D03*
X1238810Y360320D03*
X1232310Y360320D03*
X1232310Y315320D03*
X1238810Y315320D03*
X1245310Y315320D03*
X1251810Y315320D03*
D11*
X1109880Y319800D03*
X1109880Y323300D03*
X1109880Y326800D03*
X1109880Y330300D03*
X1113380Y319800D03*
X1113380Y323300D03*
X1113380Y326800D03*
X1113380Y330300D03*
X1116880Y319800D03*
X1116880Y323300D03*
X1116880Y326800D03*
X1116880Y330300D03*
X1120380Y319800D03*
X1120380Y323300D03*
X1120380Y326800D03*
X1120380Y330300D03*
D12*
X1114606Y302260D03*
X1089606Y302260D03*
D13*
X1216660Y315840D03*
X1216660Y298840D03*
D14*
X1206631Y331064D03*
X1216631Y331064D03*
D15*
X1248020Y378460D03*
X1231020Y378460D03*
D16*
X1238140Y299720D03*
X1256140Y299720D03*
D17*
X1272540Y379840D03*
X1272540Y361840D03*
D14*
X1100125Y346587D03*
X1100125Y356587D03*
D18*
X1191320Y378888D03*
X1135320Y378888D03*
D19*
X1178320Y342138D03*
X1168320Y342138D03*
X1158320Y342138D03*
X1148320Y342138D03*
D20*
X1049020Y276860D03*
X1049020Y302260D03*
X1049020Y327660D03*
X1049020Y353060D03*
X1049020Y378460D03*
D14*
X1109980Y346536D03*
X1109980Y356536D03*
D18*
X1135320Y278210D03*
X1191320Y278210D03*
D19*
X1148320Y314960D03*
X1158320Y314960D03*
X1168320Y314960D03*
X1178320Y314960D03*
D21*
X1102360Y378460D03*
D22*
X1123264Y384988D03*
X1282700Y271780D03*
D10*
X215490Y492400D03*
X208990Y492400D03*
X202490Y492400D03*
X195990Y492400D03*
X195990Y447400D03*
X202490Y447400D03*
X208990Y447400D03*
X215490Y447400D03*
D11*
X73560Y451880D03*
X73560Y455380D03*
X73560Y458880D03*
X73560Y462380D03*
X77060Y451880D03*
X77060Y455380D03*
X77060Y458880D03*
X77060Y462380D03*
X80560Y451880D03*
X80560Y455380D03*
X80560Y458880D03*
X80560Y462380D03*
X84060Y451880D03*
X84060Y455380D03*
X84060Y458880D03*
X84060Y462380D03*
D12*
X78286Y434340D03*
X53286Y434340D03*
D13*
X180340Y447920D03*
X180340Y430920D03*
D14*
X170311Y463144D03*
X180311Y463144D03*
D15*
X211700Y510540D03*
X194700Y510540D03*
D16*
X201820Y431800D03*
X219820Y431800D03*
D17*
X236220Y511920D03*
X236220Y493920D03*
D14*
X63805Y478667D03*
X63805Y488667D03*
D18*
X155000Y510968D03*
X99000Y510968D03*
D19*
X142000Y474218D03*
X132000Y474218D03*
X122000Y474218D03*
X112000Y474218D03*
D20*
X12700Y408940D03*
X12700Y434340D03*
X12700Y459740D03*
X12700Y485140D03*
X12700Y510540D03*
D14*
X73660Y478616D03*
X73660Y488616D03*
D18*
X99000Y410290D03*
X155000Y410290D03*
D19*
X112000Y447040D03*
X122000Y447040D03*
X132000Y447040D03*
X142000Y447040D03*
D21*
X66040Y510540D03*
D22*
X86944Y517068D03*
X246380Y403860D03*
D10*
X474570Y492400D03*
X468070Y492400D03*
X461570Y492400D03*
X455070Y492400D03*
X455070Y447400D03*
X461570Y447400D03*
X468070Y447400D03*
X474570Y447400D03*
D11*
X332640Y451880D03*
X332640Y455380D03*
X332640Y458880D03*
X332640Y462380D03*
X336140Y451880D03*
X336140Y455380D03*
X336140Y458880D03*
X336140Y462380D03*
X339640Y451880D03*
X339640Y455380D03*
X339640Y458880D03*
X339640Y462380D03*
X343140Y451880D03*
X343140Y455380D03*
X343140Y458880D03*
X343140Y462380D03*
D12*
X337366Y434340D03*
X312366Y434340D03*
D13*
X439420Y447920D03*
X439420Y430920D03*
D14*
X429391Y463144D03*
X439391Y463144D03*
D15*
X470780Y510540D03*
X453780Y510540D03*
D16*
X460900Y431800D03*
X478900Y431800D03*
D17*
X495300Y511920D03*
X495300Y493920D03*
D14*
X322885Y478667D03*
X322885Y488667D03*
D18*
X414080Y510968D03*
X358080Y510968D03*
D19*
X401080Y474218D03*
X391080Y474218D03*
X381080Y474218D03*
X371080Y474218D03*
D20*
X271780Y408940D03*
X271780Y434340D03*
X271780Y459740D03*
X271780Y485140D03*
X271780Y510540D03*
D14*
X332740Y478616D03*
X332740Y488616D03*
D18*
X358080Y410290D03*
X414080Y410290D03*
D19*
X371080Y447040D03*
X381080Y447040D03*
X391080Y447040D03*
X401080Y447040D03*
D21*
X325120Y510540D03*
D22*
X346024Y517068D03*
X505460Y403860D03*
D10*
X733650Y492400D03*
X727150Y492400D03*
X720650Y492400D03*
X714150Y492400D03*
X714150Y447400D03*
X720650Y447400D03*
X727150Y447400D03*
X733650Y447400D03*
D11*
X591720Y451880D03*
X591720Y455380D03*
X591720Y458880D03*
X591720Y462380D03*
X595220Y451880D03*
X595220Y455380D03*
X595220Y458880D03*
X595220Y462380D03*
X598720Y451880D03*
X598720Y455380D03*
X598720Y458880D03*
X598720Y462380D03*
X602220Y451880D03*
X602220Y455380D03*
X602220Y458880D03*
X602220Y462380D03*
D12*
X596446Y434340D03*
X571446Y434340D03*
D13*
X698500Y447920D03*
X698500Y430920D03*
D14*
X688471Y463144D03*
X698471Y463144D03*
D15*
X729860Y510540D03*
X712860Y510540D03*
D16*
X719980Y431800D03*
X737980Y431800D03*
D17*
X754380Y511920D03*
X754380Y493920D03*
D14*
X581965Y478667D03*
X581965Y488667D03*
D18*
X673160Y510968D03*
X617160Y510968D03*
D19*
X660160Y474218D03*
X650160Y474218D03*
X640160Y474218D03*
X630160Y474218D03*
D20*
X530860Y408940D03*
X530860Y434340D03*
X530860Y459740D03*
X530860Y485140D03*
X530860Y510540D03*
D14*
X591820Y478616D03*
X591820Y488616D03*
D18*
X617160Y410290D03*
X673160Y410290D03*
D19*
X630160Y447040D03*
X640160Y447040D03*
X650160Y447040D03*
X660160Y447040D03*
D21*
X584200Y510540D03*
D22*
X605104Y517068D03*
X764540Y403860D03*
D10*
X992730Y492400D03*
X986230Y492400D03*
X979730Y492400D03*
X973230Y492400D03*
X973230Y447400D03*
X979730Y447400D03*
X986230Y447400D03*
X992730Y447400D03*
D11*
X850800Y451880D03*
X850800Y455380D03*
X850800Y458880D03*
X850800Y462380D03*
X854300Y451880D03*
X854300Y455380D03*
X854300Y458880D03*
X854300Y462380D03*
X857800Y451880D03*
X857800Y455380D03*
X857800Y458880D03*
X857800Y462380D03*
X861300Y451880D03*
X861300Y455380D03*
X861300Y458880D03*
X861300Y462380D03*
D12*
X855526Y434340D03*
X830526Y434340D03*
D13*
X957580Y447920D03*
X957580Y430920D03*
D14*
X947551Y463144D03*
X957551Y463144D03*
D15*
X988940Y510540D03*
X971940Y510540D03*
D16*
X979060Y431800D03*
X997060Y431800D03*
D17*
X1013460Y511920D03*
X1013460Y493920D03*
D14*
X841045Y478667D03*
X841045Y488667D03*
D18*
X932240Y510968D03*
X876240Y510968D03*
D19*
X919240Y474218D03*
X909240Y474218D03*
X899240Y474218D03*
X889240Y474218D03*
D20*
X789940Y408940D03*
X789940Y434340D03*
X789940Y459740D03*
X789940Y485140D03*
X789940Y510540D03*
D14*
X850900Y478616D03*
X850900Y488616D03*
D18*
X876240Y410290D03*
X932240Y410290D03*
D19*
X889240Y447040D03*
X899240Y447040D03*
X909240Y447040D03*
X919240Y447040D03*
D21*
X843280Y510540D03*
D22*
X864184Y517068D03*
X1023620Y403860D03*
D10*
X1251810Y492400D03*
X1245310Y492400D03*
X1238810Y492400D03*
X1232310Y492400D03*
X1232310Y447400D03*
X1238810Y447400D03*
X1245310Y447400D03*
X1251810Y447400D03*
D11*
X1109880Y451880D03*
X1109880Y455380D03*
X1109880Y458880D03*
X1109880Y462380D03*
X1113380Y451880D03*
X1113380Y455380D03*
X1113380Y458880D03*
X1113380Y462380D03*
X1116880Y451880D03*
X1116880Y455380D03*
X1116880Y458880D03*
X1116880Y462380D03*
X1120380Y451880D03*
X1120380Y455380D03*
X1120380Y458880D03*
X1120380Y462380D03*
D12*
X1114606Y434340D03*
X1089606Y434340D03*
D13*
X1216660Y447920D03*
X1216660Y430920D03*
D14*
X1206631Y463144D03*
X1216631Y463144D03*
D15*
X1248020Y510540D03*
X1231020Y510540D03*
D16*
X1238140Y431800D03*
X1256140Y431800D03*
D17*
X1272540Y511920D03*
X1272540Y493920D03*
D14*
X1100125Y478667D03*
X1100125Y488667D03*
D18*
X1191320Y510968D03*
X1135320Y510968D03*
D19*
X1178320Y474218D03*
X1168320Y474218D03*
X1158320Y474218D03*
X1148320Y474218D03*
D20*
X1049020Y408940D03*
X1049020Y434340D03*
X1049020Y459740D03*
X1049020Y485140D03*
X1049020Y510540D03*
D14*
X1109980Y478616D03*
X1109980Y488616D03*
D18*
X1135320Y410290D03*
X1191320Y410290D03*
D19*
X1148320Y447040D03*
X1158320Y447040D03*
X1168320Y447040D03*
X1178320Y447040D03*
D21*
X1102360Y510540D03*
D22*
X1123264Y517068D03*
X1282700Y403860D03*
D10*
X215490Y624480D03*
X208990Y624480D03*
X202490Y624480D03*
X195990Y624480D03*
X195990Y579480D03*
X202490Y579480D03*
X208990Y579480D03*
X215490Y579480D03*
D11*
X73560Y583960D03*
X73560Y587460D03*
X73560Y590960D03*
X73560Y594460D03*
X77060Y583960D03*
X77060Y587460D03*
X77060Y590960D03*
X77060Y594460D03*
X80560Y583960D03*
X80560Y587460D03*
X80560Y590960D03*
X80560Y594460D03*
X84060Y583960D03*
X84060Y587460D03*
X84060Y590960D03*
X84060Y594460D03*
D12*
X78286Y566420D03*
X53286Y566420D03*
D13*
X180340Y580000D03*
X180340Y563000D03*
D14*
X170311Y595224D03*
X180311Y595224D03*
D15*
X211700Y642620D03*
X194700Y642620D03*
D16*
X201820Y563880D03*
X219820Y563880D03*
D17*
X236220Y644000D03*
X236220Y626000D03*
D14*
X63805Y610747D03*
X63805Y620747D03*
D18*
X155000Y643048D03*
X99000Y643048D03*
D19*
X142000Y606298D03*
X132000Y606298D03*
X122000Y606298D03*
X112000Y606298D03*
D20*
X12700Y541020D03*
X12700Y566420D03*
X12700Y591820D03*
X12700Y617220D03*
X12700Y642620D03*
D14*
X73660Y610696D03*
X73660Y620696D03*
D18*
X99000Y542370D03*
X155000Y542370D03*
D19*
X112000Y579120D03*
X122000Y579120D03*
X132000Y579120D03*
X142000Y579120D03*
D21*
X66040Y642620D03*
D22*
X86944Y649148D03*
X246380Y535940D03*
D10*
X474570Y624480D03*
X468070Y624480D03*
X461570Y624480D03*
X455070Y624480D03*
X455070Y579480D03*
X461570Y579480D03*
X468070Y579480D03*
X474570Y579480D03*
D11*
X332640Y583960D03*
X332640Y587460D03*
X332640Y590960D03*
X332640Y594460D03*
X336140Y583960D03*
X336140Y587460D03*
X336140Y590960D03*
X336140Y594460D03*
X339640Y583960D03*
X339640Y587460D03*
X339640Y590960D03*
X339640Y594460D03*
X343140Y583960D03*
X343140Y587460D03*
X343140Y590960D03*
X343140Y594460D03*
D12*
X337366Y566420D03*
X312366Y566420D03*
D13*
X439420Y580000D03*
X439420Y563000D03*
D14*
X429391Y595224D03*
X439391Y595224D03*
D15*
X470780Y642620D03*
X453780Y642620D03*
D16*
X460900Y563880D03*
X478900Y563880D03*
D17*
X495300Y644000D03*
X495300Y626000D03*
D14*
X322885Y610747D03*
X322885Y620747D03*
D18*
X414080Y643048D03*
X358080Y643048D03*
D19*
X401080Y606298D03*
X391080Y606298D03*
X381080Y606298D03*
X371080Y606298D03*
D20*
X271780Y541020D03*
X271780Y566420D03*
X271780Y591820D03*
X271780Y617220D03*
X271780Y642620D03*
D14*
X332740Y610696D03*
X332740Y620696D03*
D18*
X358080Y542370D03*
X414080Y542370D03*
D19*
X371080Y579120D03*
X381080Y579120D03*
X391080Y579120D03*
X401080Y579120D03*
D21*
X325120Y642620D03*
D22*
X346024Y649148D03*
X505460Y535940D03*
D10*
X733650Y624480D03*
X727150Y624480D03*
X720650Y624480D03*
X714150Y624480D03*
X714150Y579480D03*
X720650Y579480D03*
X727150Y579480D03*
X733650Y579480D03*
D11*
X591720Y583960D03*
X591720Y587460D03*
X591720Y590960D03*
X591720Y594460D03*
X595220Y583960D03*
X595220Y587460D03*
X595220Y590960D03*
X595220Y594460D03*
X598720Y583960D03*
X598720Y587460D03*
X598720Y590960D03*
X598720Y594460D03*
X602220Y583960D03*
X602220Y587460D03*
X602220Y590960D03*
X602220Y594460D03*
D12*
X596446Y566420D03*
X571446Y566420D03*
D13*
X698500Y580000D03*
X698500Y563000D03*
D14*
X688471Y595224D03*
X698471Y595224D03*
D15*
X729860Y642620D03*
X712860Y642620D03*
D16*
X719980Y563880D03*
X737980Y563880D03*
D17*
X754380Y644000D03*
X754380Y626000D03*
D14*
X581965Y610747D03*
X581965Y620747D03*
D18*
X673160Y643048D03*
X617160Y643048D03*
D19*
X660160Y606298D03*
X650160Y606298D03*
X640160Y606298D03*
X630160Y606298D03*
D20*
X530860Y541020D03*
X530860Y566420D03*
X530860Y591820D03*
X530860Y617220D03*
X530860Y642620D03*
D14*
X591820Y610696D03*
X591820Y620696D03*
D18*
X617160Y542370D03*
X673160Y542370D03*
D19*
X630160Y579120D03*
X640160Y579120D03*
X650160Y579120D03*
X660160Y579120D03*
D21*
X584200Y642620D03*
D22*
X605104Y649148D03*
X764540Y535940D03*
D10*
X992730Y624480D03*
X986230Y624480D03*
X979730Y624480D03*
X973230Y624480D03*
X973230Y579480D03*
X979730Y579480D03*
X986230Y579480D03*
X992730Y579480D03*
D11*
X850800Y583960D03*
X850800Y587460D03*
X850800Y590960D03*
X850800Y594460D03*
X854300Y583960D03*
X854300Y587460D03*
X854300Y590960D03*
X854300Y594460D03*
X857800Y583960D03*
X857800Y587460D03*
X857800Y590960D03*
X857800Y594460D03*
X861300Y583960D03*
X861300Y587460D03*
X861300Y590960D03*
X861300Y594460D03*
D12*
X855526Y566420D03*
X830526Y566420D03*
D13*
X957580Y580000D03*
X957580Y563000D03*
D14*
X947551Y595224D03*
X957551Y595224D03*
D15*
X988940Y642620D03*
X971940Y642620D03*
D16*
X979060Y563880D03*
X997060Y563880D03*
D17*
X1013460Y644000D03*
X1013460Y626000D03*
D14*
X841045Y610747D03*
X841045Y620747D03*
D18*
X932240Y643048D03*
X876240Y643048D03*
D19*
X919240Y606298D03*
X909240Y606298D03*
X899240Y606298D03*
X889240Y606298D03*
D20*
X789940Y541020D03*
X789940Y566420D03*
X789940Y591820D03*
X789940Y617220D03*
X789940Y642620D03*
D14*
X850900Y610696D03*
X850900Y620696D03*
D18*
X876240Y542370D03*
X932240Y542370D03*
D19*
X889240Y579120D03*
X899240Y579120D03*
X909240Y579120D03*
X919240Y579120D03*
D21*
X843280Y642620D03*
D22*
X864184Y649148D03*
X1023620Y535940D03*
D10*
X1251810Y624480D03*
X1245310Y624480D03*
X1238810Y624480D03*
X1232310Y624480D03*
X1232310Y579480D03*
X1238810Y579480D03*
X1245310Y579480D03*
X1251810Y579480D03*
D11*
X1109880Y583960D03*
X1109880Y587460D03*
X1109880Y590960D03*
X1109880Y594460D03*
X1113380Y583960D03*
X1113380Y587460D03*
X1113380Y590960D03*
X1113380Y594460D03*
X1116880Y583960D03*
X1116880Y587460D03*
X1116880Y590960D03*
X1116880Y594460D03*
X1120380Y583960D03*
X1120380Y587460D03*
X1120380Y590960D03*
X1120380Y594460D03*
D12*
X1114606Y566420D03*
X1089606Y566420D03*
D13*
X1216660Y580000D03*
X1216660Y563000D03*
D14*
X1206631Y595224D03*
X1216631Y595224D03*
D15*
X1248020Y642620D03*
X1231020Y642620D03*
D16*
X1238140Y563880D03*
X1256140Y563880D03*
D17*
X1272540Y644000D03*
X1272540Y626000D03*
D14*
X1100125Y610747D03*
X1100125Y620747D03*
D18*
X1191320Y643048D03*
X1135320Y643048D03*
D19*
X1178320Y606298D03*
X1168320Y606298D03*
X1158320Y606298D03*
X1148320Y606298D03*
D20*
X1049020Y541020D03*
X1049020Y566420D03*
X1049020Y591820D03*
X1049020Y617220D03*
X1049020Y642620D03*
D14*
X1109980Y610696D03*
X1109980Y620696D03*
D18*
X1135320Y542370D03*
X1191320Y542370D03*
D19*
X1148320Y579120D03*
X1158320Y579120D03*
X1168320Y579120D03*
X1178320Y579120D03*
D21*
X1102360Y642620D03*
D22*
X1123264Y649148D03*
X1282700Y535940D03*
D23*
X-26238Y628650D03*
X1316558Y628650D03*
D24*
X-35293Y63500D02*
X-35290Y63722D01*
X-35282Y63944D01*
X-35268Y64166D01*
X-35249Y64388D01*
X-35225Y64608D01*
X-35195Y64829D01*
X-35160Y65048D01*
X-35119Y65267D01*
X-35073Y65484D01*
X-35022Y65700D01*
X-34965Y65915D01*
X-34903Y66129D01*
X-34836Y66340D01*
X-34764Y66551D01*
X-34686Y66759D01*
X-34604Y66965D01*
X-34516Y67169D01*
X-34424Y67372D01*
X-34326Y67571D01*
X-34224Y67768D01*
X-34117Y67963D01*
X-34005Y68155D01*
X-33888Y68344D01*
X-33767Y68531D01*
X-33641Y68714D01*
X-33511Y68894D01*
X-33376Y69071D01*
X-33238Y69244D01*
X-33095Y69414D01*
X-32947Y69581D01*
X-32796Y69744D01*
X-32641Y69903D01*
X-32482Y70058D01*
X-32319Y70209D01*
X-32152Y70357D01*
X-31982Y70500D01*
X-31809Y70638D01*
X-31632Y70773D01*
X-31452Y70903D01*
X-31269Y71029D01*
X-31082Y71150D01*
X-30893Y71267D01*
X-30701Y71379D01*
X-30506Y71486D01*
X-30309Y71588D01*
X-30110Y71686D01*
X-29907Y71778D01*
X-29703Y71866D01*
X-29497Y71948D01*
X-29289Y72026D01*
X-29078Y72098D01*
X-28867Y72165D01*
X-28653Y72227D01*
X-28438Y72284D01*
X-28222Y72335D01*
X-28005Y72381D01*
X-27786Y72422D01*
X-27567Y72457D01*
X-27346Y72487D01*
X-27126Y72511D01*
X-26904Y72530D01*
X-26682Y72544D01*
X-26460Y72552D01*
X-26238Y72555D01*
X-26016Y72552D01*
X-25794Y72544D01*
X-25572Y72530D01*
X-25350Y72511D01*
X-25130Y72487D01*
X-24909Y72457D01*
X-24690Y72422D01*
X-24471Y72381D01*
X-24254Y72335D01*
X-24038Y72284D01*
X-23823Y72227D01*
X-23609Y72165D01*
X-23398Y72098D01*
X-23187Y72026D01*
X-22979Y71948D01*
X-22773Y71866D01*
X-22569Y71778D01*
X-22366Y71686D01*
X-22167Y71588D01*
X-21970Y71486D01*
X-21775Y71379D01*
X-21583Y71267D01*
X-21394Y71150D01*
X-21207Y71029D01*
X-21024Y70903D01*
X-20844Y70773D01*
X-20667Y70638D01*
X-20494Y70500D01*
X-20324Y70357D01*
X-20157Y70209D01*
X-19994Y70058D01*
X-19835Y69903D01*
X-19680Y69744D01*
X-19529Y69581D01*
X-19381Y69414D01*
X-19238Y69244D01*
X-19100Y69071D01*
X-18965Y68894D01*
X-18835Y68714D01*
X-18709Y68531D01*
X-18588Y68344D01*
X-18471Y68155D01*
X-18359Y67963D01*
X-18252Y67768D01*
X-18150Y67571D01*
X-18052Y67372D01*
X-17960Y67169D01*
X-17872Y66965D01*
X-17790Y66759D01*
X-17712Y66551D01*
X-17640Y66340D01*
X-17573Y66129D01*
X-17511Y65915D01*
X-17454Y65700D01*
X-17403Y65484D01*
X-17357Y65267D01*
X-17316Y65048D01*
X-17281Y64829D01*
X-17251Y64608D01*
X-17227Y64388D01*
X-17208Y64166D01*
X-17194Y63944D01*
X-17186Y63722D01*
X-17183Y63500D01*
X-17186Y63278D01*
X-17194Y63056D01*
X-17208Y62834D01*
X-17227Y62612D01*
X-17251Y62392D01*
X-17281Y62171D01*
X-17316Y61952D01*
X-17357Y61733D01*
X-17403Y61516D01*
X-17454Y61300D01*
X-17511Y61085D01*
X-17573Y60871D01*
X-17640Y60660D01*
X-17712Y60449D01*
X-17790Y60241D01*
X-17872Y60035D01*
X-17960Y59831D01*
X-18052Y59628D01*
X-18150Y59429D01*
X-18252Y59232D01*
X-18359Y59037D01*
X-18471Y58845D01*
X-18588Y58656D01*
X-18709Y58469D01*
X-18835Y58286D01*
X-18965Y58106D01*
X-19100Y57929D01*
X-19238Y57756D01*
X-19381Y57586D01*
X-19529Y57419D01*
X-19680Y57256D01*
X-19835Y57097D01*
X-19994Y56942D01*
X-20157Y56791D01*
X-20324Y56643D01*
X-20494Y56500D01*
X-20667Y56362D01*
X-20844Y56227D01*
X-21024Y56097D01*
X-21207Y55971D01*
X-21394Y55850D01*
X-21583Y55733D01*
X-21775Y55621D01*
X-21970Y55514D01*
X-22167Y55412D01*
X-22366Y55314D01*
X-22569Y55222D01*
X-22773Y55134D01*
X-22979Y55052D01*
X-23187Y54974D01*
X-23398Y54902D01*
X-23609Y54835D01*
X-23823Y54773D01*
X-24038Y54716D01*
X-24254Y54665D01*
X-24471Y54619D01*
X-24690Y54578D01*
X-24909Y54543D01*
X-25130Y54513D01*
X-25350Y54489D01*
X-25572Y54470D01*
X-25794Y54456D01*
X-26016Y54448D01*
X-26238Y54445D01*
X-26460Y54448D01*
X-26682Y54456D01*
X-26904Y54470D01*
X-27126Y54489D01*
X-27346Y54513D01*
X-27567Y54543D01*
X-27786Y54578D01*
X-28005Y54619D01*
X-28222Y54665D01*
X-28438Y54716D01*
X-28653Y54773D01*
X-28867Y54835D01*
X-29078Y54902D01*
X-29289Y54974D01*
X-29497Y55052D01*
X-29703Y55134D01*
X-29907Y55222D01*
X-30110Y55314D01*
X-30309Y55412D01*
X-30506Y55514D01*
X-30701Y55621D01*
X-30893Y55733D01*
X-31082Y55850D01*
X-31269Y55971D01*
X-31452Y56097D01*
X-31632Y56227D01*
X-31809Y56362D01*
X-31982Y56500D01*
X-32152Y56643D01*
X-32319Y56791D01*
X-32482Y56942D01*
X-32641Y57097D01*
X-32796Y57256D01*
X-32947Y57419D01*
X-33095Y57586D01*
X-33238Y57756D01*
X-33376Y57929D01*
X-33511Y58106D01*
X-33641Y58286D01*
X-33767Y58469D01*
X-33888Y58656D01*
X-34005Y58845D01*
X-34117Y59037D01*
X-34224Y59232D01*
X-34326Y59429D01*
X-34424Y59628D01*
X-34516Y59831D01*
X-34604Y60035D01*
X-34686Y60241D01*
X-34764Y60449D01*
X-34836Y60660D01*
X-34903Y60871D01*
X-34965Y61085D01*
X-35022Y61300D01*
X-35073Y61516D01*
X-35119Y61733D01*
X-35160Y61952D01*
X-35195Y62171D01*
X-35225Y62392D01*
X-35249Y62612D01*
X-35268Y62834D01*
X-35282Y63056D01*
X-35290Y63278D01*
X-35293Y63500D01*
D25*
X-26238Y63500D03*
M02*
