%
M48
M72
T01C0.0040
T02C0.0100
T03C0.0400
%
T01
X5909Y5202
X6047Y5202
X5909Y5341
X16109Y5341
X16109Y5202
X16247Y5202
X26309Y5202
X26447Y5202
X26309Y5341
X36509Y5341
X36509Y5202
X36647Y5202
X46709Y5202
X46847Y5202
X46709Y5341
X46709Y10402
X46847Y10402
X46709Y10541
X36647Y10402
X36509Y10402
X36509Y10541
X26447Y10402
X26309Y10402
X26309Y10541
X16247Y10402
X16109Y10402
X16109Y10541
X6047Y10402
X5909Y10402
X5909Y10541
X5909Y15602
X6047Y15602
X5909Y15741
X16109Y15741
X16109Y15602
X16247Y15602
X26309Y15602
X26447Y15602
X26309Y15741
X36509Y15741
X36509Y15602
X36647Y15602
X46709Y15602
X46847Y15602
X46709Y15741
X46709Y20802
X46847Y20802
X46709Y20941
X36647Y20802
X36509Y20802
X36509Y20941
X26447Y20802
X26309Y20802
X26309Y20941
X16247Y20802
X16109Y20802
X16109Y20941
X6047Y20802
X5909Y20802
X5909Y20941
T02
X6445Y20787
X6599Y20951
X7471Y21006
X8470Y21090
X9166Y20938
X9164Y20506
X9464Y20106
X9455Y19575
X9920Y19344
X10622Y19321
X11204Y19206
X11616Y19206
X12336Y19838
X10329Y20172
X10329Y20872
X10629Y21772
X11214Y21828
X12336Y21238
X14558Y21440
X15095Y21655
X15645Y21275
X15415Y20935
X15095Y20855
X14551Y20818
X16575Y20475
X16803Y20457
X16645Y20787
X16799Y20951
X17671Y21006
X18670Y21090
X19366Y20938
X19364Y20506
X19664Y20106
X19655Y19575
X20120Y19344
X20822Y19321
X21404Y19206
X21816Y19206
X22536Y19838
X20529Y20172
X20529Y20872
X20829Y21772
X21414Y21828
X22536Y21238
X24758Y21440
X25295Y21655
X25845Y21275
X25615Y20935
X25295Y20855
X24751Y20818
X26775Y20475
X27003Y20457
X26845Y20787
X26999Y20951
X27871Y21006
X28870Y21090
X29566Y20938
X29564Y20506
X29864Y20106
X29855Y19575
X30320Y19344
X31022Y19321
X31604Y19206
X32016Y19206
X32736Y19838
X30729Y20172
X30729Y20872
X31029Y21772
X31614Y21828
X32736Y21238
X34958Y21440
X35495Y21655
X36045Y21275
X35815Y20935
X35495Y20855
X34951Y20818
X36975Y20475
X37203Y20457
X37045Y20787
X37199Y20951
X38071Y21006
X39070Y21090
X39766Y20938
X40929Y20872
X39764Y20506
X40064Y20106
X40929Y20172
X40055Y19575
X40520Y19344
X41222Y19321
X41804Y19206
X42216Y19206
X42936Y19838
X45063Y19468
X45363Y18968
X45963Y18968
X46863Y18968
X48185Y19475
X48785Y19475
X49035Y19465
X49495Y19555
X50255Y19575
X50720Y19344
X51422Y19321
X52004Y19206
X52416Y19206
X53136Y19838
X51129Y20172
X50264Y20106
X49964Y20506
X51129Y20872
X49966Y20938
X49270Y21090
X48271Y21006
X47399Y20951
X47245Y20787
X47175Y20475
X47403Y20457
X47579Y20026
X46015Y20935
X45695Y20855
X45151Y20818
X45158Y21440
X45695Y21655
X46245Y21275
X47875Y22075
X48565Y22085
X49436Y22138
X49769Y21878
X50595Y22255
X50536Y22738
X50836Y23238
X52436Y23238
X52014Y21828
X51429Y21772
X53136Y21238
X48575Y18975
X48295Y18755
X48995Y18755
X50304Y18806
X50804Y18806
X50836Y18038
X50536Y17538
X50595Y17055
X49769Y16678
X49436Y16938
X48565Y16885
X47875Y16875
X47095Y16955
X46695Y17355
X45695Y16955
X45695Y16455
X45158Y16240
X45151Y15618
X45695Y15655
X46015Y15735
X46245Y16075
X47245Y15587
X47399Y15751
X47403Y15257
X47175Y15275
X47579Y14826
X48185Y14275
X48785Y14275
X49035Y14265
X49495Y14355
X50255Y14375
X50720Y14144
X51422Y14121
X52004Y14006
X52416Y14006
X53136Y14638
X53136Y16038
X52014Y16628
X51429Y16572
X51129Y15672
X49966Y15738
X49964Y15306
X50264Y14906
X51129Y14972
X49270Y15890
X48271Y15806
X45063Y14268
X45363Y13768
X45963Y13768
X46863Y13768
X48295Y13555
X48575Y13775
X48995Y13555
X50304Y13606
X50804Y13606
X50836Y12838
X50536Y12338
X50595Y11855
X49769Y11478
X49436Y11738
X48565Y11685
X47875Y11675
X47095Y11755
X46695Y12155
X45695Y11755
X45695Y11255
X45158Y11040
X45151Y10418
X45695Y10455
X46015Y10535
X46245Y10875
X47245Y10387
X47399Y10551
X47403Y10057
X47175Y10075
X47579Y9626
X48185Y9075
X48785Y9075
X49035Y9065
X49495Y9155
X50255Y9175
X50720Y8944
X51422Y8921
X52004Y8806
X52416Y8806
X53136Y9438
X53136Y10838
X52014Y11428
X51429Y11372
X51129Y10472
X49966Y10538
X49964Y10106
X51129Y9772
X50264Y9706
X48575Y8575
X48295Y8355
X48995Y8355
X50304Y8406
X50804Y8406
X50836Y7638
X50536Y7138
X50595Y6655
X51429Y6172
X52014Y6228
X53136Y5638
X51129Y5272
X49966Y5338
X49964Y4906
X51129Y4572
X50264Y4506
X50255Y3975
X50720Y3744
X51422Y3721
X52004Y3606
X52416Y3606
X53136Y4238
X50804Y3206
X50304Y3206
X48995Y3155
X48575Y3375
X48295Y3155
X48185Y3875
X48785Y3875
X49035Y3865
X49495Y3955
X47579Y4426
X47403Y4857
X47175Y4875
X47245Y5187
X47399Y5351
X48271Y5406
X49270Y5490
X49769Y6278
X49436Y6538
X48565Y6485
X47875Y6475
X47095Y6555
X46695Y6955
X45695Y6555
X45695Y6055
X45158Y5840
X45151Y5218
X45695Y5255
X46015Y5335
X46245Y5675
X44995Y7255
X42236Y7638
X40636Y7638
X40336Y7138
X40395Y6655
X41229Y6172
X41814Y6228
X42936Y5638
X40929Y5272
X39766Y5338
X39764Y4906
X40929Y4572
X40064Y4506
X40055Y3975
X40520Y3744
X41222Y3721
X41804Y3606
X42216Y3606
X42936Y4238
X45063Y3868
X45363Y3368
X45963Y3368
X46863Y3368
X40604Y3206
X40104Y3206
X38795Y3155
X38375Y3375
X38095Y3155
X37985Y3875
X38585Y3875
X38835Y3865
X39295Y3955
X37379Y4426
X37203Y4857
X36975Y4875
X37045Y5187
X37199Y5351
X38071Y5406
X39070Y5490
X39569Y6278
X39236Y6538
X38365Y6485
X37675Y6475
X36895Y6555
X36495Y6955
X35495Y6555
X35495Y6055
X34958Y5840
X34951Y5218
X35495Y5255
X35815Y5335
X36045Y5675
X34795Y7255
X32036Y7638
X30436Y7638
X30136Y7138
X30195Y6655
X31029Y6172
X31614Y6228
X32736Y5638
X30729Y5272
X30729Y4572
X29864Y4506
X29855Y3975
X30320Y3744
X31022Y3721
X31604Y3606
X32016Y3606
X32736Y4238
X34863Y3868
X35163Y3368
X35763Y3368
X36663Y3368
X30404Y3206
X29904Y3206
X28595Y3155
X28175Y3375
X27895Y3155
X27785Y3875
X28385Y3875
X28635Y3865
X29095Y3955
X29564Y4906
X29566Y5338
X28870Y5490
X29369Y6278
X29036Y6538
X28165Y6485
X27475Y6475
X26695Y6555
X26295Y6955
X25295Y6555
X25295Y6055
X24758Y5840
X24751Y5218
X25295Y5255
X25615Y5335
X25845Y5675
X26845Y5187
X26999Y5351
X27003Y4857
X26775Y4875
X27179Y4426
X27871Y5406
X24663Y3868
X24963Y3368
X25563Y3368
X26463Y3368
X22536Y4238
X21816Y3606
X21404Y3606
X20822Y3721
X20120Y3744
X19655Y3975
X19664Y4506
X18895Y3955
X18435Y3865
X18185Y3875
X17975Y3375
X17695Y3155
X18395Y3155
X17585Y3875
X16979Y4426
X16803Y4857
X16575Y4875
X16645Y5187
X16799Y5351
X17671Y5406
X18670Y5490
X19366Y5338
X19364Y4906
X20529Y4572
X20529Y5272
X20829Y6172
X21414Y6228
X22536Y5638
X19995Y6655
X19936Y7138
X20236Y7638
X20204Y8406
X19704Y8406
X20120Y8944
X19655Y9175
X19664Y9706
X18895Y9155
X18435Y9065
X18185Y9075
X17975Y8575
X17695Y8355
X18395Y8355
X17585Y9075
X16979Y9626
X16803Y10057
X16575Y10075
X16645Y10387
X16799Y10551
X17671Y10606
X18670Y10690
X19366Y10538
X19364Y10106
X20529Y9772
X20529Y10472
X20829Y11372
X21414Y11428
X22536Y10838
X24758Y11040
X25295Y11255
X25295Y11755
X26295Y12155
X26695Y11755
X27475Y11675
X28165Y11685
X29036Y11738
X29369Y11478
X30195Y11855
X30136Y12338
X30436Y12838
X30404Y13606
X29904Y13606
X30320Y14144
X29855Y14375
X29095Y14355
X28635Y14265
X28385Y14275
X27785Y14275
X27179Y14826
X27003Y15257
X26775Y15275
X26845Y15587
X26999Y15751
X27871Y15806
X28870Y15890
X29566Y15738
X29564Y15306
X29864Y14906
X30729Y14972
X30729Y15672
X31029Y16572
X31614Y16628
X32736Y16038
X34958Y16240
X35495Y16455
X35495Y16955
X36495Y17355
X36895Y16955
X37675Y16875
X38365Y16885
X39236Y16938
X39569Y16678
X40395Y17055
X40336Y17538
X40636Y18038
X40604Y18806
X40104Y18806
X38795Y18755
X38375Y18975
X38095Y18755
X36663Y18968
X35763Y18968
X35163Y18968
X34863Y19468
X37379Y20026
X37985Y19475
X38585Y19475
X38835Y19465
X39295Y19555
X42236Y18038
X44995Y17655
X41814Y16628
X41229Y16572
X40929Y15672
X39766Y15738
X39764Y15306
X40064Y14906
X40929Y14972
X40055Y14375
X40520Y14144
X41222Y14121
X41804Y14006
X42216Y14006
X42936Y14638
X42936Y16038
X39070Y15890
X38071Y15806
X37199Y15751
X37045Y15587
X36975Y15275
X37203Y15257
X37379Y14826
X37985Y14275
X38585Y14275
X38835Y14265
X39295Y14355
X38375Y13775
X38095Y13555
X38795Y13555
X40104Y13606
X40604Y13606
X40636Y12838
X40336Y12338
X40395Y11855
X39569Y11478
X39236Y11738
X38365Y11685
X37675Y11675
X36895Y11755
X36495Y12155
X35495Y11755
X35495Y11255
X34958Y11040
X34951Y10418
X35495Y10455
X35815Y10535
X36045Y10875
X37045Y10387
X37199Y10551
X37203Y10057
X36975Y10075
X37379Y9626
X37985Y9075
X38585Y9075
X38835Y9065
X39295Y9155
X40055Y9175
X40520Y8944
X41222Y8921
X41804Y8806
X42216Y8806
X42936Y9438
X45063Y9068
X45363Y8568
X45963Y8568
X46863Y8568
X48271Y10606
X49270Y10690
X52436Y12838
X44995Y12455
X42236Y12838
X41814Y11428
X41229Y11372
X40929Y10472
X39766Y10538
X39764Y10106
X40929Y9772
X40064Y9706
X38375Y8575
X38095Y8355
X38795Y8355
X40104Y8406
X40604Y8406
X36663Y8568
X35763Y8568
X35163Y8568
X34863Y9068
X32736Y9438
X32016Y8806
X31604Y8806
X31022Y8921
X30320Y8944
X29855Y9175
X29864Y9706
X29095Y9155
X28635Y9065
X28385Y9075
X28175Y8575
X27895Y8355
X28595Y8355
X27785Y9075
X27179Y9626
X27003Y10057
X26775Y10075
X26845Y10387
X26999Y10551
X27871Y10606
X28870Y10690
X29566Y10538
X29564Y10106
X30729Y9772
X30729Y10472
X31029Y11372
X31614Y11428
X32736Y10838
X34795Y12455
X35163Y13768
X35763Y13768
X36663Y13768
X34863Y14268
X32736Y14638
X32016Y14006
X31604Y14006
X31022Y14121
X32036Y12838
X28595Y13555
X28175Y13775
X27895Y13555
X26463Y13768
X25563Y13768
X24963Y13768
X24663Y14268
X22536Y14638
X21816Y14006
X21404Y14006
X20822Y14121
X20120Y14144
X19655Y14375
X18895Y14355
X18435Y14265
X18185Y14275
X17585Y14275
X16979Y14826
X16803Y15257
X16575Y15275
X16645Y15587
X16799Y15751
X17671Y15806
X18670Y15890
X19366Y15738
X19364Y15306
X19664Y14906
X20529Y14972
X20529Y15672
X20829Y16572
X21414Y16628
X22536Y16038
X24758Y16240
X25295Y16455
X25295Y16955
X26295Y17355
X26695Y16955
X27475Y16875
X28165Y16885
X29036Y16938
X29369Y16678
X30195Y17055
X30136Y17538
X30436Y18038
X30404Y18806
X29904Y18806
X28595Y18755
X28175Y18975
X27895Y18755
X26463Y18968
X25563Y18968
X24963Y18968
X24663Y19468
X27179Y20026
X27785Y19475
X28385Y19475
X28635Y19465
X29095Y19555
X32036Y18038
X34795Y17655
X36045Y16075
X35815Y15735
X35495Y15655
X34951Y15618
X25845Y16075
X25615Y15735
X25295Y15655
X24751Y15618
X24595Y17655
X21836Y18038
X20236Y18038
X19936Y17538
X19995Y17055
X19169Y16678
X18836Y16938
X17965Y16885
X17275Y16875
X16495Y16955
X16095Y17355
X15095Y16955
X15095Y16455
X14558Y16240
X14551Y15618
X15095Y15655
X15415Y15735
X15645Y16075
X14463Y14268
X14763Y13768
X15363Y13768
X16263Y13768
X17695Y13555
X17975Y13775
X18395Y13555
X19704Y13606
X20204Y13606
X20236Y12838
X19936Y12338
X19995Y11855
X19169Y11478
X18836Y11738
X17965Y11685
X17275Y11675
X16495Y11755
X16095Y12155
X15095Y11755
X15095Y11255
X14558Y11040
X14551Y10418
X15095Y10455
X15415Y10535
X15645Y10875
X12336Y10838
X11214Y11428
X10629Y11372
X9795Y11855
X9736Y12338
X10036Y12838
X10004Y13606
X9504Y13606
X9920Y14144
X9455Y14375
X8695Y14355
X8235Y14265
X7985Y14275
X7385Y14275
X6779Y14826
X6603Y15257
X6375Y15275
X6445Y15587
X6599Y15751
X7471Y15806
X8470Y15890
X9166Y15738
X9164Y15306
X9464Y14906
X10329Y14972
X10329Y15672
X10629Y16572
X11214Y16628
X12336Y16038
X12336Y14638
X11616Y14006
X11204Y14006
X10622Y14121
X11636Y12838
X14395Y12455
X10329Y10472
X10329Y9772
X9464Y9706
X9455Y9175
X9920Y8944
X10622Y8921
X11204Y8806
X11616Y8806
X12336Y9438
X14463Y9068
X14763Y8568
X15363Y8568
X16263Y8568
X14395Y7255
X15095Y6555
X15095Y6055
X14558Y5840
X14551Y5218
X15095Y5255
X15415Y5335
X15645Y5675
X16495Y6555
X16095Y6955
X17275Y6475
X17965Y6485
X18836Y6538
X19169Y6278
X21836Y7638
X21816Y8806
X21404Y8806
X20822Y8921
X22536Y9438
X24663Y9068
X24963Y8568
X25563Y8568
X26463Y8568
X24595Y7255
X29904Y8406
X30404Y8406
X25615Y10535
X25295Y10455
X24751Y10418
X25845Y10875
X24595Y12455
X21836Y12838
X14395Y17655
X14763Y18968
X15363Y18968
X16263Y18968
X17585Y19475
X18185Y19475
X18435Y19465
X18895Y19555
X17975Y18975
X17695Y18755
X18395Y18755
X19704Y18806
X20204Y18806
X16979Y20026
X14463Y19468
X11636Y18038
X10036Y18038
X9736Y17538
X9795Y17055
X8969Y16678
X8636Y16938
X7765Y16885
X7075Y16875
X6295Y16955
X5895Y17355
X4895Y16955
X4895Y16455
X4358Y16240
X4351Y15618
X4895Y15655
X5215Y15735
X5445Y16075
X4263Y14268
X4563Y13768
X5163Y13768
X6063Y13768
X7495Y13555
X7775Y13775
X8195Y13555
X5895Y12155
X6295Y11755
X7075Y11675
X7765Y11685
X8636Y11738
X8969Y11478
X8470Y10690
X9166Y10538
X9164Y10106
X8695Y9155
X8235Y9065
X7985Y9075
X7775Y8575
X7495Y8355
X8195Y8355
X7385Y9075
X6779Y9626
X6603Y10057
X6375Y10075
X6445Y10387
X6599Y10551
X7471Y10606
X5445Y10875
X5215Y10535
X4895Y10455
X4351Y10418
X4358Y11040
X4895Y11255
X4895Y11755
X4195Y12455
X4263Y9068
X4563Y8568
X5163Y8568
X6063Y8568
X4195Y7255
X4895Y6555
X4895Y6055
X4358Y5840
X4351Y5218
X4895Y5255
X5215Y5335
X5445Y5675
X6445Y5187
X6599Y5351
X6603Y4857
X6375Y4875
X6779Y4426
X7385Y3875
X7985Y3875
X8235Y3865
X8695Y3955
X9455Y3975
X9920Y3744
X10622Y3721
X11204Y3606
X11616Y3606
X12336Y4238
X10329Y4572
X10329Y5272
X9166Y5338
X9164Y4906
X9464Y4506
X7775Y3375
X7495Y3155
X8195Y3155
X9504Y3206
X10004Y3206
X6063Y3368
X5163Y3368
X4563Y3368
X4263Y3868
X7471Y5406
X8470Y5490
X8969Y6278
X8636Y6538
X7765Y6485
X7075Y6475
X6295Y6555
X5895Y6955
X9504Y8406
X10004Y8406
X10036Y7638
X9736Y7138
X9795Y6655
X10629Y6172
X11214Y6228
X12336Y5638
X14463Y3868
X14763Y3368
X15363Y3368
X16263Y3368
X19704Y3206
X20204Y3206
X11636Y7638
X4195Y17655
X4563Y18968
X5163Y18968
X6063Y18968
X7385Y19475
X7985Y19475
X8235Y19465
X8695Y19555
X7775Y18975
X7495Y18755
X8195Y18755
X9504Y18806
X10004Y18806
X6779Y20026
X6603Y20457
X6375Y20475
X5215Y20935
X4895Y20855
X4351Y20818
X4358Y21440
X4895Y21655
X5445Y21275
X4895Y22155
X4195Y22855
X5895Y22555
X6295Y22155
X7075Y22075
X7765Y22085
X8636Y22138
X8969Y21878
X9795Y22255
X9736Y22738
X10036Y23238
X11636Y23238
X14395Y22855
X15095Y22155
X16095Y22555
X16495Y22155
X17275Y22075
X17965Y22085
X18836Y22138
X19169Y21878
X19995Y22255
X19936Y22738
X20236Y23238
X21836Y23238
X24595Y22855
X25295Y22155
X26295Y22555
X26695Y22155
X27475Y22075
X28165Y22085
X29036Y22138
X29369Y21878
X30195Y22255
X30136Y22738
X30436Y23238
X32036Y23238
X34795Y22855
X35495Y22155
X36495Y22555
X36895Y22155
X37675Y22075
X38365Y22085
X39236Y22138
X39569Y21878
X40395Y22255
X40336Y22738
X40636Y23238
X42236Y23238
X44995Y22855
X45695Y22155
X46695Y22555
X47095Y22155
X42936Y21238
X41814Y21828
X41229Y21772
X52436Y18038
X42936Y10838
X39070Y10690
X38071Y10606
X52436Y7638
X4263Y19468
T03
X3375Y3375
X3375Y4375
X3375Y5375
X3375Y6375
X3375Y7375
X5475Y7375
X3375Y8575
X3375Y9575
X3375Y10575
X3375Y11575
X3375Y12575
X5475Y12575
X3375Y13775
X3375Y14775
X3375Y15775
X3375Y16775
X3375Y17775
X5475Y17775
X3375Y18975
X3375Y19975
X3375Y20975
X3375Y21975
X3375Y22975
X5475Y22975
X13575Y22975
X13575Y21975
X13575Y20975
X13575Y19975
X13575Y18975
X13575Y17775
X13575Y16775
X13575Y15775
X13575Y14775
X13575Y13775
X13575Y12575
X13575Y11575
X15675Y12575
X13575Y10575
X13575Y9575
X13575Y8575
X13575Y7375
X13575Y6375
X15675Y7375
X13575Y5375
X13575Y4375
X13575Y3375
X23775Y3375
X23775Y4375
X23775Y5375
X23775Y6375
X23775Y7375
X25875Y7375
X23775Y8575
X23775Y9575
X23775Y10575
X23775Y11575
X23775Y12575
X25875Y12575
X23775Y13775
X23775Y14775
X23775Y15775
X23775Y16775
X23775Y17775
X25875Y17775
X23775Y18975
X23775Y19975
X23775Y20975
X23775Y21975
X23775Y22975
X25875Y22975
X33975Y22975
X33975Y21975
X33975Y20975
X33975Y19975
X33975Y18975
X33975Y17775
X33975Y16775
X33975Y15775
X33975Y14775
X33975Y13775
X33975Y12575
X33975Y11575
X36075Y12575
X33975Y10575
X33975Y9575
X33975Y8575
X33975Y7375
X33975Y6375
X36075Y7375
X33975Y5375
X33975Y4375
X33975Y3375
X44175Y3375
X44175Y4375
X44175Y5375
X44175Y6375
X44175Y7375
X46275Y7375
X44175Y8575
X44175Y9575
X44175Y10575
X44175Y11575
X44175Y12575
X46275Y12575
X44175Y13775
X44175Y14775
X44175Y15775
X44175Y16775
X44175Y17775
X46275Y17775
X44175Y18975
X44175Y19975
X44175Y20975
X44175Y21975
X44175Y22975
X46275Y22975
X36075Y22975
X36075Y17775
X15675Y17775
X15675Y22975
M30
