G75*
%MOIN*%
%OFA0B0*%
%FSLAX25Y25*%
%IPPOS*%
%LPD*%
%AMOC8*
5,1,8,0,0,1.08239X$1,22.5*
%
%ADD10R,0.02375X0.03753*%
%ADD11R,0.02178X0.03753*%
%ADD12R,0.05131X0.04737*%
%ADD13R,0.04146X0.04343*%
%ADD14C,0.08200*%
%ADD15R,0.04737X0.05131*%
%ADD16R,0.03300X0.05800*%
%ADD17C,0.00500*%
%ADD18C,0.03300*%
%ADD19C,0.04737*%
%ADD20C,0.05000*%
%ADD21C,0.06706*%
D10*
X0094791Y0050502D03*
X0097350Y0050502D03*
X0099909Y0050502D03*
X0099909Y0056998D03*
X0094791Y0056998D03*
X0094791Y0102502D03*
X0097350Y0102502D03*
X0099909Y0102502D03*
X0099909Y0108998D03*
X0094791Y0108998D03*
X0094791Y0154502D03*
X0097350Y0154502D03*
X0099909Y0154502D03*
X0099909Y0160998D03*
X0094791Y0160998D03*
X0094791Y0206502D03*
X0097350Y0206502D03*
X0099909Y0206502D03*
X0099909Y0212998D03*
X0094791Y0212998D03*
X0196791Y0212998D03*
X0201909Y0212998D03*
X0201909Y0206502D03*
X0199350Y0206502D03*
X0196791Y0206502D03*
X0196791Y0160998D03*
X0201909Y0160998D03*
X0201909Y0154502D03*
X0199350Y0154502D03*
X0196791Y0154502D03*
X0196791Y0108998D03*
X0201909Y0108998D03*
X0201909Y0102502D03*
X0199350Y0102502D03*
X0196791Y0102502D03*
X0196791Y0056998D03*
X0201909Y0056998D03*
X0201909Y0050502D03*
X0199350Y0050502D03*
X0196791Y0050502D03*
X0298791Y0050502D03*
X0301350Y0050502D03*
X0303909Y0050502D03*
X0303909Y0056998D03*
X0298791Y0056998D03*
X0298791Y0102502D03*
X0301350Y0102502D03*
X0303909Y0102502D03*
X0303909Y0108998D03*
X0298791Y0108998D03*
X0298791Y0154502D03*
X0301350Y0154502D03*
X0303909Y0154502D03*
X0303909Y0160998D03*
X0298791Y0160998D03*
X0298791Y0206502D03*
X0301350Y0206502D03*
X0303909Y0206502D03*
X0303909Y0212998D03*
X0298791Y0212998D03*
X0400791Y0212998D03*
X0405909Y0212998D03*
X0405909Y0206502D03*
X0403350Y0206502D03*
X0400791Y0206502D03*
X0400791Y0160998D03*
X0405909Y0160998D03*
X0405909Y0154502D03*
X0403350Y0154502D03*
X0400791Y0154502D03*
X0400791Y0108998D03*
X0405909Y0108998D03*
X0405909Y0102502D03*
X0403350Y0102502D03*
X0400791Y0102502D03*
X0400791Y0056998D03*
X0405909Y0056998D03*
X0405909Y0050502D03*
X0403350Y0050502D03*
X0400791Y0050502D03*
X0502791Y0050502D03*
X0505350Y0050502D03*
X0507909Y0050502D03*
X0507909Y0056998D03*
X0502791Y0056998D03*
X0502791Y0102502D03*
X0505350Y0102502D03*
X0507909Y0102502D03*
X0507909Y0108998D03*
X0502791Y0108998D03*
X0502791Y0154502D03*
X0505350Y0154502D03*
X0507909Y0154502D03*
X0507909Y0160998D03*
X0502791Y0160998D03*
X0502791Y0206502D03*
X0505350Y0206502D03*
X0507909Y0206502D03*
X0507909Y0212998D03*
X0502791Y0212998D03*
D11*
X0496164Y0215445D03*
X0493015Y0215445D03*
X0489865Y0215445D03*
X0486715Y0215445D03*
X0483566Y0215445D03*
X0480416Y0215445D03*
X0477266Y0215445D03*
X0477266Y0205996D03*
X0480416Y0205996D03*
X0483566Y0205996D03*
X0486715Y0205996D03*
X0489865Y0205996D03*
X0493015Y0205996D03*
X0496164Y0205996D03*
X0496164Y0163445D03*
X0493015Y0163445D03*
X0489865Y0163445D03*
X0486715Y0163445D03*
X0483566Y0163445D03*
X0480416Y0163445D03*
X0477266Y0163445D03*
X0477266Y0153996D03*
X0480416Y0153996D03*
X0483566Y0153996D03*
X0486715Y0153996D03*
X0489865Y0153996D03*
X0493015Y0153996D03*
X0496164Y0153996D03*
X0496164Y0111445D03*
X0493015Y0111445D03*
X0489865Y0111445D03*
X0486715Y0111445D03*
X0483566Y0111445D03*
X0480416Y0111445D03*
X0477266Y0111445D03*
X0477266Y0101996D03*
X0480416Y0101996D03*
X0483566Y0101996D03*
X0486715Y0101996D03*
X0489865Y0101996D03*
X0493015Y0101996D03*
X0496164Y0101996D03*
X0496164Y0059445D03*
X0493015Y0059445D03*
X0489865Y0059445D03*
X0486715Y0059445D03*
X0483566Y0059445D03*
X0480416Y0059445D03*
X0477266Y0059445D03*
X0477266Y0049996D03*
X0480416Y0049996D03*
X0483566Y0049996D03*
X0486715Y0049996D03*
X0489865Y0049996D03*
X0493015Y0049996D03*
X0496164Y0049996D03*
X0394164Y0049996D03*
X0391015Y0049996D03*
X0387865Y0049996D03*
X0384715Y0049996D03*
X0381566Y0049996D03*
X0378416Y0049996D03*
X0375266Y0049996D03*
X0375266Y0059445D03*
X0378416Y0059445D03*
X0381566Y0059445D03*
X0384715Y0059445D03*
X0387865Y0059445D03*
X0391015Y0059445D03*
X0394164Y0059445D03*
X0394164Y0101996D03*
X0391015Y0101996D03*
X0387865Y0101996D03*
X0384715Y0101996D03*
X0381566Y0101996D03*
X0378416Y0101996D03*
X0375266Y0101996D03*
X0375266Y0111445D03*
X0378416Y0111445D03*
X0381566Y0111445D03*
X0384715Y0111445D03*
X0387865Y0111445D03*
X0391015Y0111445D03*
X0394164Y0111445D03*
X0394164Y0153996D03*
X0391015Y0153996D03*
X0387865Y0153996D03*
X0384715Y0153996D03*
X0381566Y0153996D03*
X0378416Y0153996D03*
X0375266Y0153996D03*
X0375266Y0163445D03*
X0378416Y0163445D03*
X0381566Y0163445D03*
X0384715Y0163445D03*
X0387865Y0163445D03*
X0391015Y0163445D03*
X0394164Y0163445D03*
X0394164Y0205996D03*
X0391015Y0205996D03*
X0387865Y0205996D03*
X0384715Y0205996D03*
X0381566Y0205996D03*
X0378416Y0205996D03*
X0375266Y0205996D03*
X0375266Y0215445D03*
X0378416Y0215445D03*
X0381566Y0215445D03*
X0384715Y0215445D03*
X0387865Y0215445D03*
X0391015Y0215445D03*
X0394164Y0215445D03*
X0292164Y0215445D03*
X0289015Y0215445D03*
X0285865Y0215445D03*
X0282715Y0215445D03*
X0279566Y0215445D03*
X0276416Y0215445D03*
X0273266Y0215445D03*
X0273266Y0205996D03*
X0276416Y0205996D03*
X0279566Y0205996D03*
X0282715Y0205996D03*
X0285865Y0205996D03*
X0289015Y0205996D03*
X0292164Y0205996D03*
X0292164Y0163445D03*
X0289015Y0163445D03*
X0285865Y0163445D03*
X0282715Y0163445D03*
X0279566Y0163445D03*
X0276416Y0163445D03*
X0273266Y0163445D03*
X0273266Y0153996D03*
X0276416Y0153996D03*
X0279566Y0153996D03*
X0282715Y0153996D03*
X0285865Y0153996D03*
X0289015Y0153996D03*
X0292164Y0153996D03*
X0292164Y0111445D03*
X0289015Y0111445D03*
X0285865Y0111445D03*
X0282715Y0111445D03*
X0279566Y0111445D03*
X0276416Y0111445D03*
X0273266Y0111445D03*
X0273266Y0101996D03*
X0276416Y0101996D03*
X0279566Y0101996D03*
X0282715Y0101996D03*
X0285865Y0101996D03*
X0289015Y0101996D03*
X0292164Y0101996D03*
X0292164Y0059445D03*
X0289015Y0059445D03*
X0285865Y0059445D03*
X0282715Y0059445D03*
X0279566Y0059445D03*
X0276416Y0059445D03*
X0273266Y0059445D03*
X0273266Y0049996D03*
X0276416Y0049996D03*
X0279566Y0049996D03*
X0282715Y0049996D03*
X0285865Y0049996D03*
X0289015Y0049996D03*
X0292164Y0049996D03*
X0190164Y0049996D03*
X0187015Y0049996D03*
X0183865Y0049996D03*
X0180715Y0049996D03*
X0177566Y0049996D03*
X0174416Y0049996D03*
X0171266Y0049996D03*
X0171266Y0059445D03*
X0174416Y0059445D03*
X0177566Y0059445D03*
X0180715Y0059445D03*
X0183865Y0059445D03*
X0187015Y0059445D03*
X0190164Y0059445D03*
X0190164Y0101996D03*
X0187015Y0101996D03*
X0183865Y0101996D03*
X0180715Y0101996D03*
X0177566Y0101996D03*
X0174416Y0101996D03*
X0171266Y0101996D03*
X0171266Y0111445D03*
X0174416Y0111445D03*
X0177566Y0111445D03*
X0180715Y0111445D03*
X0183865Y0111445D03*
X0187015Y0111445D03*
X0190164Y0111445D03*
X0190164Y0153996D03*
X0187015Y0153996D03*
X0183865Y0153996D03*
X0180715Y0153996D03*
X0177566Y0153996D03*
X0174416Y0153996D03*
X0171266Y0153996D03*
X0171266Y0163445D03*
X0174416Y0163445D03*
X0177566Y0163445D03*
X0180715Y0163445D03*
X0183865Y0163445D03*
X0187015Y0163445D03*
X0190164Y0163445D03*
X0190164Y0205996D03*
X0187015Y0205996D03*
X0183865Y0205996D03*
X0180715Y0205996D03*
X0177566Y0205996D03*
X0174416Y0205996D03*
X0171266Y0205996D03*
X0171266Y0215445D03*
X0174416Y0215445D03*
X0177566Y0215445D03*
X0180715Y0215445D03*
X0183865Y0215445D03*
X0187015Y0215445D03*
X0190164Y0215445D03*
X0088164Y0215445D03*
X0085015Y0215445D03*
X0081865Y0215445D03*
X0078715Y0215445D03*
X0075566Y0215445D03*
X0072416Y0215445D03*
X0069266Y0215445D03*
X0069266Y0205996D03*
X0072416Y0205996D03*
X0075566Y0205996D03*
X0078715Y0205996D03*
X0081865Y0205996D03*
X0085015Y0205996D03*
X0088164Y0205996D03*
X0088164Y0163445D03*
X0085015Y0163445D03*
X0081865Y0163445D03*
X0078715Y0163445D03*
X0075566Y0163445D03*
X0072416Y0163445D03*
X0069266Y0163445D03*
X0069266Y0153996D03*
X0072416Y0153996D03*
X0075566Y0153996D03*
X0078715Y0153996D03*
X0081865Y0153996D03*
X0085015Y0153996D03*
X0088164Y0153996D03*
X0088164Y0111445D03*
X0085015Y0111445D03*
X0081865Y0111445D03*
X0078715Y0111445D03*
X0075566Y0111445D03*
X0072416Y0111445D03*
X0069266Y0111445D03*
X0069266Y0101996D03*
X0072416Y0101996D03*
X0075566Y0101996D03*
X0078715Y0101996D03*
X0081865Y0101996D03*
X0085015Y0101996D03*
X0088164Y0101996D03*
X0088164Y0059445D03*
X0085015Y0059445D03*
X0081865Y0059445D03*
X0078715Y0059445D03*
X0075566Y0059445D03*
X0072416Y0059445D03*
X0069266Y0059445D03*
X0069266Y0049996D03*
X0072416Y0049996D03*
X0075566Y0049996D03*
X0078715Y0049996D03*
X0081865Y0049996D03*
X0085015Y0049996D03*
X0088164Y0049996D03*
D12*
X0089666Y0043560D03*
X0082974Y0043560D03*
X0094404Y0062750D03*
X0101096Y0062750D03*
X0092096Y0073750D03*
X0085404Y0073750D03*
X0074096Y0073750D03*
X0067404Y0073750D03*
X0067404Y0067750D03*
X0074096Y0067750D03*
X0082974Y0095560D03*
X0089666Y0095560D03*
X0094404Y0114750D03*
X0101096Y0114750D03*
X0092096Y0125750D03*
X0085404Y0125750D03*
X0074096Y0125750D03*
X0067404Y0125750D03*
X0067404Y0119750D03*
X0074096Y0119750D03*
X0082974Y0147560D03*
X0089666Y0147560D03*
X0094404Y0166750D03*
X0101096Y0166750D03*
X0092096Y0177750D03*
X0085404Y0177750D03*
X0074096Y0177750D03*
X0067404Y0177750D03*
X0067404Y0171750D03*
X0074096Y0171750D03*
X0082974Y0199560D03*
X0089666Y0199560D03*
X0094404Y0218750D03*
X0101096Y0218750D03*
X0092096Y0229750D03*
X0085404Y0229750D03*
X0074096Y0229750D03*
X0067404Y0229750D03*
X0067404Y0223750D03*
X0074096Y0223750D03*
X0169404Y0223750D03*
X0176096Y0223750D03*
X0176096Y0229750D03*
X0169404Y0229750D03*
X0187404Y0229750D03*
X0194096Y0229750D03*
X0196404Y0218750D03*
X0203096Y0218750D03*
X0191666Y0199560D03*
X0184974Y0199560D03*
X0187404Y0177750D03*
X0194096Y0177750D03*
X0176096Y0177750D03*
X0169404Y0177750D03*
X0169404Y0171750D03*
X0176096Y0171750D03*
X0196404Y0166750D03*
X0203096Y0166750D03*
X0191666Y0147560D03*
X0184974Y0147560D03*
X0187404Y0125750D03*
X0194096Y0125750D03*
X0176096Y0125750D03*
X0169404Y0125750D03*
X0169404Y0119750D03*
X0176096Y0119750D03*
X0196404Y0114750D03*
X0203096Y0114750D03*
X0191666Y0095560D03*
X0184974Y0095560D03*
X0187404Y0073750D03*
X0194096Y0073750D03*
X0176096Y0073750D03*
X0169404Y0073750D03*
X0169404Y0067750D03*
X0176096Y0067750D03*
X0196404Y0062750D03*
X0203096Y0062750D03*
X0191666Y0043560D03*
X0184974Y0043560D03*
X0271404Y0067750D03*
X0278096Y0067750D03*
X0278096Y0073750D03*
X0271404Y0073750D03*
X0289404Y0073750D03*
X0296096Y0073750D03*
X0298404Y0062750D03*
X0305096Y0062750D03*
X0293666Y0043560D03*
X0286974Y0043560D03*
X0373404Y0067750D03*
X0380096Y0067750D03*
X0380096Y0073750D03*
X0373404Y0073750D03*
X0391404Y0073750D03*
X0398096Y0073750D03*
X0400404Y0062750D03*
X0407096Y0062750D03*
X0395666Y0043560D03*
X0388974Y0043560D03*
X0475404Y0067750D03*
X0482096Y0067750D03*
X0482096Y0073750D03*
X0475404Y0073750D03*
X0493404Y0073750D03*
X0500096Y0073750D03*
X0502404Y0062750D03*
X0509096Y0062750D03*
X0497666Y0043560D03*
X0490974Y0043560D03*
X0490974Y0095560D03*
X0497666Y0095560D03*
X0502404Y0114750D03*
X0509096Y0114750D03*
X0500096Y0125750D03*
X0493404Y0125750D03*
X0482096Y0125750D03*
X0475404Y0125750D03*
X0475404Y0119750D03*
X0482096Y0119750D03*
X0490974Y0147560D03*
X0497666Y0147560D03*
X0502404Y0166750D03*
X0509096Y0166750D03*
X0500096Y0177750D03*
X0493404Y0177750D03*
X0482096Y0177750D03*
X0475404Y0177750D03*
X0475404Y0171750D03*
X0482096Y0171750D03*
X0490974Y0199560D03*
X0497666Y0199560D03*
X0502404Y0218750D03*
X0509096Y0218750D03*
X0500096Y0229750D03*
X0493404Y0229750D03*
X0482096Y0229750D03*
X0475404Y0229750D03*
X0475404Y0223750D03*
X0482096Y0223750D03*
X0407096Y0218750D03*
X0400404Y0218750D03*
X0398096Y0229750D03*
X0391404Y0229750D03*
X0380096Y0229750D03*
X0373404Y0229750D03*
X0373404Y0223750D03*
X0380096Y0223750D03*
X0388974Y0199560D03*
X0395666Y0199560D03*
X0398096Y0177750D03*
X0391404Y0177750D03*
X0380096Y0177750D03*
X0373404Y0177750D03*
X0373404Y0171750D03*
X0380096Y0171750D03*
X0400404Y0166750D03*
X0407096Y0166750D03*
X0395666Y0147560D03*
X0388974Y0147560D03*
X0391404Y0125750D03*
X0398096Y0125750D03*
X0380096Y0125750D03*
X0373404Y0125750D03*
X0373404Y0119750D03*
X0380096Y0119750D03*
X0400404Y0114750D03*
X0407096Y0114750D03*
X0395666Y0095560D03*
X0388974Y0095560D03*
X0305096Y0114750D03*
X0298404Y0114750D03*
X0278096Y0119750D03*
X0271404Y0119750D03*
X0271404Y0125750D03*
X0278096Y0125750D03*
X0289404Y0125750D03*
X0296096Y0125750D03*
X0293666Y0147560D03*
X0286974Y0147560D03*
X0298404Y0166750D03*
X0305096Y0166750D03*
X0296096Y0177750D03*
X0289404Y0177750D03*
X0278096Y0177750D03*
X0271404Y0177750D03*
X0271404Y0171750D03*
X0278096Y0171750D03*
X0286974Y0199560D03*
X0293666Y0199560D03*
X0298404Y0218750D03*
X0305096Y0218750D03*
X0296096Y0229750D03*
X0289404Y0229750D03*
X0278096Y0229750D03*
X0271404Y0229750D03*
X0271404Y0223750D03*
X0278096Y0223750D03*
X0286974Y0095560D03*
X0293666Y0095560D03*
D13*
X0281033Y0095750D03*
X0276467Y0095750D03*
X0179033Y0095750D03*
X0174467Y0095750D03*
X0077033Y0095750D03*
X0072467Y0095750D03*
X0072467Y0043750D03*
X0077033Y0043750D03*
X0174467Y0043750D03*
X0179033Y0043750D03*
X0276467Y0043750D03*
X0281033Y0043750D03*
X0378467Y0043750D03*
X0383033Y0043750D03*
X0480467Y0043750D03*
X0485033Y0043750D03*
X0485033Y0095750D03*
X0480467Y0095750D03*
X0383033Y0095750D03*
X0378467Y0095750D03*
X0378467Y0147750D03*
X0383033Y0147750D03*
X0480467Y0147750D03*
X0485033Y0147750D03*
X0485033Y0199750D03*
X0480467Y0199750D03*
X0383033Y0199750D03*
X0378467Y0199750D03*
X0281033Y0199750D03*
X0276467Y0199750D03*
X0179033Y0199750D03*
X0174467Y0199750D03*
X0077033Y0199750D03*
X0072467Y0199750D03*
X0072467Y0147750D03*
X0077033Y0147750D03*
X0174467Y0147750D03*
X0179033Y0147750D03*
X0276467Y0147750D03*
X0281033Y0147750D03*
D14*
X0237750Y0147750D03*
X0237750Y0137750D03*
X0237750Y0125750D03*
X0237750Y0115750D03*
X0258750Y0125750D03*
X0237750Y0105750D03*
X0237750Y0095750D03*
X0237750Y0085750D03*
X0237750Y0073750D03*
X0237750Y0063750D03*
X0258750Y0073750D03*
X0237750Y0053750D03*
X0237750Y0043750D03*
X0237750Y0033750D03*
X0156750Y0073750D03*
X0135750Y0073750D03*
X0135750Y0063750D03*
X0135750Y0053750D03*
X0135750Y0043750D03*
X0135750Y0033750D03*
X0054750Y0073750D03*
X0033750Y0073750D03*
X0033750Y0063750D03*
X0033750Y0053750D03*
X0033750Y0043750D03*
X0033750Y0033750D03*
X0033750Y0085750D03*
X0033750Y0095750D03*
X0033750Y0105750D03*
X0033750Y0115750D03*
X0033750Y0125750D03*
X0054750Y0125750D03*
X0033750Y0137750D03*
X0033750Y0147750D03*
X0033750Y0157750D03*
X0033750Y0167750D03*
X0033750Y0177750D03*
X0054750Y0177750D03*
X0033750Y0189750D03*
X0033750Y0199750D03*
X0033750Y0209750D03*
X0033750Y0219750D03*
X0033750Y0229750D03*
X0054750Y0229750D03*
X0135750Y0229750D03*
X0135750Y0219750D03*
X0135750Y0209750D03*
X0135750Y0199750D03*
X0135750Y0189750D03*
X0135750Y0177750D03*
X0135750Y0167750D03*
X0135750Y0157750D03*
X0135750Y0147750D03*
X0135750Y0137750D03*
X0135750Y0125750D03*
X0135750Y0115750D03*
X0156750Y0125750D03*
X0135750Y0105750D03*
X0135750Y0095750D03*
X0135750Y0085750D03*
X0237750Y0157750D03*
X0237750Y0167750D03*
X0237750Y0177750D03*
X0258750Y0177750D03*
X0237750Y0189750D03*
X0237750Y0199750D03*
X0237750Y0209750D03*
X0237750Y0219750D03*
X0237750Y0229750D03*
X0258750Y0229750D03*
X0339750Y0229750D03*
X0339750Y0219750D03*
X0339750Y0209750D03*
X0339750Y0199750D03*
X0339750Y0189750D03*
X0339750Y0177750D03*
X0339750Y0167750D03*
X0339750Y0157750D03*
X0339750Y0147750D03*
X0339750Y0137750D03*
X0339750Y0125750D03*
X0339750Y0115750D03*
X0360750Y0125750D03*
X0339750Y0105750D03*
X0339750Y0095750D03*
X0339750Y0085750D03*
X0339750Y0073750D03*
X0339750Y0063750D03*
X0360750Y0073750D03*
X0339750Y0053750D03*
X0339750Y0043750D03*
X0339750Y0033750D03*
X0441750Y0033750D03*
X0441750Y0043750D03*
X0441750Y0053750D03*
X0441750Y0063750D03*
X0441750Y0073750D03*
X0462750Y0073750D03*
X0441750Y0085750D03*
X0441750Y0095750D03*
X0441750Y0105750D03*
X0441750Y0115750D03*
X0441750Y0125750D03*
X0462750Y0125750D03*
X0441750Y0137750D03*
X0441750Y0147750D03*
X0441750Y0157750D03*
X0441750Y0167750D03*
X0441750Y0177750D03*
X0462750Y0177750D03*
X0441750Y0189750D03*
X0441750Y0199750D03*
X0441750Y0209750D03*
X0441750Y0219750D03*
X0441750Y0229750D03*
X0462750Y0229750D03*
X0360750Y0229750D03*
X0360750Y0177750D03*
X0156750Y0177750D03*
X0156750Y0229750D03*
D15*
X0118050Y0204096D03*
X0111650Y0204096D03*
X0111650Y0197404D03*
X0118050Y0197404D03*
X0118050Y0152096D03*
X0111650Y0152096D03*
X0111650Y0145404D03*
X0118050Y0145404D03*
X0118050Y0100096D03*
X0111650Y0100096D03*
X0111650Y0093404D03*
X0118050Y0093404D03*
X0118050Y0048096D03*
X0111650Y0048096D03*
X0111650Y0041404D03*
X0118050Y0041404D03*
X0213650Y0041404D03*
X0220050Y0041404D03*
X0220050Y0048096D03*
X0213650Y0048096D03*
X0213650Y0093404D03*
X0220050Y0093404D03*
X0220050Y0100096D03*
X0213650Y0100096D03*
X0213650Y0145404D03*
X0220050Y0145404D03*
X0220050Y0152096D03*
X0213650Y0152096D03*
X0213650Y0197404D03*
X0220050Y0197404D03*
X0220050Y0204096D03*
X0213650Y0204096D03*
X0315650Y0204096D03*
X0322050Y0204096D03*
X0322050Y0197404D03*
X0315650Y0197404D03*
X0315650Y0152096D03*
X0322050Y0152096D03*
X0322050Y0145404D03*
X0315650Y0145404D03*
X0315650Y0100096D03*
X0322050Y0100096D03*
X0322050Y0093404D03*
X0315650Y0093404D03*
X0315650Y0048096D03*
X0322050Y0048096D03*
X0322050Y0041404D03*
X0315650Y0041404D03*
X0417650Y0041404D03*
X0424050Y0041404D03*
X0424050Y0048096D03*
X0417650Y0048096D03*
X0417650Y0093404D03*
X0424050Y0093404D03*
X0424050Y0100096D03*
X0417650Y0100096D03*
X0417650Y0145404D03*
X0424050Y0145404D03*
X0424050Y0152096D03*
X0417650Y0152096D03*
X0417650Y0197404D03*
X0424050Y0197404D03*
X0424050Y0204096D03*
X0417650Y0204096D03*
X0519650Y0204096D03*
X0526050Y0204096D03*
X0526050Y0197404D03*
X0519650Y0197404D03*
X0519650Y0152096D03*
X0526050Y0152096D03*
X0526050Y0145404D03*
X0519650Y0145404D03*
X0519650Y0100096D03*
X0526050Y0100096D03*
X0526050Y0093404D03*
X0519650Y0093404D03*
X0519650Y0048096D03*
X0526050Y0048096D03*
X0526050Y0041404D03*
X0519650Y0041404D03*
D16*
X0518750Y0055750D03*
X0522750Y0055750D03*
X0526750Y0055750D03*
X0424750Y0055750D03*
X0420750Y0055750D03*
X0416750Y0055750D03*
X0322750Y0055750D03*
X0318750Y0055750D03*
X0314750Y0055750D03*
X0220750Y0055750D03*
X0216750Y0055750D03*
X0212750Y0055750D03*
X0118750Y0055750D03*
X0114750Y0055750D03*
X0110750Y0055750D03*
X0110750Y0107750D03*
X0114750Y0107750D03*
X0118750Y0107750D03*
X0212750Y0107750D03*
X0216750Y0107750D03*
X0220750Y0107750D03*
X0314750Y0107750D03*
X0318750Y0107750D03*
X0322750Y0107750D03*
X0416750Y0107750D03*
X0420750Y0107750D03*
X0424750Y0107750D03*
X0518750Y0107750D03*
X0522750Y0107750D03*
X0526750Y0107750D03*
X0526750Y0159750D03*
X0522750Y0159750D03*
X0518750Y0159750D03*
X0424750Y0159750D03*
X0420750Y0159750D03*
X0416750Y0159750D03*
X0322750Y0159750D03*
X0318750Y0159750D03*
X0314750Y0159750D03*
X0220750Y0159750D03*
X0216750Y0159750D03*
X0212750Y0159750D03*
X0118750Y0159750D03*
X0114750Y0159750D03*
X0110750Y0159750D03*
X0110750Y0211750D03*
X0114750Y0211750D03*
X0118750Y0211750D03*
X0212750Y0211750D03*
X0216750Y0211750D03*
X0220750Y0211750D03*
X0314750Y0211750D03*
X0318750Y0211750D03*
X0322750Y0211750D03*
X0416750Y0211750D03*
X0420750Y0211750D03*
X0424750Y0211750D03*
X0518750Y0211750D03*
X0522750Y0211750D03*
X0526750Y0211750D03*
D17*
X0525500Y0211704D02*
X0520000Y0211704D01*
X0520000Y0211250D02*
X0525500Y0211250D01*
X0525500Y0212250D01*
X0520000Y0212250D01*
X0520000Y0211250D01*
X0520000Y0212202D02*
X0525500Y0212202D01*
X0423500Y0212202D02*
X0418000Y0212202D01*
X0418000Y0212250D02*
X0418000Y0211250D01*
X0423500Y0211250D01*
X0423500Y0212250D01*
X0418000Y0212250D01*
X0418000Y0211704D02*
X0423500Y0211704D01*
X0321500Y0211704D02*
X0316000Y0211704D01*
X0316000Y0211250D02*
X0321500Y0211250D01*
X0321500Y0212250D01*
X0316000Y0212250D01*
X0316000Y0211250D01*
X0316000Y0212202D02*
X0321500Y0212202D01*
X0219500Y0212202D02*
X0214000Y0212202D01*
X0214000Y0212250D02*
X0214000Y0211250D01*
X0219500Y0211250D01*
X0219500Y0212250D01*
X0214000Y0212250D01*
X0214000Y0211704D02*
X0219500Y0211704D01*
X0117500Y0211704D02*
X0112000Y0211704D01*
X0112000Y0211250D02*
X0117500Y0211250D01*
X0117500Y0212250D01*
X0112000Y0212250D01*
X0112000Y0211250D01*
X0112000Y0212202D02*
X0117500Y0212202D01*
X0117500Y0160250D02*
X0112000Y0160250D01*
X0112000Y0159250D01*
X0117500Y0159250D01*
X0117500Y0160250D01*
X0117500Y0159858D02*
X0112000Y0159858D01*
X0112000Y0159360D02*
X0117500Y0159360D01*
X0214000Y0159360D02*
X0219500Y0159360D01*
X0219500Y0159250D02*
X0219500Y0160250D01*
X0214000Y0160250D01*
X0214000Y0159250D01*
X0219500Y0159250D01*
X0219500Y0159858D02*
X0214000Y0159858D01*
X0316000Y0159858D02*
X0321500Y0159858D01*
X0321500Y0160250D02*
X0321500Y0159250D01*
X0316000Y0159250D01*
X0316000Y0160250D01*
X0321500Y0160250D01*
X0321500Y0159360D02*
X0316000Y0159360D01*
X0418000Y0159360D02*
X0423500Y0159360D01*
X0423500Y0159250D02*
X0423500Y0160250D01*
X0418000Y0160250D01*
X0418000Y0159250D01*
X0423500Y0159250D01*
X0423500Y0159858D02*
X0418000Y0159858D01*
X0520000Y0159858D02*
X0525500Y0159858D01*
X0525500Y0160250D02*
X0525500Y0159250D01*
X0520000Y0159250D01*
X0520000Y0160250D01*
X0525500Y0160250D01*
X0525500Y0159360D02*
X0520000Y0159360D01*
X0520000Y0108250D02*
X0520000Y0107250D01*
X0525500Y0107250D01*
X0525500Y0108250D01*
X0520000Y0108250D01*
X0520000Y0108013D02*
X0525500Y0108013D01*
X0525500Y0107515D02*
X0520000Y0107515D01*
X0423500Y0107515D02*
X0418000Y0107515D01*
X0418000Y0107250D02*
X0423500Y0107250D01*
X0423500Y0108250D01*
X0418000Y0108250D01*
X0418000Y0107250D01*
X0418000Y0108013D02*
X0423500Y0108013D01*
X0321500Y0108013D02*
X0316000Y0108013D01*
X0316000Y0108250D02*
X0316000Y0107250D01*
X0321500Y0107250D01*
X0321500Y0108250D01*
X0316000Y0108250D01*
X0316000Y0107515D02*
X0321500Y0107515D01*
X0219500Y0107515D02*
X0214000Y0107515D01*
X0214000Y0107250D02*
X0219500Y0107250D01*
X0219500Y0108250D01*
X0214000Y0108250D01*
X0214000Y0107250D01*
X0214000Y0108013D02*
X0219500Y0108013D01*
X0117500Y0108013D02*
X0112000Y0108013D01*
X0112000Y0108250D02*
X0112000Y0107250D01*
X0117500Y0107250D01*
X0117500Y0108250D01*
X0112000Y0108250D01*
X0112000Y0107515D02*
X0117500Y0107515D01*
X0117500Y0056250D02*
X0112000Y0056250D01*
X0112000Y0055250D01*
X0117500Y0055250D01*
X0117500Y0056250D01*
X0117500Y0056168D02*
X0112000Y0056168D01*
X0112000Y0055670D02*
X0117500Y0055670D01*
X0214000Y0055670D02*
X0219500Y0055670D01*
X0219500Y0055250D02*
X0219500Y0056250D01*
X0214000Y0056250D01*
X0214000Y0055250D01*
X0219500Y0055250D01*
X0219500Y0056168D02*
X0214000Y0056168D01*
X0316000Y0056168D02*
X0321500Y0056168D01*
X0321500Y0056250D02*
X0321500Y0055250D01*
X0316000Y0055250D01*
X0316000Y0056250D01*
X0321500Y0056250D01*
X0321500Y0055670D02*
X0316000Y0055670D01*
X0418000Y0055670D02*
X0423500Y0055670D01*
X0423500Y0055250D02*
X0423500Y0056250D01*
X0418000Y0056250D01*
X0418000Y0055250D01*
X0423500Y0055250D01*
X0423500Y0056168D02*
X0418000Y0056168D01*
X0520000Y0056168D02*
X0525500Y0056168D01*
X0525500Y0056250D02*
X0525500Y0055250D01*
X0520000Y0055250D01*
X0520000Y0056250D01*
X0525500Y0056250D01*
X0525500Y0055670D02*
X0520000Y0055670D01*
D18*
X0533750Y0031750D03*
X0457470Y0076320D03*
X0431750Y0083750D03*
X0355470Y0076320D03*
X0329750Y0083750D03*
X0253470Y0076320D03*
X0227750Y0083750D03*
X0151470Y0076320D03*
X0125750Y0083750D03*
X0049470Y0076320D03*
X0125750Y0031750D03*
X0227750Y0031750D03*
X0329750Y0031750D03*
X0431750Y0031750D03*
X0533750Y0083750D03*
X0457470Y0128320D03*
X0431750Y0135750D03*
X0355470Y0128320D03*
X0329750Y0135750D03*
X0253470Y0128320D03*
X0227750Y0135750D03*
X0151470Y0128320D03*
X0125750Y0135750D03*
X0049470Y0128320D03*
X0049470Y0180320D03*
X0125750Y0187750D03*
X0151470Y0180320D03*
X0227750Y0187750D03*
X0253470Y0180320D03*
X0329750Y0187750D03*
X0355470Y0180320D03*
X0431750Y0187750D03*
X0457470Y0180320D03*
X0533750Y0187750D03*
X0457470Y0232320D03*
X0355470Y0232320D03*
X0253470Y0232320D03*
X0151470Y0232320D03*
X0049470Y0232320D03*
X0533750Y0135750D03*
D19*
X0509750Y0243000D03*
X0055750Y0243000D03*
D20*
X0052185Y0020500D02*
X0052187Y0020619D01*
X0052193Y0020738D01*
X0052203Y0020857D01*
X0052217Y0020975D01*
X0052235Y0021093D01*
X0052256Y0021210D01*
X0052282Y0021326D01*
X0052312Y0021442D01*
X0052345Y0021556D01*
X0052382Y0021669D01*
X0052423Y0021781D01*
X0052468Y0021892D01*
X0052516Y0022001D01*
X0052568Y0022108D01*
X0052624Y0022213D01*
X0052683Y0022317D01*
X0052745Y0022418D01*
X0052811Y0022518D01*
X0052880Y0022615D01*
X0052952Y0022709D01*
X0053028Y0022802D01*
X0053106Y0022891D01*
X0053187Y0022978D01*
X0053272Y0023063D01*
X0053359Y0023144D01*
X0053448Y0023222D01*
X0053541Y0023298D01*
X0053635Y0023370D01*
X0053732Y0023439D01*
X0053832Y0023505D01*
X0053933Y0023567D01*
X0054037Y0023626D01*
X0054142Y0023682D01*
X0054249Y0023734D01*
X0054358Y0023782D01*
X0054469Y0023827D01*
X0054581Y0023868D01*
X0054694Y0023905D01*
X0054808Y0023938D01*
X0054924Y0023968D01*
X0055040Y0023994D01*
X0055157Y0024015D01*
X0055275Y0024033D01*
X0055393Y0024047D01*
X0055512Y0024057D01*
X0055631Y0024063D01*
X0055750Y0024065D01*
X0055869Y0024063D01*
X0055988Y0024057D01*
X0056107Y0024047D01*
X0056225Y0024033D01*
X0056343Y0024015D01*
X0056460Y0023994D01*
X0056576Y0023968D01*
X0056692Y0023938D01*
X0056806Y0023905D01*
X0056919Y0023868D01*
X0057031Y0023827D01*
X0057142Y0023782D01*
X0057251Y0023734D01*
X0057358Y0023682D01*
X0057463Y0023626D01*
X0057567Y0023567D01*
X0057668Y0023505D01*
X0057768Y0023439D01*
X0057865Y0023370D01*
X0057959Y0023298D01*
X0058052Y0023222D01*
X0058141Y0023144D01*
X0058228Y0023063D01*
X0058313Y0022978D01*
X0058394Y0022891D01*
X0058472Y0022802D01*
X0058548Y0022709D01*
X0058620Y0022615D01*
X0058689Y0022518D01*
X0058755Y0022418D01*
X0058817Y0022317D01*
X0058876Y0022213D01*
X0058932Y0022108D01*
X0058984Y0022001D01*
X0059032Y0021892D01*
X0059077Y0021781D01*
X0059118Y0021669D01*
X0059155Y0021556D01*
X0059188Y0021442D01*
X0059218Y0021326D01*
X0059244Y0021210D01*
X0059265Y0021093D01*
X0059283Y0020975D01*
X0059297Y0020857D01*
X0059307Y0020738D01*
X0059313Y0020619D01*
X0059315Y0020500D01*
X0059313Y0020381D01*
X0059307Y0020262D01*
X0059297Y0020143D01*
X0059283Y0020025D01*
X0059265Y0019907D01*
X0059244Y0019790D01*
X0059218Y0019674D01*
X0059188Y0019558D01*
X0059155Y0019444D01*
X0059118Y0019331D01*
X0059077Y0019219D01*
X0059032Y0019108D01*
X0058984Y0018999D01*
X0058932Y0018892D01*
X0058876Y0018787D01*
X0058817Y0018683D01*
X0058755Y0018582D01*
X0058689Y0018482D01*
X0058620Y0018385D01*
X0058548Y0018291D01*
X0058472Y0018198D01*
X0058394Y0018109D01*
X0058313Y0018022D01*
X0058228Y0017937D01*
X0058141Y0017856D01*
X0058052Y0017778D01*
X0057959Y0017702D01*
X0057865Y0017630D01*
X0057768Y0017561D01*
X0057668Y0017495D01*
X0057567Y0017433D01*
X0057463Y0017374D01*
X0057358Y0017318D01*
X0057251Y0017266D01*
X0057142Y0017218D01*
X0057031Y0017173D01*
X0056919Y0017132D01*
X0056806Y0017095D01*
X0056692Y0017062D01*
X0056576Y0017032D01*
X0056460Y0017006D01*
X0056343Y0016985D01*
X0056225Y0016967D01*
X0056107Y0016953D01*
X0055988Y0016943D01*
X0055869Y0016937D01*
X0055750Y0016935D01*
X0055631Y0016937D01*
X0055512Y0016943D01*
X0055393Y0016953D01*
X0055275Y0016967D01*
X0055157Y0016985D01*
X0055040Y0017006D01*
X0054924Y0017032D01*
X0054808Y0017062D01*
X0054694Y0017095D01*
X0054581Y0017132D01*
X0054469Y0017173D01*
X0054358Y0017218D01*
X0054249Y0017266D01*
X0054142Y0017318D01*
X0054037Y0017374D01*
X0053933Y0017433D01*
X0053832Y0017495D01*
X0053732Y0017561D01*
X0053635Y0017630D01*
X0053541Y0017702D01*
X0053448Y0017778D01*
X0053359Y0017856D01*
X0053272Y0017937D01*
X0053187Y0018022D01*
X0053106Y0018109D01*
X0053028Y0018198D01*
X0052952Y0018291D01*
X0052880Y0018385D01*
X0052811Y0018482D01*
X0052745Y0018582D01*
X0052683Y0018683D01*
X0052624Y0018787D01*
X0052568Y0018892D01*
X0052516Y0018999D01*
X0052468Y0019108D01*
X0052423Y0019219D01*
X0052382Y0019331D01*
X0052345Y0019444D01*
X0052312Y0019558D01*
X0052282Y0019674D01*
X0052256Y0019790D01*
X0052235Y0019907D01*
X0052217Y0020025D01*
X0052203Y0020143D01*
X0052193Y0020262D01*
X0052187Y0020381D01*
X0052185Y0020500D01*
D21*
X0055750Y0020500D03*
M02*
