G75*
%MOIN*%
%OFA0B0*%
%FSLAX25Y25*%
%IPPOS*%
%LPD*%
%AMOC8*
5,1,8,0,0,1.08239X$1,22.5*
%
%ADD10R,0.02375X0.05131*%
%ADD11C,0.00866*%
%ADD12R,0.04737X0.07887*%
%ADD13R,0.04737X0.05131*%
%ADD14R,0.04146X0.04343*%
%ADD15R,0.05131X0.04737*%
%ADD16R,0.03950X0.05524*%
%ADD17R,0.07887X0.03950*%
%ADD18R,0.04343X0.04146*%
%ADD19R,0.05524X0.08674*%
%ADD20R,0.03162X0.06115*%
%ADD21C,0.08200*%
%ADD22C,0.03300*%
%ADD23C,0.04737*%
%ADD24C,0.05000*%
%ADD25C,0.06706*%
D10*
X0105911Y0048892D03*
X0108470Y0048892D03*
X0111030Y0048892D03*
X0113589Y0048892D03*
X0113589Y0066608D03*
X0111030Y0066608D03*
X0108470Y0066608D03*
X0105911Y0066608D03*
X0105911Y0100892D03*
X0108470Y0100892D03*
X0111030Y0100892D03*
X0113589Y0100892D03*
X0113589Y0118608D03*
X0111030Y0118608D03*
X0108470Y0118608D03*
X0105911Y0118608D03*
X0105911Y0152892D03*
X0108470Y0152892D03*
X0111030Y0152892D03*
X0113589Y0152892D03*
X0113589Y0170608D03*
X0111030Y0170608D03*
X0108470Y0170608D03*
X0105911Y0170608D03*
X0105911Y0204892D03*
X0108470Y0204892D03*
X0111030Y0204892D03*
X0113589Y0204892D03*
X0113589Y0222608D03*
X0111030Y0222608D03*
X0108470Y0222608D03*
X0105911Y0222608D03*
X0207911Y0222608D03*
X0210470Y0222608D03*
X0213030Y0222608D03*
X0215589Y0222608D03*
X0215589Y0204892D03*
X0213030Y0204892D03*
X0210470Y0204892D03*
X0207911Y0204892D03*
X0207911Y0170608D03*
X0210470Y0170608D03*
X0213030Y0170608D03*
X0215589Y0170608D03*
X0215589Y0152892D03*
X0213030Y0152892D03*
X0210470Y0152892D03*
X0207911Y0152892D03*
X0207911Y0118608D03*
X0210470Y0118608D03*
X0213030Y0118608D03*
X0215589Y0118608D03*
X0215589Y0100892D03*
X0213030Y0100892D03*
X0210470Y0100892D03*
X0207911Y0100892D03*
X0207911Y0066608D03*
X0210470Y0066608D03*
X0213030Y0066608D03*
X0215589Y0066608D03*
X0215589Y0048892D03*
X0213030Y0048892D03*
X0210470Y0048892D03*
X0207911Y0048892D03*
X0309911Y0048892D03*
X0312470Y0048892D03*
X0315030Y0048892D03*
X0317589Y0048892D03*
X0317589Y0066608D03*
X0315030Y0066608D03*
X0312470Y0066608D03*
X0309911Y0066608D03*
X0309911Y0100892D03*
X0312470Y0100892D03*
X0315030Y0100892D03*
X0317589Y0100892D03*
X0317589Y0118608D03*
X0315030Y0118608D03*
X0312470Y0118608D03*
X0309911Y0118608D03*
X0309911Y0152892D03*
X0312470Y0152892D03*
X0315030Y0152892D03*
X0317589Y0152892D03*
X0317589Y0170608D03*
X0315030Y0170608D03*
X0312470Y0170608D03*
X0309911Y0170608D03*
X0309911Y0204892D03*
X0312470Y0204892D03*
X0315030Y0204892D03*
X0317589Y0204892D03*
X0317589Y0222608D03*
X0315030Y0222608D03*
X0312470Y0222608D03*
X0309911Y0222608D03*
X0411911Y0222608D03*
X0414470Y0222608D03*
X0417030Y0222608D03*
X0419589Y0222608D03*
X0419589Y0204892D03*
X0417030Y0204892D03*
X0414470Y0204892D03*
X0411911Y0204892D03*
X0411911Y0170608D03*
X0414470Y0170608D03*
X0417030Y0170608D03*
X0419589Y0170608D03*
X0419589Y0152892D03*
X0417030Y0152892D03*
X0414470Y0152892D03*
X0411911Y0152892D03*
X0411911Y0118608D03*
X0414470Y0118608D03*
X0417030Y0118608D03*
X0419589Y0118608D03*
X0419589Y0100892D03*
X0417030Y0100892D03*
X0414470Y0100892D03*
X0411911Y0100892D03*
X0411911Y0066608D03*
X0414470Y0066608D03*
X0417030Y0066608D03*
X0419589Y0066608D03*
X0419589Y0048892D03*
X0417030Y0048892D03*
X0414470Y0048892D03*
X0411911Y0048892D03*
X0513911Y0048892D03*
X0516470Y0048892D03*
X0519030Y0048892D03*
X0521589Y0048892D03*
X0521589Y0066608D03*
X0519030Y0066608D03*
X0516470Y0066608D03*
X0513911Y0066608D03*
X0513911Y0100892D03*
X0516470Y0100892D03*
X0519030Y0100892D03*
X0521589Y0100892D03*
X0521589Y0118608D03*
X0519030Y0118608D03*
X0516470Y0118608D03*
X0513911Y0118608D03*
X0513911Y0152892D03*
X0516470Y0152892D03*
X0519030Y0152892D03*
X0521589Y0152892D03*
X0521589Y0170608D03*
X0519030Y0170608D03*
X0516470Y0170608D03*
X0513911Y0170608D03*
X0513911Y0204892D03*
X0516470Y0204892D03*
X0519030Y0204892D03*
X0521589Y0204892D03*
X0521589Y0222608D03*
X0519030Y0222608D03*
X0516470Y0222608D03*
X0513911Y0222608D03*
D11*
X0469844Y0210789D03*
X0468467Y0210789D03*
X0468467Y0209411D03*
X0469844Y0209411D03*
X0469844Y0208033D03*
X0468467Y0208033D03*
X0468467Y0206656D03*
X0469844Y0206656D03*
X0467089Y0206656D03*
X0467089Y0208033D03*
X0465711Y0208033D03*
X0465711Y0206656D03*
X0465711Y0209411D03*
X0467089Y0209411D03*
X0467089Y0210789D03*
X0465711Y0210789D03*
X0367844Y0210789D03*
X0366467Y0210789D03*
X0366467Y0209411D03*
X0367844Y0209411D03*
X0367844Y0208033D03*
X0366467Y0208033D03*
X0366467Y0206656D03*
X0367844Y0206656D03*
X0365089Y0206656D03*
X0365089Y0208033D03*
X0363711Y0208033D03*
X0363711Y0206656D03*
X0363711Y0209411D03*
X0365089Y0209411D03*
X0365089Y0210789D03*
X0363711Y0210789D03*
X0265844Y0210789D03*
X0264467Y0210789D03*
X0264467Y0209411D03*
X0265844Y0209411D03*
X0265844Y0208033D03*
X0264467Y0208033D03*
X0264467Y0206656D03*
X0265844Y0206656D03*
X0263089Y0206656D03*
X0263089Y0208033D03*
X0261711Y0208033D03*
X0261711Y0206656D03*
X0261711Y0209411D03*
X0263089Y0209411D03*
X0263089Y0210789D03*
X0261711Y0210789D03*
X0163844Y0210789D03*
X0162467Y0210789D03*
X0162467Y0209411D03*
X0163844Y0209411D03*
X0163844Y0208033D03*
X0162467Y0208033D03*
X0162467Y0206656D03*
X0163844Y0206656D03*
X0161089Y0206656D03*
X0161089Y0208033D03*
X0159711Y0208033D03*
X0159711Y0206656D03*
X0159711Y0209411D03*
X0161089Y0209411D03*
X0161089Y0210789D03*
X0159711Y0210789D03*
X0061844Y0210789D03*
X0060467Y0210789D03*
X0060467Y0209411D03*
X0061844Y0209411D03*
X0061844Y0208033D03*
X0060467Y0208033D03*
X0060467Y0206656D03*
X0061844Y0206656D03*
X0059089Y0206656D03*
X0059089Y0208033D03*
X0057711Y0208033D03*
X0057711Y0206656D03*
X0057711Y0209411D03*
X0059089Y0209411D03*
X0059089Y0210789D03*
X0057711Y0210789D03*
X0057711Y0158789D03*
X0059089Y0158789D03*
X0060467Y0158789D03*
X0061844Y0158789D03*
X0061844Y0157411D03*
X0060467Y0157411D03*
X0060467Y0156033D03*
X0061844Y0156033D03*
X0061844Y0154656D03*
X0060467Y0154656D03*
X0059089Y0154656D03*
X0059089Y0156033D03*
X0057711Y0156033D03*
X0057711Y0154656D03*
X0057711Y0157411D03*
X0059089Y0157411D03*
X0159711Y0157411D03*
X0159711Y0156033D03*
X0159711Y0154656D03*
X0161089Y0154656D03*
X0161089Y0156033D03*
X0162467Y0156033D03*
X0163844Y0156033D03*
X0163844Y0154656D03*
X0162467Y0154656D03*
X0162467Y0157411D03*
X0163844Y0157411D03*
X0163844Y0158789D03*
X0162467Y0158789D03*
X0161089Y0158789D03*
X0161089Y0157411D03*
X0159711Y0158789D03*
X0261711Y0158789D03*
X0261711Y0157411D03*
X0261711Y0156033D03*
X0261711Y0154656D03*
X0263089Y0154656D03*
X0263089Y0156033D03*
X0264467Y0156033D03*
X0265844Y0156033D03*
X0265844Y0154656D03*
X0264467Y0154656D03*
X0264467Y0157411D03*
X0265844Y0157411D03*
X0265844Y0158789D03*
X0264467Y0158789D03*
X0263089Y0158789D03*
X0263089Y0157411D03*
X0363711Y0157411D03*
X0363711Y0156033D03*
X0363711Y0154656D03*
X0365089Y0154656D03*
X0365089Y0156033D03*
X0366467Y0156033D03*
X0367844Y0156033D03*
X0367844Y0154656D03*
X0366467Y0154656D03*
X0366467Y0157411D03*
X0367844Y0157411D03*
X0367844Y0158789D03*
X0366467Y0158789D03*
X0365089Y0158789D03*
X0365089Y0157411D03*
X0363711Y0158789D03*
X0465711Y0158789D03*
X0465711Y0157411D03*
X0465711Y0156033D03*
X0465711Y0154656D03*
X0467089Y0154656D03*
X0467089Y0156033D03*
X0468467Y0156033D03*
X0469844Y0156033D03*
X0469844Y0154656D03*
X0468467Y0154656D03*
X0468467Y0157411D03*
X0469844Y0157411D03*
X0469844Y0158789D03*
X0468467Y0158789D03*
X0467089Y0158789D03*
X0467089Y0157411D03*
X0467089Y0106789D03*
X0468467Y0106789D03*
X0469844Y0106789D03*
X0469844Y0105411D03*
X0468467Y0105411D03*
X0468467Y0104033D03*
X0469844Y0104033D03*
X0469844Y0102656D03*
X0468467Y0102656D03*
X0467089Y0102656D03*
X0467089Y0104033D03*
X0465711Y0104033D03*
X0465711Y0102656D03*
X0465711Y0105411D03*
X0467089Y0105411D03*
X0465711Y0106789D03*
X0367844Y0106789D03*
X0366467Y0106789D03*
X0366467Y0105411D03*
X0367844Y0105411D03*
X0367844Y0104033D03*
X0366467Y0104033D03*
X0366467Y0102656D03*
X0367844Y0102656D03*
X0365089Y0102656D03*
X0365089Y0104033D03*
X0363711Y0104033D03*
X0363711Y0102656D03*
X0363711Y0105411D03*
X0365089Y0105411D03*
X0365089Y0106789D03*
X0363711Y0106789D03*
X0265844Y0106789D03*
X0264467Y0106789D03*
X0264467Y0105411D03*
X0265844Y0105411D03*
X0265844Y0104033D03*
X0264467Y0104033D03*
X0264467Y0102656D03*
X0265844Y0102656D03*
X0263089Y0102656D03*
X0263089Y0104033D03*
X0261711Y0104033D03*
X0261711Y0102656D03*
X0261711Y0105411D03*
X0263089Y0105411D03*
X0263089Y0106789D03*
X0261711Y0106789D03*
X0163844Y0106789D03*
X0162467Y0106789D03*
X0162467Y0105411D03*
X0163844Y0105411D03*
X0163844Y0104033D03*
X0162467Y0104033D03*
X0162467Y0102656D03*
X0163844Y0102656D03*
X0161089Y0102656D03*
X0161089Y0104033D03*
X0159711Y0104033D03*
X0159711Y0102656D03*
X0159711Y0105411D03*
X0161089Y0105411D03*
X0161089Y0106789D03*
X0159711Y0106789D03*
X0061844Y0106789D03*
X0060467Y0106789D03*
X0060467Y0105411D03*
X0061844Y0105411D03*
X0061844Y0104033D03*
X0060467Y0104033D03*
X0060467Y0102656D03*
X0061844Y0102656D03*
X0059089Y0102656D03*
X0059089Y0104033D03*
X0057711Y0104033D03*
X0057711Y0102656D03*
X0057711Y0105411D03*
X0059089Y0105411D03*
X0059089Y0106789D03*
X0057711Y0106789D03*
X0057711Y0054789D03*
X0059089Y0054789D03*
X0060467Y0054789D03*
X0061844Y0054789D03*
X0061844Y0053411D03*
X0060467Y0053411D03*
X0060467Y0052033D03*
X0061844Y0052033D03*
X0061844Y0050656D03*
X0060467Y0050656D03*
X0059089Y0050656D03*
X0059089Y0052033D03*
X0057711Y0052033D03*
X0057711Y0050656D03*
X0057711Y0053411D03*
X0059089Y0053411D03*
X0159711Y0053411D03*
X0159711Y0052033D03*
X0159711Y0050656D03*
X0161089Y0050656D03*
X0161089Y0052033D03*
X0162467Y0052033D03*
X0163844Y0052033D03*
X0163844Y0050656D03*
X0162467Y0050656D03*
X0162467Y0053411D03*
X0163844Y0053411D03*
X0163844Y0054789D03*
X0162467Y0054789D03*
X0161089Y0054789D03*
X0161089Y0053411D03*
X0159711Y0054789D03*
X0261711Y0054789D03*
X0261711Y0053411D03*
X0261711Y0052033D03*
X0261711Y0050656D03*
X0263089Y0050656D03*
X0263089Y0052033D03*
X0264467Y0052033D03*
X0265844Y0052033D03*
X0265844Y0050656D03*
X0264467Y0050656D03*
X0264467Y0053411D03*
X0265844Y0053411D03*
X0265844Y0054789D03*
X0264467Y0054789D03*
X0263089Y0054789D03*
X0263089Y0053411D03*
X0363711Y0053411D03*
X0363711Y0052033D03*
X0363711Y0050656D03*
X0365089Y0050656D03*
X0365089Y0052033D03*
X0366467Y0052033D03*
X0367844Y0052033D03*
X0367844Y0050656D03*
X0366467Y0050656D03*
X0366467Y0053411D03*
X0367844Y0053411D03*
X0367844Y0054789D03*
X0366467Y0054789D03*
X0365089Y0054789D03*
X0365089Y0053411D03*
X0363711Y0054789D03*
X0465711Y0054789D03*
X0465711Y0053411D03*
X0465711Y0052033D03*
X0465711Y0050656D03*
X0467089Y0050656D03*
X0467089Y0052033D03*
X0468467Y0052033D03*
X0469844Y0052033D03*
X0469844Y0050656D03*
X0468467Y0050656D03*
X0468467Y0053411D03*
X0469844Y0053411D03*
X0469844Y0054789D03*
X0468467Y0054789D03*
X0467089Y0054789D03*
X0467089Y0053411D03*
D12*
X0467571Y0043750D03*
X0457729Y0043750D03*
X0365571Y0043750D03*
X0355729Y0043750D03*
X0263571Y0043750D03*
X0253729Y0043750D03*
X0161571Y0043750D03*
X0151729Y0043750D03*
X0059571Y0043750D03*
X0049729Y0043750D03*
X0049729Y0095750D03*
X0059571Y0095750D03*
X0151729Y0095750D03*
X0161571Y0095750D03*
X0253729Y0095750D03*
X0263571Y0095750D03*
X0355729Y0095750D03*
X0365571Y0095750D03*
X0457729Y0095750D03*
X0467571Y0095750D03*
X0467571Y0147750D03*
X0457729Y0147750D03*
X0365571Y0147750D03*
X0355729Y0147750D03*
X0263571Y0147750D03*
X0253729Y0147750D03*
X0161571Y0147750D03*
X0151729Y0147750D03*
X0059571Y0147750D03*
X0049729Y0147750D03*
X0049729Y0199750D03*
X0059571Y0199750D03*
X0151729Y0199750D03*
X0161571Y0199750D03*
X0253729Y0199750D03*
X0263571Y0199750D03*
X0355729Y0199750D03*
X0365571Y0199750D03*
X0457729Y0199750D03*
X0467571Y0199750D03*
D13*
X0507750Y0198404D03*
X0507750Y0205096D03*
X0405750Y0205096D03*
X0405750Y0198404D03*
X0405750Y0153096D03*
X0405750Y0146404D03*
X0405750Y0101096D03*
X0405750Y0094404D03*
X0405750Y0049096D03*
X0405750Y0042404D03*
X0303750Y0042404D03*
X0303750Y0049096D03*
X0303750Y0094404D03*
X0303750Y0101096D03*
X0303750Y0146404D03*
X0303750Y0153096D03*
X0303750Y0198404D03*
X0303750Y0205096D03*
X0201750Y0205096D03*
X0201750Y0198404D03*
X0201750Y0153096D03*
X0201750Y0146404D03*
X0201750Y0101096D03*
X0201750Y0094404D03*
X0201750Y0049096D03*
X0201750Y0042404D03*
X0099750Y0042404D03*
X0099750Y0049096D03*
X0099750Y0094404D03*
X0099750Y0101096D03*
X0099750Y0146404D03*
X0099750Y0153096D03*
X0099750Y0198404D03*
X0099750Y0205096D03*
X0507750Y0153096D03*
X0507750Y0146404D03*
X0507750Y0101096D03*
X0507750Y0094404D03*
X0507750Y0049096D03*
X0507750Y0042404D03*
D14*
X0508053Y0055090D03*
X0503487Y0055090D03*
X0406053Y0055090D03*
X0401487Y0055090D03*
X0304053Y0055090D03*
X0299487Y0055090D03*
X0202053Y0055090D03*
X0197487Y0055090D03*
X0100053Y0055090D03*
X0095487Y0055090D03*
X0095487Y0107090D03*
X0100053Y0107090D03*
X0197487Y0107090D03*
X0202053Y0107090D03*
X0299487Y0107090D03*
X0304053Y0107090D03*
X0401487Y0107090D03*
X0406053Y0107090D03*
X0503487Y0107090D03*
X0508053Y0107090D03*
X0508053Y0159090D03*
X0503487Y0159090D03*
X0406053Y0159090D03*
X0401487Y0159090D03*
X0304053Y0159090D03*
X0299487Y0159090D03*
X0202053Y0159090D03*
X0197487Y0159090D03*
X0100053Y0159090D03*
X0095487Y0159090D03*
X0095487Y0211090D03*
X0100053Y0211090D03*
X0197487Y0211090D03*
X0202053Y0211090D03*
X0299487Y0211090D03*
X0304053Y0211090D03*
X0401487Y0211090D03*
X0406053Y0211090D03*
X0503487Y0211090D03*
X0508053Y0211090D03*
D15*
X0513404Y0229750D03*
X0520096Y0229750D03*
X0418096Y0229750D03*
X0411404Y0229750D03*
X0316096Y0229750D03*
X0309404Y0229750D03*
X0214096Y0229750D03*
X0207404Y0229750D03*
X0112096Y0229750D03*
X0105404Y0229750D03*
X0105404Y0177750D03*
X0112096Y0177750D03*
X0207404Y0177750D03*
X0214096Y0177750D03*
X0309404Y0177750D03*
X0316096Y0177750D03*
X0411404Y0177750D03*
X0418096Y0177750D03*
X0513404Y0177750D03*
X0520096Y0177750D03*
X0520096Y0125750D03*
X0513404Y0125750D03*
X0418096Y0125750D03*
X0411404Y0125750D03*
X0316096Y0125750D03*
X0309404Y0125750D03*
X0214096Y0125750D03*
X0207404Y0125750D03*
X0112096Y0125750D03*
X0105404Y0125750D03*
X0105404Y0073750D03*
X0112096Y0073750D03*
X0207404Y0073750D03*
X0214096Y0073750D03*
X0309404Y0073750D03*
X0316096Y0073750D03*
X0411404Y0073750D03*
X0418096Y0073750D03*
X0513404Y0073750D03*
X0520096Y0073750D03*
D16*
X0523293Y0094750D03*
X0516207Y0094750D03*
X0421293Y0094750D03*
X0414207Y0094750D03*
X0319293Y0094750D03*
X0312207Y0094750D03*
X0217293Y0094750D03*
X0210207Y0094750D03*
X0115293Y0094750D03*
X0108207Y0094750D03*
X0108207Y0042750D03*
X0115293Y0042750D03*
X0210207Y0042750D03*
X0217293Y0042750D03*
X0312207Y0042750D03*
X0319293Y0042750D03*
X0414207Y0042750D03*
X0421293Y0042750D03*
X0516207Y0042750D03*
X0523293Y0042750D03*
X0523293Y0146750D03*
X0516207Y0146750D03*
X0421293Y0146750D03*
X0414207Y0146750D03*
X0319293Y0146750D03*
X0312207Y0146750D03*
X0217293Y0146750D03*
X0210207Y0146750D03*
X0115293Y0146750D03*
X0108207Y0146750D03*
X0108207Y0198750D03*
X0115293Y0198750D03*
X0210207Y0198750D03*
X0217293Y0198750D03*
X0312207Y0198750D03*
X0319293Y0198750D03*
X0414207Y0198750D03*
X0421293Y0198750D03*
X0516207Y0198750D03*
X0523293Y0198750D03*
D17*
X0529750Y0178293D03*
X0529750Y0171207D03*
X0529750Y0126293D03*
X0529750Y0119207D03*
X0529750Y0074293D03*
X0529750Y0067207D03*
X0427750Y0067207D03*
X0427750Y0074293D03*
X0427750Y0119207D03*
X0427750Y0126293D03*
X0427750Y0171207D03*
X0427750Y0178293D03*
X0427750Y0223207D03*
X0427750Y0230293D03*
X0325750Y0230293D03*
X0325750Y0223207D03*
X0325750Y0178293D03*
X0325750Y0171207D03*
X0325750Y0126293D03*
X0325750Y0119207D03*
X0325750Y0074293D03*
X0325750Y0067207D03*
X0223750Y0067207D03*
X0223750Y0074293D03*
X0223750Y0119207D03*
X0223750Y0126293D03*
X0223750Y0171207D03*
X0223750Y0178293D03*
X0223750Y0223207D03*
X0223750Y0230293D03*
X0121750Y0230293D03*
X0121750Y0223207D03*
X0121750Y0178293D03*
X0121750Y0171207D03*
X0121750Y0126293D03*
X0121750Y0119207D03*
X0121750Y0074293D03*
X0121750Y0067207D03*
X0529750Y0223207D03*
X0529750Y0230293D03*
D18*
X0467250Y0221433D03*
X0461870Y0221453D03*
X0461870Y0216887D03*
X0467250Y0216867D03*
X0467250Y0169433D03*
X0467250Y0164867D03*
X0461870Y0164887D03*
X0461870Y0169453D03*
X0365250Y0169433D03*
X0365250Y0164867D03*
X0359870Y0164887D03*
X0359870Y0169453D03*
X0263250Y0169433D03*
X0263250Y0164867D03*
X0257870Y0164887D03*
X0257870Y0169453D03*
X0161250Y0169433D03*
X0161250Y0164867D03*
X0155870Y0164887D03*
X0155870Y0169453D03*
X0059250Y0169433D03*
X0059250Y0164867D03*
X0053870Y0164887D03*
X0053870Y0169453D03*
X0053870Y0216887D03*
X0059250Y0216867D03*
X0059250Y0221433D03*
X0053870Y0221453D03*
X0155870Y0221453D03*
X0161250Y0221433D03*
X0161250Y0216867D03*
X0155870Y0216887D03*
X0257870Y0216887D03*
X0263250Y0216867D03*
X0263250Y0221433D03*
X0257870Y0221453D03*
X0359870Y0221453D03*
X0365250Y0221433D03*
X0365250Y0216867D03*
X0359870Y0216887D03*
X0359870Y0117453D03*
X0359870Y0112887D03*
X0365250Y0112867D03*
X0365250Y0117433D03*
X0461870Y0117453D03*
X0461870Y0112887D03*
X0467250Y0112867D03*
X0467250Y0117433D03*
X0467250Y0065433D03*
X0467250Y0060867D03*
X0461870Y0060887D03*
X0461870Y0065453D03*
X0365250Y0065433D03*
X0365250Y0060867D03*
X0359870Y0060887D03*
X0359870Y0065453D03*
X0263250Y0065433D03*
X0263250Y0060867D03*
X0257870Y0060887D03*
X0257870Y0065453D03*
X0161250Y0065433D03*
X0161250Y0060867D03*
X0155870Y0060887D03*
X0155870Y0065453D03*
X0059250Y0065433D03*
X0059250Y0060867D03*
X0053870Y0060887D03*
X0053870Y0065453D03*
X0053870Y0112887D03*
X0053870Y0117453D03*
X0059250Y0117433D03*
X0059250Y0112867D03*
X0155870Y0112887D03*
X0155870Y0117453D03*
X0161250Y0117433D03*
X0161250Y0112867D03*
X0257870Y0112887D03*
X0257870Y0117453D03*
X0263250Y0117433D03*
X0263250Y0112867D03*
D19*
X0271726Y0125919D03*
X0293774Y0125919D03*
X0293774Y0138281D03*
X0271726Y0138281D03*
X0271726Y0177919D03*
X0293774Y0177919D03*
X0293774Y0190281D03*
X0271726Y0190281D03*
X0271726Y0229919D03*
X0293774Y0229919D03*
X0373726Y0229919D03*
X0395774Y0229919D03*
X0395774Y0190281D03*
X0373726Y0190281D03*
X0373726Y0177919D03*
X0395774Y0177919D03*
X0395774Y0138281D03*
X0373726Y0138281D03*
X0373726Y0125919D03*
X0395774Y0125919D03*
X0395774Y0086281D03*
X0373726Y0086281D03*
X0373726Y0073919D03*
X0395774Y0073919D03*
X0395774Y0034281D03*
X0373726Y0034281D03*
X0293774Y0034281D03*
X0271726Y0034281D03*
X0271726Y0073919D03*
X0293774Y0073919D03*
X0293774Y0086281D03*
X0271726Y0086281D03*
X0191774Y0086281D03*
X0169726Y0086281D03*
X0169726Y0073919D03*
X0191774Y0073919D03*
X0191774Y0034281D03*
X0169726Y0034281D03*
X0089774Y0034281D03*
X0067726Y0034281D03*
X0067726Y0073919D03*
X0067726Y0086281D03*
X0089774Y0086281D03*
X0089774Y0073919D03*
X0089774Y0125919D03*
X0089774Y0138281D03*
X0067726Y0138281D03*
X0067726Y0125919D03*
X0169726Y0125919D03*
X0191774Y0125919D03*
X0191774Y0138281D03*
X0169726Y0138281D03*
X0169726Y0177919D03*
X0191774Y0177919D03*
X0191774Y0190281D03*
X0169726Y0190281D03*
X0089774Y0190281D03*
X0089774Y0177919D03*
X0067726Y0177919D03*
X0067726Y0190281D03*
X0067726Y0229919D03*
X0089774Y0229919D03*
X0169726Y0229919D03*
X0191774Y0229919D03*
X0475726Y0229919D03*
X0497774Y0229919D03*
X0497774Y0190281D03*
X0475726Y0190281D03*
X0475726Y0177919D03*
X0497774Y0177919D03*
X0497774Y0138281D03*
X0475726Y0138281D03*
X0475726Y0125919D03*
X0497774Y0125919D03*
X0497774Y0086281D03*
X0475726Y0086281D03*
X0475726Y0073919D03*
X0497774Y0073919D03*
X0497774Y0034281D03*
X0475726Y0034281D03*
D20*
X0480844Y0048750D03*
X0484781Y0048750D03*
X0488719Y0048750D03*
X0492656Y0048750D03*
X0492656Y0059450D03*
X0488719Y0059450D03*
X0484781Y0059450D03*
X0480844Y0059450D03*
X0480844Y0100750D03*
X0484781Y0100750D03*
X0488719Y0100750D03*
X0492656Y0100750D03*
X0492656Y0111450D03*
X0488719Y0111450D03*
X0484781Y0111450D03*
X0480844Y0111450D03*
X0480844Y0152750D03*
X0484781Y0152750D03*
X0488719Y0152750D03*
X0492656Y0152750D03*
X0492656Y0163450D03*
X0488719Y0163450D03*
X0484781Y0163450D03*
X0480844Y0163450D03*
X0480844Y0204750D03*
X0484781Y0204750D03*
X0488719Y0204750D03*
X0492656Y0204750D03*
X0492656Y0215450D03*
X0488719Y0215450D03*
X0484781Y0215450D03*
X0480844Y0215450D03*
X0390656Y0215450D03*
X0386719Y0215450D03*
X0382781Y0215450D03*
X0378844Y0215450D03*
X0378844Y0204750D03*
X0382781Y0204750D03*
X0386719Y0204750D03*
X0390656Y0204750D03*
X0390656Y0163450D03*
X0386719Y0163450D03*
X0382781Y0163450D03*
X0378844Y0163450D03*
X0378844Y0152750D03*
X0382781Y0152750D03*
X0386719Y0152750D03*
X0390656Y0152750D03*
X0390656Y0111450D03*
X0386719Y0111450D03*
X0382781Y0111450D03*
X0378844Y0111450D03*
X0378844Y0100750D03*
X0382781Y0100750D03*
X0386719Y0100750D03*
X0390656Y0100750D03*
X0390656Y0059450D03*
X0386719Y0059450D03*
X0382781Y0059450D03*
X0378844Y0059450D03*
X0378844Y0048750D03*
X0382781Y0048750D03*
X0386719Y0048750D03*
X0390656Y0048750D03*
X0288656Y0048750D03*
X0284719Y0048750D03*
X0280781Y0048750D03*
X0276844Y0048750D03*
X0276844Y0059450D03*
X0280781Y0059450D03*
X0284719Y0059450D03*
X0288656Y0059450D03*
X0288656Y0100750D03*
X0284719Y0100750D03*
X0280781Y0100750D03*
X0276844Y0100750D03*
X0276844Y0111450D03*
X0280781Y0111450D03*
X0284719Y0111450D03*
X0288656Y0111450D03*
X0288656Y0152750D03*
X0284719Y0152750D03*
X0280781Y0152750D03*
X0276844Y0152750D03*
X0276844Y0163450D03*
X0280781Y0163450D03*
X0284719Y0163450D03*
X0288656Y0163450D03*
X0288656Y0204750D03*
X0284719Y0204750D03*
X0280781Y0204750D03*
X0276844Y0204750D03*
X0276844Y0215450D03*
X0280781Y0215450D03*
X0284719Y0215450D03*
X0288656Y0215450D03*
X0186656Y0215450D03*
X0182719Y0215450D03*
X0178781Y0215450D03*
X0174844Y0215450D03*
X0174844Y0204750D03*
X0178781Y0204750D03*
X0182719Y0204750D03*
X0186656Y0204750D03*
X0186656Y0163450D03*
X0182719Y0163450D03*
X0178781Y0163450D03*
X0174844Y0163450D03*
X0174844Y0152750D03*
X0178781Y0152750D03*
X0182719Y0152750D03*
X0186656Y0152750D03*
X0186656Y0111450D03*
X0182719Y0111450D03*
X0178781Y0111450D03*
X0174844Y0111450D03*
X0174844Y0100750D03*
X0178781Y0100750D03*
X0182719Y0100750D03*
X0186656Y0100750D03*
X0186656Y0059450D03*
X0182719Y0059450D03*
X0178781Y0059450D03*
X0174844Y0059450D03*
X0174844Y0048750D03*
X0178781Y0048750D03*
X0182719Y0048750D03*
X0186656Y0048750D03*
X0084656Y0048750D03*
X0080719Y0048750D03*
X0076781Y0048750D03*
X0072844Y0048750D03*
X0072844Y0059450D03*
X0076781Y0059450D03*
X0080719Y0059450D03*
X0084656Y0059450D03*
X0084656Y0100750D03*
X0080719Y0100750D03*
X0076781Y0100750D03*
X0072844Y0100750D03*
X0072844Y0111450D03*
X0076781Y0111450D03*
X0080719Y0111450D03*
X0084656Y0111450D03*
X0084656Y0152750D03*
X0080719Y0152750D03*
X0076781Y0152750D03*
X0072844Y0152750D03*
X0072844Y0163450D03*
X0076781Y0163450D03*
X0080719Y0163450D03*
X0084656Y0163450D03*
X0084656Y0204750D03*
X0080719Y0204750D03*
X0076781Y0204750D03*
X0072844Y0204750D03*
X0072844Y0215450D03*
X0076781Y0215450D03*
X0080719Y0215450D03*
X0084656Y0215450D03*
D21*
X0054750Y0229750D03*
X0033750Y0229750D03*
X0033750Y0219750D03*
X0033750Y0209750D03*
X0033750Y0199750D03*
X0033750Y0189750D03*
X0033750Y0177750D03*
X0033750Y0167750D03*
X0033750Y0157750D03*
X0033750Y0147750D03*
X0033750Y0137750D03*
X0033750Y0125750D03*
X0033750Y0115750D03*
X0054750Y0125750D03*
X0033750Y0105750D03*
X0033750Y0095750D03*
X0033750Y0085750D03*
X0033750Y0073750D03*
X0033750Y0063750D03*
X0054750Y0073750D03*
X0033750Y0053750D03*
X0033750Y0043750D03*
X0033750Y0033750D03*
X0135750Y0033750D03*
X0135750Y0043750D03*
X0135750Y0053750D03*
X0135750Y0063750D03*
X0135750Y0073750D03*
X0156750Y0073750D03*
X0135750Y0085750D03*
X0135750Y0095750D03*
X0135750Y0105750D03*
X0135750Y0115750D03*
X0135750Y0125750D03*
X0156750Y0125750D03*
X0135750Y0137750D03*
X0135750Y0147750D03*
X0135750Y0157750D03*
X0135750Y0167750D03*
X0135750Y0177750D03*
X0156750Y0177750D03*
X0135750Y0189750D03*
X0135750Y0199750D03*
X0135750Y0209750D03*
X0135750Y0219750D03*
X0135750Y0229750D03*
X0156750Y0229750D03*
X0237750Y0229750D03*
X0237750Y0219750D03*
X0237750Y0209750D03*
X0237750Y0199750D03*
X0237750Y0189750D03*
X0237750Y0177750D03*
X0237750Y0167750D03*
X0237750Y0157750D03*
X0237750Y0147750D03*
X0237750Y0137750D03*
X0237750Y0125750D03*
X0237750Y0115750D03*
X0258750Y0125750D03*
X0237750Y0105750D03*
X0237750Y0095750D03*
X0237750Y0085750D03*
X0237750Y0073750D03*
X0237750Y0063750D03*
X0258750Y0073750D03*
X0237750Y0053750D03*
X0237750Y0043750D03*
X0237750Y0033750D03*
X0339750Y0033750D03*
X0339750Y0043750D03*
X0339750Y0053750D03*
X0339750Y0063750D03*
X0339750Y0073750D03*
X0360750Y0073750D03*
X0339750Y0085750D03*
X0339750Y0095750D03*
X0339750Y0105750D03*
X0339750Y0115750D03*
X0339750Y0125750D03*
X0360750Y0125750D03*
X0339750Y0137750D03*
X0339750Y0147750D03*
X0339750Y0157750D03*
X0339750Y0167750D03*
X0339750Y0177750D03*
X0360750Y0177750D03*
X0339750Y0189750D03*
X0339750Y0199750D03*
X0339750Y0209750D03*
X0339750Y0219750D03*
X0339750Y0229750D03*
X0360750Y0229750D03*
X0441750Y0229750D03*
X0441750Y0219750D03*
X0441750Y0209750D03*
X0441750Y0199750D03*
X0441750Y0189750D03*
X0441750Y0177750D03*
X0441750Y0167750D03*
X0441750Y0157750D03*
X0441750Y0147750D03*
X0441750Y0137750D03*
X0441750Y0125750D03*
X0441750Y0115750D03*
X0462750Y0125750D03*
X0441750Y0105750D03*
X0441750Y0095750D03*
X0441750Y0085750D03*
X0441750Y0073750D03*
X0441750Y0063750D03*
X0462750Y0073750D03*
X0441750Y0053750D03*
X0441750Y0043750D03*
X0441750Y0033750D03*
X0462750Y0177750D03*
X0462750Y0229750D03*
X0258750Y0229750D03*
X0258750Y0177750D03*
X0054750Y0177750D03*
D22*
X0049480Y0180320D03*
X0125750Y0187750D03*
X0151480Y0180320D03*
X0227750Y0187750D03*
X0253480Y0180320D03*
X0329750Y0187750D03*
X0355480Y0180320D03*
X0431750Y0187750D03*
X0457480Y0180320D03*
X0533750Y0187750D03*
X0457480Y0232320D03*
X0355480Y0232320D03*
X0253480Y0232320D03*
X0151480Y0232320D03*
X0049480Y0232320D03*
X0125750Y0135750D03*
X0151480Y0128320D03*
X0227750Y0135750D03*
X0253480Y0128320D03*
X0329750Y0135750D03*
X0355480Y0128320D03*
X0431750Y0135750D03*
X0457480Y0128320D03*
X0533750Y0135750D03*
X0533750Y0083750D03*
X0457480Y0076320D03*
X0431750Y0083750D03*
X0355480Y0076320D03*
X0329750Y0083750D03*
X0253480Y0076320D03*
X0227750Y0083750D03*
X0151480Y0076320D03*
X0125750Y0083750D03*
X0049480Y0076320D03*
X0125750Y0031750D03*
X0227750Y0031750D03*
X0329750Y0031750D03*
X0431750Y0031750D03*
X0533750Y0031750D03*
X0049480Y0128320D03*
D23*
X0055750Y0243000D03*
X0509750Y0243000D03*
D24*
X0052185Y0020500D02*
X0052187Y0020619D01*
X0052193Y0020738D01*
X0052203Y0020857D01*
X0052217Y0020975D01*
X0052235Y0021093D01*
X0052256Y0021210D01*
X0052282Y0021326D01*
X0052312Y0021442D01*
X0052345Y0021556D01*
X0052382Y0021669D01*
X0052423Y0021781D01*
X0052468Y0021892D01*
X0052516Y0022001D01*
X0052568Y0022108D01*
X0052624Y0022213D01*
X0052683Y0022317D01*
X0052745Y0022418D01*
X0052811Y0022518D01*
X0052880Y0022615D01*
X0052952Y0022709D01*
X0053028Y0022802D01*
X0053106Y0022891D01*
X0053187Y0022978D01*
X0053272Y0023063D01*
X0053359Y0023144D01*
X0053448Y0023222D01*
X0053541Y0023298D01*
X0053635Y0023370D01*
X0053732Y0023439D01*
X0053832Y0023505D01*
X0053933Y0023567D01*
X0054037Y0023626D01*
X0054142Y0023682D01*
X0054249Y0023734D01*
X0054358Y0023782D01*
X0054469Y0023827D01*
X0054581Y0023868D01*
X0054694Y0023905D01*
X0054808Y0023938D01*
X0054924Y0023968D01*
X0055040Y0023994D01*
X0055157Y0024015D01*
X0055275Y0024033D01*
X0055393Y0024047D01*
X0055512Y0024057D01*
X0055631Y0024063D01*
X0055750Y0024065D01*
X0055869Y0024063D01*
X0055988Y0024057D01*
X0056107Y0024047D01*
X0056225Y0024033D01*
X0056343Y0024015D01*
X0056460Y0023994D01*
X0056576Y0023968D01*
X0056692Y0023938D01*
X0056806Y0023905D01*
X0056919Y0023868D01*
X0057031Y0023827D01*
X0057142Y0023782D01*
X0057251Y0023734D01*
X0057358Y0023682D01*
X0057463Y0023626D01*
X0057567Y0023567D01*
X0057668Y0023505D01*
X0057768Y0023439D01*
X0057865Y0023370D01*
X0057959Y0023298D01*
X0058052Y0023222D01*
X0058141Y0023144D01*
X0058228Y0023063D01*
X0058313Y0022978D01*
X0058394Y0022891D01*
X0058472Y0022802D01*
X0058548Y0022709D01*
X0058620Y0022615D01*
X0058689Y0022518D01*
X0058755Y0022418D01*
X0058817Y0022317D01*
X0058876Y0022213D01*
X0058932Y0022108D01*
X0058984Y0022001D01*
X0059032Y0021892D01*
X0059077Y0021781D01*
X0059118Y0021669D01*
X0059155Y0021556D01*
X0059188Y0021442D01*
X0059218Y0021326D01*
X0059244Y0021210D01*
X0059265Y0021093D01*
X0059283Y0020975D01*
X0059297Y0020857D01*
X0059307Y0020738D01*
X0059313Y0020619D01*
X0059315Y0020500D01*
X0059313Y0020381D01*
X0059307Y0020262D01*
X0059297Y0020143D01*
X0059283Y0020025D01*
X0059265Y0019907D01*
X0059244Y0019790D01*
X0059218Y0019674D01*
X0059188Y0019558D01*
X0059155Y0019444D01*
X0059118Y0019331D01*
X0059077Y0019219D01*
X0059032Y0019108D01*
X0058984Y0018999D01*
X0058932Y0018892D01*
X0058876Y0018787D01*
X0058817Y0018683D01*
X0058755Y0018582D01*
X0058689Y0018482D01*
X0058620Y0018385D01*
X0058548Y0018291D01*
X0058472Y0018198D01*
X0058394Y0018109D01*
X0058313Y0018022D01*
X0058228Y0017937D01*
X0058141Y0017856D01*
X0058052Y0017778D01*
X0057959Y0017702D01*
X0057865Y0017630D01*
X0057768Y0017561D01*
X0057668Y0017495D01*
X0057567Y0017433D01*
X0057463Y0017374D01*
X0057358Y0017318D01*
X0057251Y0017266D01*
X0057142Y0017218D01*
X0057031Y0017173D01*
X0056919Y0017132D01*
X0056806Y0017095D01*
X0056692Y0017062D01*
X0056576Y0017032D01*
X0056460Y0017006D01*
X0056343Y0016985D01*
X0056225Y0016967D01*
X0056107Y0016953D01*
X0055988Y0016943D01*
X0055869Y0016937D01*
X0055750Y0016935D01*
X0055631Y0016937D01*
X0055512Y0016943D01*
X0055393Y0016953D01*
X0055275Y0016967D01*
X0055157Y0016985D01*
X0055040Y0017006D01*
X0054924Y0017032D01*
X0054808Y0017062D01*
X0054694Y0017095D01*
X0054581Y0017132D01*
X0054469Y0017173D01*
X0054358Y0017218D01*
X0054249Y0017266D01*
X0054142Y0017318D01*
X0054037Y0017374D01*
X0053933Y0017433D01*
X0053832Y0017495D01*
X0053732Y0017561D01*
X0053635Y0017630D01*
X0053541Y0017702D01*
X0053448Y0017778D01*
X0053359Y0017856D01*
X0053272Y0017937D01*
X0053187Y0018022D01*
X0053106Y0018109D01*
X0053028Y0018198D01*
X0052952Y0018291D01*
X0052880Y0018385D01*
X0052811Y0018482D01*
X0052745Y0018582D01*
X0052683Y0018683D01*
X0052624Y0018787D01*
X0052568Y0018892D01*
X0052516Y0018999D01*
X0052468Y0019108D01*
X0052423Y0019219D01*
X0052382Y0019331D01*
X0052345Y0019444D01*
X0052312Y0019558D01*
X0052282Y0019674D01*
X0052256Y0019790D01*
X0052235Y0019907D01*
X0052217Y0020025D01*
X0052203Y0020143D01*
X0052193Y0020262D01*
X0052187Y0020381D01*
X0052185Y0020500D01*
D25*
X0055750Y0020500D03*
M02*
